<svg width="32" height="32" viewBox="0 0 32 32" fill="none" xmlns="http://www.w3.org/2000/svg">
<g clip-path="url(#clip0_423_31756)">
<path d="M16 32C24.8366 32 32 24.8366 32 16C32 7.16344 24.8366 0 16 0C7.16344 0 0 7.16344 0 16C0 24.8366 7.16344 32 16 32Z" fill="#F0F0F0"/>
<path d="M0 16.0001C0 22.0647 3.37431 27.3409 8.34781 30.0546V1.9455C3.37431 4.65918 0 9.93537 0 16.0001Z" fill="#F0F0F0"/>
<path d="M16.0001 0C13.2282 0 10.6211 0.705188 8.3479 1.94544V30.0545C10.6211 31.2948 13.2282 32 16.0001 32C24.8366 32 32.0001 24.8365 32.0001 16C32.0001 7.1635 24.8366 0 16.0001 0Z" fill="#496E2D"/>
<path d="M22.8408 18.6461C20.8166 20.1087 17.99 19.6534 16.5275 17.6293C15.0649 15.605 15.5202 12.7785 17.5444 11.316C18.1755 10.86 18.8846 10.5904 19.6061 10.4967C18.2181 10.2892 16.751 10.6019 15.5236 11.4887C13.0324 13.2889 12.4719 16.7677 14.272 19.259C16.0721 21.7502 19.551 22.3107 22.0423 20.5105C23.2698 19.6237 24.0273 18.3291 24.266 16.946C23.9506 17.6014 23.472 18.19 22.8408 18.6461Z" fill="#F0F0F0"/>
<path d="M22.7542 10.4349L23.8944 11.6637L25.4154 10.9592L24.599 12.4232L25.7392 13.6522L24.0944 13.3281L23.278 14.7922L23.078 13.1279L21.4332 12.8038L22.9543 12.0993L22.7542 10.4349Z" fill="#F0F0F0"/>
</g>
<defs>
<clipPath id="clip0_423_31756">
<rect width="32" height="32" fill="white"/>
</clipPath>
</defs>
</svg>
