<svg width="32" height="32" viewBox="0 0 32 32" fill="none" xmlns="http://www.w3.org/2000/svg">
<path d="M0.995117 21.5651C3.25581 27.6579 9.12049 32 15.9999 32C22.8794 32 28.7441 27.6579 31.0047 21.5651L15.9999 20.1739L0.995117 21.5651Z" fill="#FFDA44"/>
<path d="M15.9999 0C9.12049 0 3.25581 4.342 0.995117 10.4348L15.9999 11.8261L31.0047 10.4347C28.7441 4.342 22.8794 0 15.9999 0Z" fill="black"/>
<path d="M0.995188 10.4348C0.352063 12.1681 0 14.0429 0 16C0 17.9571 0.352063 19.8319 0.995188 21.5652H31.0049C31.648 19.8319 32 17.9571 32 16C32 14.0429 31.648 12.1681 31.0048 10.4348H0.995188Z" fill="#D80027"/>
</svg>
