<svg width="32" height="32" viewBox="0 0 32 32" fill="none" xmlns="http://www.w3.org/2000/svg">
<g clip-path="url(#clip0_423_31754)">
<path d="M16 32C24.8366 32 32 24.8366 32 16C32 7.16344 24.8366 0 16 0C7.16344 0 0 7.16344 0 16C0 24.8366 7.16344 32 16 32Z" fill="#F0F0F0"/>
<path d="M15.9997 0C9.65634 0 4.17534 3.69156 1.58734 9.0435H30.412C27.8241 3.69156 22.343 0 15.9997 0Z" fill="#FF9811"/>
<path d="M15.9997 32C22.343 32 27.8241 28.3085 30.4121 22.9565H1.58734C4.17534 28.3085 9.65634 32 15.9997 32Z" fill="#6DA544"/>
<path d="M16 21.5652C19.0736 21.5652 21.5652 19.0736 21.5652 16C21.5652 12.9264 19.0736 10.4348 16 10.4348C12.9264 10.4348 10.4348 12.9264 10.4348 16C10.4348 19.0736 12.9264 21.5652 16 21.5652Z" fill="#0052B4"/>
<path d="M16.0003 19.4782C17.9213 19.4782 19.4785 17.921 19.4785 16C19.4785 14.079 17.9213 12.5217 16.0003 12.5217C14.0793 12.5217 12.522 14.079 12.522 16C12.522 17.921 14.0793 19.4782 16.0003 19.4782Z" fill="#F0F0F0"/>
<path d="M15.9997 11.7078L17.0728 14.1414L19.7168 13.8539L18.1458 15.9999L19.7168 18.146L17.0728 17.8584L15.9997 20.2921L14.9267 17.8584L12.2827 18.1459L13.8537 15.9999L12.2827 13.8539L14.9267 14.1414L15.9997 11.7078Z" fill="#0052B4"/>
</g>
<defs>
<clipPath id="clip0_423_31754">
<rect width="32" height="32" fill="white"/>
</clipPath>
</defs>
</svg>
