<svg width="32" height="32" viewBox="0 0 32 32" fill="none" xmlns="http://www.w3.org/2000/svg">
<g clip-path="url(#clip0_423_31746)">
<path d="M16 32C24.8366 32 32 24.8366 32 16C32 7.16344 24.8366 0 16 0C7.16344 0 0 7.16344 0 16C0 24.8366 7.16344 32 16 32Z" fill="#F0F0F0"/>
<path d="M21.1968 11.826H19.1034C19.1207 12.0561 19.1306 12.2882 19.1306 12.5216C19.1306 14.0694 18.7437 15.5696 18.0692 16.6374C17.8612 16.9668 17.5116 17.4319 17.0436 17.7457V11.8259H14.9566V17.7457C14.4887 17.4319 14.139 16.9669 13.9309 16.6374C13.2564 15.5696 12.8696 14.0694 12.8696 12.5216C12.8696 12.2882 12.8795 12.056 12.8967 11.826H10.8034C10.7899 12.0549 10.7826 12.2868 10.7826 12.5216C10.7826 16.8126 13.0744 20.1738 16 20.1738C18.9256 20.1738 21.2174 16.8126 21.2174 12.5216C21.2175 12.2868 21.2102 12.0549 21.1968 11.826Z" fill="#D80027"/>
<path d="M6.60847 7.65219H8.6954V9.0435H10.7823V7.65219H12.8693V9.0435H14.9562V7.65219H17.0432V9.0435H19.1301V7.65219H21.217V9.0435H23.304V7.65219H25.3909V9.0435H30.412C27.8242 3.69156 22.3431 0 15.9998 0C9.65647 0 4.1754 3.69156 1.5874 9.0435H6.60847V7.65219Z" fill="#6DA544"/>
<path d="M25.3911 22.9565V24.3478H23.3042V22.9565H21.2172V24.3478H19.1303V22.9565H17.0433V24.3478H14.9564V22.9565H12.8695V24.3478H10.7825V22.9565H8.6954V24.3478H6.60846V22.9565H1.5874C4.1754 28.3084 9.6564 32 15.9998 32C22.3432 32 27.8242 28.3084 30.4122 22.9565H25.3911Z" fill="#D80027"/>
</g>
<defs>
<clipPath id="clip0_423_31746">
<rect width="32" height="32" fill="white"/>
</clipPath>
</defs>
</svg>
