<svg width="32" height="32" viewBox="0 0 32 32" fill="none" xmlns="http://www.w3.org/2000/svg">
<path d="M16 32C24.8366 32 32 24.8366 32 16C32 7.16344 24.8366 0 16 0C7.16344 0 0 7.16344 0 16C0 24.8366 7.16344 32 16 32Z" fill="#D80027"/>
<path d="M15.3447 13.0741L16.6575 14.8832L18.7836 14.1938L17.4687 16.0013L18.7813 17.8103L16.656 17.1183L15.3412 18.9258L15.3426 16.6907L13.2172 15.9987L15.3433 15.3093L15.3447 13.0741Z" fill="#F0F0F0"/>
<path d="M11.762 20.5218C9.26476 20.5218 7.24027 18.4973 7.24027 16C7.24027 13.5028 9.26476 11.4783 11.762 11.4783C12.5406 11.4783 13.2733 11.6752 13.9129 12.0218C12.9095 11.0404 11.5371 10.4348 10.0229 10.4348C6.94926 10.4348 4.4577 12.9264 4.4577 15.9999C4.4577 19.0735 6.94933 21.5651 10.0229 21.5651C11.5373 21.5651 12.9095 20.9594 13.9129 19.9781C13.2733 20.3248 12.5406 20.5218 11.762 20.5218Z" fill="#F0F0F0"/>
</svg>
