<svg width="32" height="32" viewBox="0 0 32 32" fill="none" xmlns="http://www.w3.org/2000/svg">
<g clip-path="url(#clip0_423_31752)">
<path d="M16 32C24.8366 32 32 24.8366 32 16C32 7.16344 24.8366 0 16 0C7.16344 0 0 7.16344 0 16C0 24.8366 7.16344 32 16 32Z" fill="#F0F0F0"/>
<path d="M15.9993 0C9.11982 0 3.25513 4.342 0.994446 10.4348H31.0041C28.7434 4.342 22.8787 0 15.9993 0Z" fill="#D80027"/>
<path d="M15.9993 32C22.8787 32 28.7434 27.658 31.0041 21.5652H0.994446C3.25513 27.658 9.11982 32 15.9993 32Z" fill="black"/>
<path d="M21.5651 14.2609H17.3912C17.3912 13.4926 16.7682 12.8696 15.9999 12.8696C15.2315 12.8696 14.6086 13.4926 14.6086 14.2609H10.4346C10.4346 15.0294 11.1039 15.6523 11.8723 15.6523H11.8259C11.8259 16.4207 12.4488 17.0436 13.2173 17.0436C13.2173 17.812 13.8401 18.4349 14.6086 18.4349H17.3912C18.1596 18.4349 18.7825 17.812 18.7825 17.0436C19.5509 17.0436 20.1738 16.4207 20.1738 15.6523H20.1275C20.8959 15.6523 21.5651 15.0294 21.5651 14.2609Z" fill="#FF9811"/>
</g>
<defs>
<clipPath id="clip0_423_31752">
<rect width="32" height="32" fill="white"/>
</clipPath>
</defs>
</svg>
