<svg width="32" height="32" viewBox="0 0 32 32" fill="none" xmlns="http://www.w3.org/2000/svg">
<g clip-path="url(#clip0_423_31755)">
<path d="M16 32C24.8366 32 32 24.8366 32 16C32 7.16344 24.8366 0 16 0C7.16344 0 0 7.16344 0 16C0 24.8366 7.16344 32 16 32Z" fill="#F0F0F0"/>
<path d="M10.4348 16.0001V31.0049C12.1681 31.6481 14.0429 32.0001 16 32.0001C24.8365 32.0001 32 24.8366 32 16.0001C32 7.16359 10.4348 16.0001 10.4348 16.0001Z" fill="#6DA544"/>
<path d="M16 0C14.0429 0 12.1681 0.352063 10.4348 0.995188V16H32C32 7.1635 24.8365 0 16 0Z" fill="#D80027"/>
</g>
<defs>
<clipPath id="clip0_423_31755">
<rect width="32" height="32" fill="white"/>
</clipPath>
</defs>
</svg>
