<svg width="32" height="32" viewBox="0 0 32 32" fill="none" xmlns="http://www.w3.org/2000/svg">
<path d="M16 32C24.8366 32 32 24.8366 32 16C32 7.16344 24.8366 0 16 0C7.16344 0 0 7.16344 0 16C0 24.8366 7.16344 32 16 32Z" fill="#D80027"/>
<path d="M8.75625 9.73755L10.1375 13.9875H14.6062L10.9937 16.6188L12.375 20.8688L8.75625 18.2438L5.1375 20.8688L6.525 16.6188L2.90625 13.9875H7.375L8.75625 9.73755Z" fill="#FFDA44"/>
<path d="M18.9692 24.7813L17.9129 23.4813L16.3504 24.0875L17.2567 22.6813L16.2004 21.375L17.8192 21.8063L18.7317 20.4L18.8192 22.075L20.4442 22.5063L18.8754 23.1063L18.9692 24.7813Z" fill="#FFDA44"/>
<path d="M21.0692 20.9688L21.5692 19.3688L20.2004 18.4L21.8754 18.375L22.3692 16.775L22.9129 18.3625L24.5879 18.3438L23.2442 19.3438L23.7817 20.9313L22.4129 19.9625L21.0692 20.9688Z" fill="#FFDA44"/>
<path d="M23.8996 11.7439L23.1621 13.2501L24.3621 14.4189L22.7058 14.1814L21.9683 15.6814L21.6808 14.0314L20.0183 13.7939L21.5058 13.0126L21.2183 11.3564L22.4183 12.5251L23.8996 11.7439Z" fill="#FFDA44"/>
<path d="M19.0123 7.18127L18.8873 8.85003L20.4435 9.48128L18.8123 9.88128L18.6935 11.5563L17.8123 10.1313L16.181 10.5313L17.2623 9.25003L16.3748 7.83127L17.931 8.46252L19.0123 7.18127Z" fill="#FFDA44"/>
</svg>
