<svg width="32" height="32" viewBox="0 0 32 32" fill="none" xmlns="http://www.w3.org/2000/svg">
<path d="M16 32C24.8366 32 32 24.8366 32 16C32 7.16344 24.8366 0 16 0C7.16344 0 0 7.16344 0 16C0 24.8366 7.16344 32 16 32Z" fill="#6DA544"/>
<path d="M16.0002 6.26105L29.2176 16.0002L16.0002 25.7393L2.78284 16.0002L16.0002 6.26105Z" fill="#FFDA44"/>
<path d="M15.9999 21.5652C19.0735 21.5652 21.5651 19.0736 21.5651 16C21.5651 12.9264 19.0735 10.4348 15.9999 10.4348C12.9264 10.4348 10.4348 12.9264 10.4348 16C10.4348 19.0736 12.9264 21.5652 15.9999 21.5652Z" fill="#F0F0F0"/>
<path d="M13.2178 15.6522C12.2501 15.6522 11.3161 15.7994 10.437 16.0725C10.4759 19.1125 12.9512 21.5653 16.0004 21.5653C17.8859 21.5653 19.5512 20.6267 20.5579 19.1923C18.8356 17.0362 16.1855 15.6522 13.2178 15.6522Z" fill="#0052B4"/>
<path d="M21.4628 17.0663C21.5298 16.721 21.566 16.3648 21.566 16C21.566 12.9264 19.0743 10.4348 16.0008 10.4348C13.7074 10.4348 11.7387 11.8224 10.8867 13.8035C11.6398 13.6474 12.4195 13.5653 13.2182 13.5653C16.4505 13.5652 19.3747 14.9088 21.4628 17.0663Z" fill="#0052B4"/>
</svg>
