<svg width="32" height="32" viewBox="0 0 32 32" fill="none" xmlns="http://www.w3.org/2000/svg">
<path d="M16 32C24.8366 32 32 24.8366 32 16C32 7.16344 24.8366 0 16 0C7.16344 0 0 7.16344 0 16C0 24.8366 7.16344 32 16 32Z" fill="#F0F0F0"/>
<path d="M16 11.826H31.4488C31.0476 10.3377 30.4379 8.9351 29.6516 7.6521H16V11.826Z" fill="#338AF3"/>
<path d="M6.03996 28.5218H25.9595C27.4197 27.3588 28.672 25.9462 29.6513 24.3478H2.34814C3.32758 25.9461 4.57983 27.3588 6.03996 28.5218Z" fill="#338AF3"/>
<path d="M5.56496 3.87115C4.30708 4.95434 3.21965 6.2299 2.34814 7.65215H5.56496V3.87115Z" fill="#338AF3"/>
<path d="M16 16C16 14.3702 16 13.0063 16 11.826H9.73913V16H5.56519V11.826H0.551188C0.1925 13.1569 0 14.5558 0 16C0 17.4442 0.1925 18.8431 0.551188 20.1739H31.4489C31.8075 18.8431 32 17.4442 32 16H16Z" fill="#338AF3"/>
<path d="M15.9998 0C13.778 0 11.6621 0.453312 9.73895 1.27175V7.65219H15.9998C15.9998 6.19519 15.9998 4.956 15.9998 3.47825H25.9596C23.2265 1.3015 19.7654 0 15.9998 0Z" fill="#338AF3"/>
</svg>
