<svg width="32" height="32" viewBox="0 0 32 32" fill="none" xmlns="http://www.w3.org/2000/svg">
<path d="M0 16.0001C0 22.8795 4.342 28.7442 10.4347 31.0049L11.8261 16L10.4347 0.9953C4.342 3.25605 0 9.12068 0 16.0001Z" fill="#6DA544"/>
<path d="M32 16C32 7.1635 24.8365 0 16 0C14.0428 0 12.168 0.352063 10.4347 0.995188V31.0048C12.168 31.648 14.0428 32 16 32C24.8365 32 32 24.8365 32 16Z" fill="#D80027"/>
<path d="M10.4346 21.5652C13.5082 21.5652 15.9998 19.0736 15.9998 16C15.9998 12.9264 13.5082 10.4348 10.4346 10.4348C7.36107 10.4348 4.86945 12.9264 4.86945 16C4.86945 19.0736 7.36107 21.5652 10.4346 21.5652Z" fill="#FFDA44"/>
<path d="M7.30426 13.2174V16.6957C7.30426 18.4245 8.70576 19.8261 10.4347 19.8261C12.1636 19.8261 13.5651 18.4246 13.5651 16.6957V13.2174H7.30426Z" fill="#D80027"/>
<path d="M10.4347 17.7391C9.8593 17.7391 9.39117 17.2709 9.39117 16.6956V15.3043H11.4781V16.6956C11.4781 17.2709 11.01 17.7391 10.4347 17.7391Z" fill="#F0F0F0"/>
</svg>
