<svg width="32" height="32" viewBox="0 0 32 32" fill="none" xmlns="http://www.w3.org/2000/svg">
<path d="M0 16C0 17.9571 0.352063 19.8318 0.995188 21.5652L16 22.9565L31.0048 21.5652C31.6479 19.8318 32 17.9571 32 16C32 14.0428 31.6479 12.1681 31.0048 10.4348L16 9.04346L0.995188 10.4348C0.352063 12.1681 0 14.0428 0 16H0Z" fill="#FFDA44"/>
<path d="M31.0046 10.4348C28.7439 4.34206 22.8792 0 15.9998 0C9.12037 0 3.25568 4.34206 0.994995 10.4348H31.0046Z" fill="#D80027"/>
<path d="M0.994995 21.5652C3.25568 27.6579 9.12037 32 15.9998 32C22.8792 32 28.7439 27.6579 31.0046 21.5652H0.994995Z" fill="#D80027"/>
</svg>
