<svg width="40" height="40" viewBox="0 0 40 40" fill="none" xmlns="http://www.w3.org/2000/svg">
<path d="M37.351 0H13.0582C11.6205 0 10.4554 1.16551 10.4554 2.60285V10.502H2.65882C1.19038 10.502 0 11.6924 0 13.1608V37.3412C0 38.8096 1.19038 40 2.65882 40H26.8392C28.3076 40 29.4984 38.8096 29.4984 37.3412V29.4984H37.351C38.7887 29.4984 39.9538 28.3329 39.9538 26.8956V2.60285C39.9538 1.16551 38.7883 0 37.351 0ZM35.1514 2.62551L27.2411 10.5358C27.1097 10.5158 26.9764 10.502 26.8392 10.502H22.56L30.4365 2.62551H35.1514ZM13.0809 2.62551H17.6501L13.0809 7.19516V2.62551ZM21.6859 2.62551H26.4008L18.5242 10.5025H13.8093L21.6859 2.62551ZM4.12326 37.3754H2.62551V28.5448C4.2805 30.5769 5.8924 32.7396 4.12326 37.3754ZM9.04203 37.3754H6.35034C8.12392 31.9627 5.83066 29.1489 4.11526 27.0479C3.47965 26.2693 2.93243 25.5972 2.62551 24.9017V13.128H8.32958C8.16523 14.9633 7.66421 16.0871 7.17606 17.1797C6.6435 18.371 6.09317 19.6022 6.09317 21.498C6.09317 23.9325 7.49498 25.5626 8.73155 27.0008C9.61013 28.0224 10.4398 28.9872 10.693 30.1278C11.1234 32.0653 9.8793 35.4859 9.04203 37.3754ZM15.4079 37.3754H11.3286C12.1663 35.3344 13.2652 32.0209 12.7433 29.6716C12.3755 28.0167 11.3326 26.8041 10.3239 25.631C9.18061 24.3016 8.19322 23.1534 8.19322 21.498C8.19322 20.0504 8.59031 19.1616 9.09311 18.0365C9.64699 16.7968 10.2622 15.4137 10.4363 13.128H14.1314C14.3939 16.5024 15.642 18.4363 16.5814 19.8901C17.162 20.7882 17.5813 21.4376 17.5813 22.1105C17.5813 22.8927 17.2979 23.7193 16.9385 24.7653C16.2865 26.6664 15.3933 29.2697 15.3933 33.7505C15.3937 35.3504 15.3986 36.5665 15.4079 37.3754ZM26.8729 37.3754H24.887L25.0407 37.3172C23.8454 34.1578 23.7086 33.2419 23.7086 28.4071C23.7086 27.3584 23.9862 26.6215 24.557 26.1542C25.1811 25.643 26.1112 25.5017 26.8734 25.4973L26.8729 37.3754ZM26.8729 23.3995C25.7953 23.4035 24.3518 23.6127 23.2356 24.521C22.1553 25.4 21.6077 26.7077 21.6077 28.4071C21.6077 33.1233 21.7627 34.4687 22.8212 37.3754H17.5084C17.5004 36.7011 17.4942 35.5889 17.4942 33.7505C17.4942 29.6201 18.2879 27.3064 18.9258 25.4471C19.3317 24.2647 19.6822 23.2431 19.6822 22.1105C19.6822 20.8179 19.0333 19.8137 18.3457 18.7503C17.5066 17.452 16.4895 15.877 16.2394 13.128H20.7282C21.1289 15.169 22.4672 19.1328 26.8725 21.0622L26.8729 23.3995ZM26.8729 18.7099C24.2394 17.1815 23.2462 14.6777 22.8754 13.1275H26.8729V18.7099ZM37.3283 26.8729H32.4411L37.3283 21.9857V26.8729ZM37.3283 17.9499L29.4984 25.7798V21.0649L37.3283 13.235V17.9499ZM37.3283 9.19927L29.4984 17.0292V13.1613C29.4984 12.9041 29.4598 12.6563 29.3918 12.4209L37.3283 4.48437V9.19927Z" fill="#FF7A00"/>
<path d="M12.7033 19.2944C12.6207 19.2944 12.5372 19.3002 12.4551 19.3122C11.3242 19.4725 10.5878 20.6545 10.7787 22.0026C10.9542 23.24 11.8417 24.1386 12.8886 24.1386C12.9712 24.1386 13.0547 24.1328 13.1369 24.1208C14.2677 23.9605 15.0042 22.7785 14.8132 21.4305C14.6377 20.193 13.7507 19.2944 12.7033 19.2944Z" fill="#FF7A00"/>
</svg>
