<svg width="56" height="56" viewBox="0 0 56 56" fill="none" xmlns="http://www.w3.org/2000/svg">
<path d="M55.1797 13.5898C55.6326 13.5898 56 13.2228 56 12.7695V0.820312C56 0.367004 55.6326 0 55.1797 0H16.0508C15.5979 0 15.2305 0.367004 15.2305 0.820312C15.2305 1.27362 15.5979 1.64062 16.0508 1.64062H27.1797V27.1797H1.64062V16.0508C1.64062 15.5979 1.27319 15.2305 0.820312 15.2305C0.367432 15.2305 0 15.5979 0 16.0508V55.1797C0 55.633 0.367432 56 0.820312 56H39.9492C40.4021 56 40.7695 55.633 40.7695 55.1797C40.7695 54.7264 40.4021 54.3594 39.9492 54.3594H28.8203V28.8203H54.3594V54.3594H43.2305C42.7776 54.3594 42.4102 54.7264 42.4102 55.1797C42.4102 55.633 42.7776 56 43.2305 56H55.1797C55.6326 56 56 55.633 56 55.1797V16.0508C56 15.5979 55.6326 15.2305 55.1797 15.2305C54.7268 15.2305 54.3594 15.5979 54.3594 16.0508V27.1797H28.8203V1.64062H54.3594V12.7695C54.3594 13.2228 54.7268 13.5898 55.1797 13.5898ZM1.64062 28.8203H27.1797V54.3594H1.64062V28.8203Z" fill="#FF7A00"/>
<path d="M47.3132 26.7759C47.7661 26.7759 48.1335 26.4085 48.1335 25.9556V23.8839L51.0636 20.9539H53.1353C53.5882 20.9539 53.9556 20.5869 53.9556 20.1335C53.9556 19.6807 53.5882 19.3132 53.1353 19.3132H50.7239C50.5065 19.3132 50.2975 19.3995 50.1442 19.5533L46.7335 22.9645C46.5792 23.1183 46.4929 23.3268 46.4929 23.5443V25.9556C46.4929 26.4085 46.8604 26.7759 47.3132 26.7759Z" fill="#9497AA"/>
<path d="M35.8665 26.7759C36.3193 26.7759 36.6868 26.4085 36.6868 25.9556V23.5443C36.6868 23.3268 36.6005 23.1183 36.4467 22.9641L33.0359 19.5533C32.8821 19.3995 32.6732 19.3132 32.4557 19.3132H30.0444C29.5915 19.3132 29.2241 19.6802 29.2241 20.1335C29.2241 20.5869 29.5915 20.9539 30.0444 20.9539H32.1161L35.0461 23.8839V25.9556C35.0461 26.4085 35.4136 26.7759 35.8665 26.7759Z" fill="#9497AA"/>
<path d="M30.0444 9.50714H32.4557C32.6732 9.50714 32.8821 9.42084 33.0355 9.26703L36.4462 5.85632C36.6005 5.70251 36.6868 5.49359 36.6868 5.27612V2.86475C36.6868 2.41187 36.3193 2.04443 35.8665 2.04443C35.4131 2.04443 35.0461 2.41187 35.0461 2.86475V4.93646L32.1161 7.86652H30.0444C29.5915 7.86652 29.2241 8.23352 29.2241 8.68683C29.2241 9.13971 29.5915 9.50714 30.0444 9.50714Z" fill="#9497AA"/>
<path d="M53.1353 7.86652H51.0636L48.1335 4.93646V2.86475C48.1335 2.41187 47.7661 2.04443 47.3132 2.04443C46.8604 2.04443 46.4929 2.41187 46.4929 2.86475V5.27612C46.4929 5.49359 46.5792 5.70209 46.733 5.85632L50.1437 9.26703C50.2975 9.42084 50.5065 9.50714 50.7239 9.50714H53.1353C53.5882 9.50714 53.9556 9.14014 53.9556 8.68683C53.9556 8.23352 53.5882 7.86652 53.1353 7.86652Z" fill="#9497AA"/>
<path d="M39.225 20.3827L39.7014 19.9059C40.7426 18.8651 42.4366 18.8651 43.4778 19.9059L43.9542 20.3827C44.1144 20.5429 44.3246 20.6228 44.5344 20.6228C44.7442 20.6228 44.9544 20.5429 45.1146 20.3827L47.5619 17.935C47.7161 17.7812 47.8024 17.5727 47.8024 17.3548C47.8024 17.1373 47.7157 16.9288 47.5619 16.7746L47.0855 16.2982C46.0443 15.257 46.0443 13.563 47.0855 12.5222L47.5619 12.0454C47.7157 11.8916 47.8024 11.6831 47.8024 11.4652C47.8024 11.2477 47.7161 11.0392 47.5619 10.8854L45.1146 8.43771C44.7942 8.11728 44.2747 8.11728 43.9542 8.43771L43.4778 8.91409C42.4366 9.95529 40.7426 9.95529 39.7014 8.91409L39.225 8.43771C38.9046 8.11728 38.3855 8.11728 38.0651 8.43771L35.6174 10.8854C35.4636 11.0392 35.3773 11.2477 35.3773 11.4652C35.3773 11.6831 35.4636 11.8916 35.6174 12.0454L36.0942 12.5222C37.1354 13.5634 37.1354 15.257 36.0942 16.2982L35.6174 16.7746C35.4636 16.9284 35.3773 17.1373 35.3773 17.3548C35.3773 17.5727 35.4636 17.7812 35.6174 17.935L38.0651 20.3827C38.3855 20.7027 38.9046 20.7027 39.225 20.3827ZM37.3558 11.4673L38.647 10.1762C40.2991 11.7215 42.8806 11.7215 44.5327 10.1762L45.8239 11.4673C44.2785 13.1195 44.2789 15.7009 45.8239 17.3531L44.5327 18.6442C43.7068 17.8717 42.6486 17.4855 41.5898 17.4855C40.5311 17.4855 39.4728 17.8713 38.647 18.6442L37.3558 17.3531C38.9012 15.7009 38.9008 13.1195 37.3558 11.4673Z" fill="#FF7A00"/>
<path d="M0.820312 13.5898C1.27319 13.5898 1.64062 13.2228 1.64062 12.7695V1.64062H12.7695C13.2224 1.64062 13.5898 1.27362 13.5898 0.820312C13.5898 0.367004 13.2224 0 12.7695 0H0.820312C0.367432 0 0 0.367004 0 0.820312V12.7695C0 13.2228 0.367432 13.5898 0.820312 13.5898Z" fill="#9497AA"/>
<path d="M25.9556 19.3132H23.5443C23.3268 19.3132 23.1179 19.3995 22.9645 19.5533L19.5538 22.9641C19.3995 23.1179 19.3132 23.3268 19.3132 23.5443V25.9556C19.3132 26.4085 19.6807 26.7759 20.1335 26.7759C20.5869 26.7759 20.9539 26.4085 20.9539 25.9556V23.8839L23.8839 20.9539H25.9556C26.4085 20.9539 26.7759 20.5869 26.7759 20.1335C26.7759 19.6807 26.4085 19.3132 25.9556 19.3132Z" fill="#9497AA"/>
<path d="M8.68677 26.7759C9.13965 26.7759 9.50708 26.4085 9.50708 25.9556V23.5443C9.50708 23.3268 9.42078 23.1183 9.26697 22.9641L5.85626 19.5533C5.70245 19.3995 5.49353 19.3132 5.27606 19.3132H2.86469C2.4118 19.3132 2.04437 19.6802 2.04437 20.1335C2.04437 20.5869 2.4118 20.9539 2.86469 20.9539H4.9364L7.86646 23.8839V25.9556C7.86646 26.4085 8.23389 26.7759 8.68677 26.7759Z" fill="#9497AA"/>
<path d="M2.86469 9.50714H5.27606C5.49353 9.50714 5.70245 9.42084 5.85583 9.26703L9.26654 5.85632C9.42078 5.70251 9.50708 5.49359 9.50708 5.27612V2.86475C9.50708 2.41187 9.13965 2.04443 8.68677 2.04443C8.23346 2.04443 7.86646 2.41187 7.86646 2.86475V4.93646L4.9364 7.86652H2.86469C2.4118 7.86652 2.04437 8.23352 2.04437 8.68683C2.04437 9.13971 2.4118 9.50714 2.86469 9.50714Z" fill="#9497AA"/>
<path d="M20.1335 2.04443C19.6807 2.04443 19.3132 2.41187 19.3132 2.86475V5.27612C19.3132 5.49359 19.3995 5.70209 19.5533 5.85632L22.9641 9.26703C23.1179 9.42084 23.3268 9.50714 23.5443 9.50714H25.9556C26.4085 9.50714 26.7759 9.14014 26.7759 8.68683C26.7759 8.23352 26.4085 7.86652 25.9556 7.86652H23.8839L20.9539 4.93646V2.86475C20.9539 2.41187 20.5864 2.04443 20.1335 2.04443Z" fill="#9497AA"/>
<path d="M16.775 8.43764L16.2986 8.91444C15.257 9.95522 13.5634 9.95522 12.5222 8.91444L12.0458 8.43764C11.7253 8.11763 11.2058 8.11763 10.8854 8.43764L8.43768 10.8853C8.28387 11.0391 8.19757 11.2476 8.19757 11.4651C8.19757 11.683 8.28387 11.8915 8.43768 12.0453L8.91449 12.5221C9.95569 13.5633 9.95569 15.2569 8.91449 16.2981L8.43768 16.7745C8.28387 16.9283 8.19757 17.1372 8.19757 17.3547C8.19757 17.5726 8.28387 17.7811 8.43768 17.9349L10.8854 20.3826C11.2058 20.7026 11.7249 20.7026 12.0453 20.3826L12.5217 19.9058C13.5634 18.865 15.257 18.865 16.2982 19.9058L16.7745 20.3826C16.9348 20.5428 17.145 20.6227 17.3547 20.6227C17.5645 20.6227 17.7747 20.5428 17.9349 20.3826L20.3822 17.9349C20.5364 17.7811 20.6227 17.5726 20.6227 17.3547C20.6227 17.1372 20.536 16.9287 20.3822 16.7745L19.9058 16.2981C18.8646 15.2569 18.8646 13.5629 19.9058 12.5221L20.3822 12.0453C20.536 11.8915 20.6227 11.683 20.6227 11.4651C20.6227 11.2476 20.5364 11.0391 20.3822 10.8853L17.9349 8.43764C17.6145 8.11763 17.0954 8.11763 16.775 8.43764ZM18.6442 17.353L17.353 18.6441C16.5272 17.8717 15.4689 17.4854 14.4102 17.4854C13.3514 17.4854 12.2932 17.8712 11.4673 18.6441L10.1761 17.353C11.7215 15.7008 11.7211 13.1194 10.1761 11.4672L11.4673 10.1761C13.1194 11.7215 15.7009 11.7215 17.353 10.1761L18.6442 11.4672C17.0988 13.1194 17.0992 15.7008 18.6442 17.353Z" fill="#FF7A00"/>
<path d="M53.1353 46.4929H50.7239C50.5065 46.4929 50.2975 46.5792 50.1442 46.733L46.7335 50.1437C46.5792 50.2975 46.4929 50.5065 46.4929 50.7239V53.1353C46.4929 53.5882 46.8604 53.9556 47.3132 53.9556C47.7665 53.9556 48.1335 53.5882 48.1335 53.1353V51.0636L51.0636 48.1335H53.1353C53.5882 48.1335 53.9556 47.7665 53.9556 47.3132C53.9556 46.8604 53.5882 46.4929 53.1353 46.4929Z" fill="#9497AA"/>
<path d="M35.8665 53.9556C36.3193 53.9556 36.6868 53.5882 36.6868 53.1353V50.7239C36.6868 50.5065 36.6005 50.298 36.4467 50.1437L33.0359 46.733C32.8821 46.5792 32.6732 46.4929 32.4557 46.4929H30.0444C29.5915 46.4929 29.2241 46.8599 29.2241 47.3132C29.2241 47.7665 29.5915 48.1335 30.0444 48.1335H32.1161L35.0461 51.0636V53.1353C35.0461 53.5882 35.4136 53.9556 35.8665 53.9556Z" fill="#9497AA"/>
<path d="M30.0444 36.6868H32.4557C32.6732 36.6868 32.8821 36.6005 33.0355 36.4467L36.4462 33.036C36.6005 32.8822 36.6868 32.6733 36.6868 32.4558V30.0444C36.6868 29.5916 36.3193 29.2241 35.8665 29.2241C35.4131 29.2241 35.0461 29.5916 35.0461 30.0444V32.1161L32.1161 35.0462H30.0444C29.5915 35.0462 29.2241 35.4132 29.2241 35.8665C29.2241 36.3194 29.5915 36.6868 30.0444 36.6868Z" fill="#9497AA"/>
<path d="M47.3132 29.2241C46.8604 29.2241 46.4929 29.5916 46.4929 30.0444V32.4558C46.4929 32.6733 46.5792 32.8818 46.733 33.036L50.1437 36.4467C50.2975 36.6005 50.5065 36.6868 50.7239 36.6868H53.1353C53.5882 36.6868 53.9556 36.3198 53.9556 35.8665C53.9556 35.4132 53.5882 35.0462 53.1353 35.0462H51.0636L48.1335 32.1161V30.0444C48.1335 29.5916 47.7661 29.2241 47.3132 29.2241Z" fill="#9497AA"/>
<path d="M39.225 47.5623L39.7014 47.0855C40.7426 46.0448 42.4366 46.0448 43.4778 47.0855L43.9542 47.5623C44.1144 47.7226 44.3246 47.8025 44.5344 47.8025C44.7442 47.8025 44.9544 47.7226 45.1146 47.5623L47.5619 45.1147C47.7161 44.9608 47.8024 44.7523 47.8024 44.5345C47.8024 44.317 47.7157 44.1085 47.5619 43.9543L47.0855 43.4779C46.0443 42.4367 46.0443 40.7426 47.0855 39.7019L47.5619 39.2251C47.7157 39.0713 47.8024 38.8628 47.8024 38.6449C47.8024 38.4274 47.7161 38.2189 47.5619 38.0651L45.1146 35.6174C44.7942 35.297 44.2747 35.297 43.9542 35.6174L43.4778 36.0938C42.4366 37.135 40.7426 37.135 39.7014 36.0938L39.225 35.6174C38.9046 35.297 38.3855 35.297 38.0651 35.6174L35.6174 38.0651C35.4636 38.2189 35.3773 38.4274 35.3773 38.6449C35.3773 38.8628 35.4636 39.0713 35.6174 39.2251L36.0942 39.7019C37.1354 40.7431 37.1354 42.4367 36.0942 43.4779L35.6174 43.9543C35.4636 44.1081 35.3773 44.317 35.3773 44.5345C35.3773 44.7523 35.4636 44.9608 35.6174 45.1147L38.0651 47.5623C38.3855 47.8824 38.9046 47.8824 39.225 47.5623ZM37.3558 38.647L38.647 37.3559C40.2991 38.9012 42.8806 38.9012 44.5327 37.3559L45.8239 38.647C44.2785 40.2992 44.2789 42.8806 45.8239 44.5327L44.5327 45.8239C43.7068 45.0514 42.6486 44.6652 41.5898 44.6652C40.5311 44.6652 39.4728 45.051 38.647 45.8239L37.3558 44.5327C38.9012 42.8806 38.9008 40.2992 37.3558 38.647Z" fill="#FF7A00"/>
<path d="M25.9556 46.4929H23.5443C23.3268 46.4929 23.1179 46.5792 22.9645 46.733L19.5538 50.1437C19.3995 50.2975 19.3132 50.5065 19.3132 50.7239V53.1353C19.3132 53.5882 19.6807 53.9556 20.1335 53.9556C20.5869 53.9556 20.9539 53.5882 20.9539 53.1353V51.0636L23.8839 48.1335H25.9556C26.4085 48.1335 26.7759 47.7665 26.7759 47.3132C26.7759 46.8604 26.4085 46.4929 25.9556 46.4929Z" fill="#9497AA"/>
<path d="M5.85626 46.733C5.70245 46.5792 5.49353 46.4929 5.27606 46.4929H2.86469C2.4118 46.4929 2.04437 46.8599 2.04437 47.3132C2.04437 47.7665 2.4118 48.1335 2.86469 48.1335H4.9364L7.86646 51.0636V53.1353C7.86646 53.5882 8.23389 53.9556 8.68677 53.9556C9.13965 53.9556 9.50708 53.5882 9.50708 53.1353V50.7239C9.50708 50.5065 9.42078 50.2975 9.26697 50.1437L5.85626 46.733Z" fill="#9497AA"/>
<path d="M2.86469 36.6868H5.27606C5.49353 36.6868 5.70245 36.6005 5.85583 36.4467L9.26654 33.036C9.42078 32.8822 9.50708 32.6733 9.50708 32.4558V30.0444C9.50708 29.5916 9.13965 29.2241 8.68677 29.2241C8.23346 29.2241 7.86646 29.5916 7.86646 30.0444V32.1161L4.9364 35.0462H2.86469C2.4118 35.0462 2.04437 35.4132 2.04437 35.8665C2.04437 36.3194 2.4118 36.6868 2.86469 36.6868Z" fill="#9497AA"/>
<path d="M25.9556 35.0462H23.8839L20.9539 32.1161V30.0444C20.9539 29.5916 20.5864 29.2241 20.1335 29.2241C19.6807 29.2241 19.3132 29.5916 19.3132 30.0444V32.4558C19.3132 32.6733 19.3995 32.8822 19.5533 33.036L22.9641 36.4467C23.1179 36.6005 23.3268 36.6868 23.5443 36.6868H25.9556C26.4085 36.6868 26.7759 36.3198 26.7759 35.8665C26.7759 35.4136 26.4085 35.0462 25.9556 35.0462Z" fill="#9497AA"/>
<path d="M20.6227 44.5348C20.6227 44.3169 20.5364 44.1084 20.3826 43.9546L19.9058 43.4778C18.8646 42.4366 18.8646 40.743 19.9058 39.7018L20.3826 39.2254C20.5364 39.0716 20.6227 38.8627 20.6227 38.6452C20.6227 38.4273 20.5364 38.2188 20.3826 38.065L17.9349 35.6173C17.6145 35.2973 17.0954 35.2973 16.775 35.6173L16.2986 36.0941C15.257 37.1349 13.5634 37.1349 12.5222 36.0941L12.0458 35.6173C11.7253 35.2973 11.2058 35.2973 10.8854 35.6173L8.43811 38.065C8.28387 38.2188 8.19757 38.4273 8.19757 38.6452C8.19757 38.8627 8.2843 39.0712 8.43811 39.2254L8.91449 39.7018C9.95569 40.743 9.95569 42.437 8.91449 43.4778L8.43811 43.9546C8.2843 44.1084 8.19757 44.3169 8.19757 44.5348C8.19757 44.7523 8.28387 44.9608 8.43811 45.1146L10.8854 47.5623C11.2058 47.8827 11.7253 47.8827 12.0458 47.5623L12.5222 47.0859C13.5634 46.0447 15.2574 46.0447 16.2986 47.0859L16.775 47.5623C16.9352 47.7225 17.145 47.8024 17.3552 47.8024C17.5649 47.8024 17.7747 47.7225 17.9349 47.5623L20.3826 45.1146C20.5364 44.9608 20.6227 44.7523 20.6227 44.5348ZM17.353 45.8238C16.5272 45.0513 15.4689 44.6651 14.4102 44.6651C13.3514 44.6651 12.2932 45.0509 11.4673 45.8238L10.1761 44.5327C11.7215 42.8805 11.7211 40.2991 10.1761 38.6469L11.4673 37.3558C13.1194 38.9011 15.7009 38.9011 17.353 37.3558L18.6442 38.6469C17.0988 40.2991 17.0992 42.8805 18.6442 44.5327L17.353 45.8238Z" fill="#FF7A00"/>
</svg>
