<svg width="64" height="64" viewBox="0 0 64 64" fill="none" xmlns="http://www.w3.org/2000/svg">
<path d="M10.878 14C10.7753 14 10.6913 13.9673 10.626 13.902C10.57 13.8367 10.542 13.7573 10.542 13.664V6.412L8.414 8.05C8.33 8.106 8.246 8.12933 8.162 8.12C8.078 8.10133 8.00333 8.05 7.938 7.966L7.35 7.21C7.294 7.126 7.27067 7.03733 7.28 6.944C7.29867 6.85067 7.35 6.776 7.434 6.72L10.57 4.298C10.626 4.25133 10.682 4.22333 10.738 4.214C10.794 4.20467 10.8547 4.2 10.92 4.2H12.152C12.2453 4.2 12.3247 4.23267 12.39 4.298C12.4553 4.36333 12.488 4.44267 12.488 4.536V13.664C12.488 13.7573 12.4553 13.8367 12.39 13.902C12.3247 13.9673 12.2453 14 12.152 14H10.878ZM15.4265 14C15.3238 14 15.2398 13.9673 15.1745 13.902C15.1185 13.8367 15.0905 13.7573 15.0905 13.664V12.124H14.0265C13.9331 12.124 13.8538 12.0913 13.7885 12.026C13.7231 11.9607 13.6905 11.8813 13.6905 11.788V11.354C13.6905 11.2607 13.7231 11.1813 13.7885 11.116C13.8538 11.0507 13.9331 11.018 14.0265 11.018H15.0905V10.276H14.0265C13.9331 10.276 13.8538 10.2433 13.7885 10.178C13.7231 10.1127 13.6905 10.0287 13.6905 9.926V9.17C13.6905 9.06733 13.7231 8.988 13.7885 8.932C13.8538 8.86667 13.9331 8.834 14.0265 8.834H15.0905V4.55C15.0905 4.44733 15.1185 4.36333 15.1745 4.298C15.2398 4.23267 15.3238 4.2 15.4265 4.2H19.1645C19.9018 4.2 20.5411 4.31667 21.0825 4.55C21.6238 4.774 22.0438 5.11933 22.3425 5.586C22.6411 6.04333 22.7905 6.61733 22.7905 7.308C22.7905 7.98 22.6411 8.53533 22.3425 8.974C22.0438 9.40333 21.6238 9.73 21.0825 9.954C20.5411 10.1687 19.9018 10.276 19.1645 10.276H17.0925V11.018H19.3745C19.4771 11.018 19.5565 11.0507 19.6125 11.116C19.6778 11.1813 19.7105 11.2607 19.7105 11.354V11.788C19.7105 11.8813 19.6778 11.9607 19.6125 12.026C19.5565 12.0913 19.4771 12.124 19.3745 12.124H17.0925V13.664C17.0925 13.7573 17.0598 13.8367 16.9945 13.902C16.9291 13.9673 16.8451 14 16.7425 14H15.4265ZM17.0645 8.834H19.0945C19.6358 8.834 20.0511 8.708 20.3405 8.456C20.6391 8.19467 20.7885 7.812 20.7885 7.308C20.7885 6.84133 20.6531 6.468 20.3825 6.188C20.1118 5.89867 19.6825 5.754 19.0945 5.754H17.0645V8.834Z" fill="#9497AA"/>
<path d="M15.6919 19.2378C7.03939 19.2378 0 26.2772 0 34.9297C0 40.3018 2.5555 46.0779 7.59564 52.0974C8.34452 52.9917 9.09077 53.8205 9.80689 54.5766C6.55264 55.4649 4.59876 57.0607 4.59876 58.9234C4.59876 62.2208 10.314 64 15.6914 64C21.0689 64 26.7841 62.2206 26.7841 58.9234C26.7841 57.0622 24.8308 55.466 21.5787 54.5774C22.8779 53.2057 24.2759 51.592 25.6024 49.792C25.9099 49.3746 25.8209 48.7872 25.4037 48.4797C24.9867 48.1726 24.3989 48.2614 24.0914 48.6786C22.4899 50.852 20.7564 52.762 19.2438 54.2791C19.0704 54.3676 18.9254 54.5081 18.8345 54.6852C17.4795 56.0169 16.3393 57.0047 15.6923 57.5445C15.0524 57.01 13.9295 56.0355 12.5919 54.7212C12.4959 54.5109 12.3273 54.3459 12.1215 54.2539C7.87064 49.9782 1.87688 42.5912 1.87688 34.9299C1.87688 27.3124 8.07427 21.115 15.6918 21.115C23.3093 21.115 29.5067 27.3124 29.5067 34.9299C29.5067 38.2566 28.3732 41.8491 26.1377 45.6077C25.8728 46.0533 26.0191 46.6292 26.4646 46.8941C26.9101 47.159 27.4861 47.0127 27.7509 46.5672C30.1614 42.5142 31.3837 38.599 31.3837 34.9299C31.3838 26.2772 24.3444 19.2378 15.6919 19.2378ZM15.1175 59.4965C15.2865 59.6274 15.4893 59.6927 15.6919 59.6927C15.8945 59.6927 16.0972 59.6274 16.2663 59.4965C16.3814 59.4074 17.9497 58.1844 20.04 56.1405C23.2053 56.786 24.9073 58.0289 24.9073 58.9235C24.9073 59.5916 23.9915 60.3799 22.5174 60.9805C20.7094 61.7174 18.2853 62.1233 15.6915 62.1233C10.0658 62.1233 6.47576 60.228 6.47576 58.9235C6.47576 58.0276 8.17827 56.7854 11.3453 56.1399C13.4473 58.1959 15.0178 59.4193 15.1175 59.4965Z" fill="#FF7A00"/>
<path d="M15.6919 28.1068C14.2075 28.1068 12.796 28.5754 11.61 29.4621C11.195 29.7724 11.11 30.3606 11.4203 30.7757C11.7308 31.1907 12.3189 31.2756 12.7339 30.9654C13.5928 30.3233 14.6156 29.9838 15.6918 29.9838C18.4189 29.9838 20.6375 32.2024 20.6375 34.9297C20.6375 37.6568 18.4189 39.8755 15.6918 39.8755C12.9646 39.8755 10.746 37.6567 10.746 34.9297C10.746 34.4643 10.8104 34.0042 10.9373 33.5624C11.0803 33.0643 10.7924 32.5446 10.2943 32.4014C9.79626 32.2589 9.27639 32.5464 9.13326 33.0446C8.95814 33.6549 8.86926 34.2891 8.86926 34.9297C8.86926 38.6917 11.9299 41.7525 15.692 41.7525C19.454 41.7525 22.5148 38.6918 22.5148 34.9297C22.5147 31.1676 19.4539 28.1068 15.6919 28.1068Z" fill="#9497AA"/>
<path d="M56.5908 27.2652C57.0683 26.7528 57.5601 26.2008 58.0534 25.6116C61.9606 20.9449 63.9418 16.4588 63.9418 12.2774C63.9418 5.50776 58.4341 0 51.6644 0C46.719 0 42.2786 2.94326 40.3522 7.49827C40.1502 7.97564 40.3736 8.52639 40.8508 8.72814C41.3281 8.92989 41.879 8.70677 42.0807 8.22952C43.713 4.37051 47.4747 1.87688 51.6644 1.87688C57.3993 1.87688 62.0649 6.54264 62.0649 12.2775C62.0649 20.0329 53.9226 27.4631 51.664 29.3744C51.1662 28.9538 50.3827 28.2653 49.4641 27.3648C49.3725 27.1832 49.2245 27.0392 49.0467 26.9501C45.8064 23.6874 41.2638 18.079 41.2638 12.2775C41.2638 11.7591 40.8438 11.339 40.3253 11.339C39.8071 11.339 39.3868 11.7591 39.3868 12.2775C39.3868 16.4588 41.368 20.9449 45.2754 25.6117C45.7685 26.2006 46.26 26.7523 46.7372 27.2646C44.318 27.9914 42.9213 29.2287 42.9213 30.7186C42.9213 31.9751 43.9406 33.0824 45.7916 33.8366C47.3754 34.4819 49.461 34.8374 51.6642 34.8374C53.8674 34.8374 55.953 34.4819 57.5369 33.8366C59.3875 33.0823 60.4068 31.9749 60.4068 30.7184C60.4066 29.2313 59.009 27.9929 56.5908 27.2652ZM51.6641 32.9603C47.2217 32.9603 44.7984 31.4793 44.7984 30.7183C44.7984 30.2226 45.9007 29.3153 48.2547 28.8148C49.8386 30.3559 51.0142 31.2717 51.0901 31.3306C51.2592 31.4614 51.4619 31.5268 51.6645 31.5268C51.8671 31.5268 52.0696 31.4614 52.2389 31.3306C52.3147 31.2719 53.4901 30.3561 55.074 28.8151C56.1228 29.0387 57.0313 29.3663 57.667 29.7533C58.2074 30.0826 58.53 30.4433 58.53 30.7183C58.5298 31.4793 56.1064 32.9603 51.6641 32.9603Z" fill="#FF7A00"/>
<path d="M51.6644 6.81653C48.6532 6.81653 46.2034 9.26628 46.2034 12.2777C46.2034 15.2888 48.6531 17.7386 51.6644 17.7386C54.6756 17.7386 57.1254 15.2889 57.1254 12.2777C57.1254 9.26641 54.6756 6.81653 51.6644 6.81653ZM51.6645 15.8615C49.688 15.8615 48.0804 14.2538 48.0804 12.2775C48.0804 10.3013 49.6881 8.69341 51.6645 8.69341C53.6408 8.69341 55.2486 10.3012 55.2486 12.2775C55.2485 14.2538 53.6408 15.8615 51.6645 15.8615Z" fill="#9497AA"/>
<path d="M39.4906 29.7799H39.0621C38.7501 29.7799 38.4366 29.8005 38.1298 29.8414C37.6162 29.9098 37.2551 30.3815 37.3233 30.8955C37.3862 31.3674 37.7892 31.7104 38.2525 31.7104C38.2937 31.7104 38.3355 31.7078 38.3775 31.7022C38.6023 31.6723 38.8327 31.6572 39.0622 31.6572H39.4906V31.657C40.009 31.657 40.4291 31.237 40.4291 30.7185C40.4291 30.2 40.009 29.7799 39.4906 29.7799Z" fill="#9497AA"/>
<path d="M36.388 57.9371C36.3865 57.9371 36.3851 57.9371 36.3836 57.9371L35.1441 57.9428C34.6258 57.9451 34.2076 58.3673 34.2098 58.8855C34.2121 59.4024 34.632 59.8198 35.1482 59.8198C35.1497 59.8198 35.1511 59.8198 35.1526 59.8198L36.3921 59.8141C36.9103 59.8118 37.3286 59.3896 37.3263 58.8714C37.3241 58.3544 36.9043 57.9371 36.388 57.9371Z" fill="#9497AA"/>
<path d="M40.6043 41.9362H39.3648C38.8464 41.9362 38.4263 42.3564 38.4263 42.8747C38.4263 43.393 38.8463 43.8132 39.3648 43.8132H40.6043C41.1226 43.8132 41.5428 43.3932 41.5428 42.8747C41.5428 42.3564 41.1228 41.9362 40.6043 41.9362Z" fill="#9497AA"/>
<path d="M35.6314 31.692C35.28 31.3113 34.6865 31.2873 34.3053 31.6385C33.9554 31.9612 33.6371 32.3208 33.3594 32.7075C33.057 33.1287 33.1533 33.7151 33.5743 34.0174C33.7399 34.1364 33.9314 34.1937 34.121 34.1937C34.4129 34.1937 34.7006 34.0578 34.884 33.8026C35.0878 33.5189 35.3213 33.2549 35.5779 33.0182C35.9589 32.6668 35.9828 32.073 35.6314 31.692Z" fill="#9497AA"/>
<path d="M41.3462 57.9144C41.3447 57.9144 41.3433 57.9144 41.3418 57.9144L40.1025 57.9201C39.5842 57.9223 39.166 58.3446 39.1682 58.8628C39.1705 59.3797 39.5903 59.7971 40.1066 59.7971C40.1081 59.7971 40.1095 59.7971 40.111 59.7971L41.3503 59.7914C41.8686 59.7892 42.2868 59.3669 42.2846 58.8487C42.2822 58.3318 41.8625 57.9144 41.3462 57.9144Z" fill="#9497AA"/>
<path d="M31.4299 57.9595C31.4284 57.9595 31.427 57.9595 31.4255 57.9595L30.186 57.9651C29.6677 57.9675 29.2495 58.3896 29.2517 58.9079C29.2541 59.4247 29.6736 59.8421 30.1901 59.8421C30.1916 59.8421 30.193 59.8421 30.1945 59.8421L31.434 59.8365C31.9522 59.8341 32.3705 59.412 32.3682 58.8937C32.366 58.3767 31.9462 57.9595 31.4299 57.9595Z" fill="#9497AA"/>
<path d="M36.3246 41.1473C36.0298 40.9613 35.7524 40.744 35.5005 40.5019C35.1269 40.1425 34.5326 40.1544 34.1735 40.5277C33.8141 40.9012 33.8258 41.4953 34.1993 41.8545C34.5428 42.1849 34.9209 42.481 35.3231 42.7348C35.4786 42.8329 35.6518 42.8796 35.823 42.8796C36.1345 42.8796 36.4391 42.7248 36.6178 42.4416C36.8944 42.0034 36.763 41.4238 36.3246 41.1473Z" fill="#9497AA"/>
<path d="M34.0175 37.7859C33.9545 37.4624 33.9225 37.1297 33.9225 36.7967L33.9228 36.7445C33.9289 36.2263 33.5137 35.8013 32.9953 35.7953C32.9917 35.7952 32.9879 35.7952 32.9842 35.7952C32.4709 35.7952 32.0519 36.2082 32.0459 36.7228L32.0455 36.7968C32.0455 37.25 32.0892 37.7037 32.1752 38.145C32.2624 38.5932 32.6552 38.904 33.0953 38.904C33.1547 38.904 33.2152 38.8984 33.2757 38.8866C33.7845 38.7874 34.1165 38.2947 34.0175 37.7859Z" fill="#9497AA"/>
<path d="M45.5625 41.9362H44.323C43.8046 41.9362 43.3845 42.3564 43.3845 42.8747C43.3845 43.393 43.8046 43.8132 44.323 43.8132H45.5625C46.0809 43.8132 46.501 43.3932 46.501 42.8747C46.501 42.3564 46.0809 41.9362 45.5625 41.9362Z" fill="#9497AA"/>
<path d="M60.6303 43.847C60.2686 43.5616 59.8821 43.3024 59.4813 43.0767C59.0301 42.8222 58.4575 42.9821 58.203 43.4337C57.9486 43.8852 58.1084 44.4577 58.56 44.712C58.8763 44.8904 59.1815 45.0949 59.4669 45.3202C59.6394 45.4564 59.8441 45.5222 60.0479 45.5222C60.3251 45.5222 60.5999 45.3997 60.7851 45.1652C61.1064 44.7584 61.0371 44.1681 60.6303 43.847Z" fill="#9497AA"/>
<path d="M57.1466 58.5869C57.0753 58.0736 56.6008 57.7142 56.0885 57.7857C55.7811 57.8282 55.4663 57.8505 55.1525 57.8518L54.9769 57.8527C54.4585 57.8553 54.0404 58.2776 54.0429 58.7957C54.0455 59.3124 54.4651 59.7297 54.9812 59.7297C54.9829 59.7297 54.9843 59.7297 54.9858 59.7297L55.1611 59.7288C55.5575 59.7271 55.956 59.6989 56.3453 59.6451C56.859 59.5741 57.2176 59.1002 57.1466 58.5869Z" fill="#9497AA"/>
<path d="M61.2885 55.9478C60.9309 55.5723 60.3368 55.5579 59.9618 55.9156C59.6984 56.1664 59.4134 56.3987 59.1145 56.6059C58.6886 56.9012 58.5827 57.4859 58.8779 57.9121C59.0603 58.1749 59.3526 58.3159 59.65 58.3159C59.8345 58.3159 60.0208 58.2617 60.1839 58.1487C60.5621 57.8863 60.923 57.5923 61.2564 57.2747C61.6318 56.9171 61.646 56.3229 61.2885 55.9478Z" fill="#9497AA"/>
<path d="M63.115 51.3898C62.6064 51.2939 62.1152 51.6289 62.0192 52.1383C61.9518 52.4954 61.8561 52.8498 61.7342 53.1918C61.5602 53.6799 61.8148 54.2168 62.303 54.3909C62.4072 54.428 62.5137 54.4457 62.6183 54.4457C63.0038 54.4457 63.3653 54.2062 63.5023 53.8222C63.6569 53.3884 63.7785 52.9388 63.8639 52.4857C63.9595 51.9763 63.6243 51.4855 63.115 51.3898Z" fill="#9497AA"/>
<path d="M63.6724 48.3731C63.5452 47.93 63.3819 47.4935 63.1867 47.0751C62.9674 46.6054 62.4094 46.4024 61.9393 46.6214C61.4697 46.8406 61.2666 47.399 61.4857 47.8687C61.6394 48.1981 61.7682 48.5421 61.8683 48.8909C61.9864 49.3025 62.3619 49.5708 62.7699 49.5708C62.8558 49.5708 62.9428 49.5589 63.0293 49.5341C63.5274 49.391 63.8153 48.8713 63.6724 48.3731Z" fill="#9497AA"/>
<path d="M50.5209 41.9362H49.2814C48.763 41.9362 48.3429 42.3564 48.3429 42.8747C48.3429 43.393 48.7629 43.8132 49.2814 43.8132H50.5209C51.0393 43.8132 51.4594 43.3932 51.4594 42.8747C51.4594 42.3564 51.0393 41.9362 50.5209 41.9362Z" fill="#9497AA"/>
<path d="M46.3045 57.8918C46.303 57.8918 46.3016 57.8918 46.3001 57.8918L45.0606 57.8975C44.5424 57.8997 44.1241 58.322 44.1264 58.8402C44.1287 59.3571 44.5485 59.7745 45.0647 59.7745C45.0662 59.7745 45.0676 59.7745 45.0691 59.7745L46.3086 59.7688C46.8268 59.7665 47.2451 59.3443 47.2428 58.8261C47.2406 58.3092 46.8207 57.8918 46.3045 57.8918Z" fill="#9497AA"/>
<path d="M55.5204 41.9452C55.3877 41.9392 55.2532 41.9363 55.1209 41.9363H54.2395C53.7212 41.9363 53.301 42.3565 53.301 42.8748C53.301 43.3932 53.721 43.8133 54.2395 43.8133H55.1209V43.8132C55.227 43.8132 55.3325 43.8155 55.4374 43.8202C55.4515 43.8209 55.4657 43.8212 55.4797 43.8212C55.9788 43.8212 56.3943 43.4279 56.4164 42.9243C56.4393 42.4063 56.0382 41.968 55.5204 41.9452Z" fill="#9497AA"/>
<path d="M51.2626 57.8695C51.2611 57.8695 51.2597 57.8695 51.2582 57.8695L50.0187 57.8751C49.5005 57.8774 49.0822 58.2996 49.0845 58.8179C49.0869 59.3348 49.5066 59.7521 50.0229 59.7521C50.0244 59.7521 50.0259 59.7521 50.0272 59.7521L51.2667 59.7465C51.785 59.7441 52.2032 59.322 52.201 58.8038C52.1987 58.2868 51.779 57.8695 51.2626 57.8695Z" fill="#9497AA"/>
</svg>
