<svg width="64" height="57" viewBox="0 0 64 57" fill="none" xmlns="http://www.w3.org/2000/svg">
<path d="M9.89584 37.6873C5.87633 37.6873 2.60632 40.9574 2.60632 44.9768C2.60632 46.895 3.4797 48.8542 5.20233 50.7998C6.54246 52.3133 8.07271 53.4415 8.86559 53.9793C9.17859 54.1915 9.53709 54.2977 9.89584 54.2977C10.2545 54.2977 10.6133 54.1915 10.9263 53.9793C11.7193 53.4414 13.2495 52.3132 14.5895 50.7998C16.312 48.8542 17.1855 46.895 17.1855 44.9768C17.1852 40.9574 13.9152 37.6873 9.89584 37.6873ZM9.89584 52.4127C8.59534 51.5274 4.48133 48.449 4.48133 44.9769C4.48133 41.9913 6.91033 39.5624 9.89584 39.5624C12.8813 39.5624 15.3102 41.9914 15.3102 44.9769C15.3102 48.4488 11.1961 51.5275 9.89584 52.4127Z" fill="#FF7A00"/>
<path d="M9.89576 41.5239C7.99188 41.5239 6.44275 43.0729 6.44275 44.9769C6.44275 46.8808 7.99188 48.4298 9.89576 48.4298C11.7996 48.4298 13.3486 46.8808 13.3486 44.9769C13.3485 43.0729 11.7996 41.5239 9.89576 41.5239ZM9.89576 46.5548C9.02563 46.5548 8.31775 45.8469 8.31775 44.9768C8.31775 44.1067 9.02563 43.3988 9.89576 43.3988C10.7658 43.3988 11.4736 44.1067 11.4736 44.9768C11.4736 45.8469 10.7656 46.5548 9.89576 46.5548Z" fill="#9497AA"/>
<path d="M54.1043 6.07812C52.2003 6.07812 50.6512 7.62713 50.6512 9.53113C50.6512 11.435 52.2003 12.984 54.1043 12.984C56.0081 12.984 57.5571 11.435 57.5571 9.53113C57.5571 7.62713 56.0083 6.07812 54.1043 6.07812ZM54.1043 11.109C53.2341 11.109 52.5262 10.4011 52.5262 9.53101C52.5262 8.66088 53.2341 7.953 54.1043 7.953C54.9743 7.953 55.6821 8.66088 55.6821 9.53101C55.6821 10.4011 54.9743 11.109 54.1043 11.109Z" fill="#9497AA"/>
<path d="M53.0739 18.5337C53.3869 18.746 53.7454 18.8521 54.1042 18.8521C54.4628 18.8521 54.8217 18.746 55.1347 18.5337C55.9277 17.9959 57.4578 16.8676 58.7978 15.3542C60.5203 13.4086 61.3938 11.4495 61.3938 9.53122C61.3938 8.63609 61.2333 7.76146 60.9165 6.93184C60.7319 6.44796 60.1899 6.20583 59.7063 6.39021C59.2227 6.57483 58.98 7.11671 59.1648 7.60034C59.3997 8.21584 59.5188 8.86546 59.5188 9.53122C59.5188 13.0032 55.4047 16.0819 54.1044 16.967C52.8039 16.0817 48.6899 13.0033 48.6899 9.53122C48.6899 6.54571 51.1189 4.1167 54.1044 4.1167C55.0217 4.1167 55.9274 4.34995 56.7238 4.79108C57.1769 5.04196 57.7473 4.87821 57.9982 4.42533C58.249 3.97233 58.0853 3.40183 57.6324 3.15095C56.5587 2.55607 55.3387 2.2417 54.1043 2.2417C50.0848 2.2417 46.8148 5.51183 46.8148 9.53122C46.8148 11.4495 47.6881 13.4086 49.4108 15.3542C50.7508 16.8677 52.2811 17.996 53.0739 18.5337Z" fill="#FF7A00"/>
<path d="M18.5539 35.7759C18.2858 35.2953 18.0407 34.7975 17.822 34.2828C17.6197 33.8062 17.0689 33.584 16.5927 33.7864C16.1161 33.9889 15.8938 34.5393 16.0961 35.0158C18.8298 41.4518 25.1114 45.5404 31.9998 45.5404C41.5241 45.5404 49.2715 37.7901 49.2715 28.2687C49.2715 18.6853 41.4623 10.9971 31.9998 10.9971C30.6114 10.9971 29.2674 11.1898 27.9668 11.4737C27.9456 11.4783 27.9244 11.4836 27.9034 11.4892C20.3548 13.3323 14.7283 20.1537 14.7283 28.2687C14.7283 29.0312 14.7786 29.7994 14.878 30.5517C14.9459 31.065 15.4171 31.4256 15.9303 31.3584C16.4435 31.2906 16.8047 30.8194 16.7369 30.3061C16.6889 29.9426 16.6548 29.575 16.6327 29.2062H22.4182C22.4755 31.5131 22.7425 33.7335 23.1934 35.7759H18.5539ZM19.787 37.6509H23.6743C24.1814 39.3809 24.8283 40.9448 25.5967 42.2738C23.3237 41.2359 21.3245 39.6543 19.787 37.6509ZM18.5618 20.7616H23.1937C22.7425 22.8042 22.4754 25.0246 22.418 27.3312H16.6325C16.7759 24.9574 17.4594 22.7271 18.5618 20.7616ZM25.1254 20.7616H31.0624V27.3312H24.2939C24.356 25.0207 24.6454 22.7882 25.1254 20.7616ZM31.0624 12.9014V18.8866H25.6424C26.3882 16.5373 27.4109 14.5738 28.6362 13.2432C29.4241 13.067 30.2346 12.9514 31.0624 12.9014ZM35.3637 13.2432C36.5889 14.574 37.6117 16.5373 38.3575 18.8866H32.9374V12.9014C33.7653 12.9514 34.5758 13.067 35.3637 13.2432ZM32.9374 20.7616H38.8745C39.3545 22.7882 39.6438 25.0206 39.706 27.3312H32.9374V20.7616ZM47.3672 27.3312H41.5817C41.5243 25.0246 41.2572 22.8042 40.8061 20.7616H45.438C46.5405 22.7271 47.224 24.9574 47.3672 27.3312ZM45.4381 35.7759H40.8062C41.2573 33.7333 41.5245 31.5129 41.5818 29.2062H47.3673C47.224 31.5802 46.5405 33.8105 45.4381 35.7759ZM39.706 29.2062C39.6438 31.5169 39.3545 33.7493 38.8745 35.7759H32.9374V29.2062H39.706ZM38.3575 37.6509C37.6117 40.0001 36.5889 41.9636 35.3637 43.2943C34.5758 43.4705 33.7654 43.586 32.9374 43.636V37.6509H38.3575ZM31.0624 43.6346C30.2386 43.5849 29.4281 43.4718 28.6377 43.2958C27.4118 41.965 26.3885 40.0011 25.6425 37.6509H31.0626V43.6346H31.0624ZM38.4045 42.2686C39.1722 40.9398 39.8183 39.378 40.325 37.651H44.1988C42.6785 39.6233 40.6916 41.2181 38.4045 42.2686ZM44.199 18.8866H40.325C39.8185 17.1596 39.1722 15.5977 38.4045 14.269C40.6916 15.3195 42.6785 16.9143 44.199 18.8866ZM25.5954 14.269C24.8277 15.5978 24.1815 17.1596 23.6749 18.8866H19.801C21.3214 16.9143 23.3083 15.3195 25.5954 14.269ZM24.2939 29.2062H31.0624V35.7759H25.1254C24.6454 33.7494 24.356 31.5169 24.2939 29.2062Z" fill="#FF7A00"/>
<path d="M63.5672 24.1732L59.1224 21.3335C58.7225 21.0782 58.1949 21.1616 57.8935 21.5281L54.5439 25.6023C54.215 26.0023 54.2727 26.5931 54.6727 26.922C55.0723 27.2507 55.6634 27.1931 55.9922 26.7932L58.0738 24.2613C59.0535 30.5786 57.7252 36.9692 54.2683 42.4126C50.5301 48.2988 44.7293 52.4044 37.9342 53.9733C32.1346 55.3122 26.2253 54.691 20.8462 52.1768C20.3768 51.9575 19.8191 52.16 19.5998 52.6292C19.3806 53.0982 19.5832 53.6562 20.0522 53.8754C23.8352 55.6435 27.862 56.5378 31.9401 56.5377C34.0739 56.5377 36.2221 56.2928 38.356 55.8002C45.6339 54.1199 51.847 49.7225 55.851 43.4179C59.5342 37.6185 60.961 30.8149 59.943 24.0831L62.5575 25.7535C62.9939 26.0322 63.5737 25.9045 63.8523 25.4682C64.1312 25.0317 64.0035 24.4521 63.5672 24.1732Z" fill="#9497AA"/>
<path d="M5.38166 35.3516C5.65379 35.3516 5.92229 35.2332 6.10629 35.0094L9.45592 30.9352C9.7848 30.5352 9.72717 29.9444 9.32717 29.6156C8.92742 29.2868 8.33654 29.3443 8.00767 29.7443L5.92466 32.2779C4.93903 25.9219 6.29291 19.4898 9.7908 14.0321C13.5309 8.19663 19.3108 4.124 26.0657 2.56449C31.8655 1.22561 37.7746 1.84674 43.1538 4.361C43.6228 4.58012 44.1808 4.37762 44.4001 3.90862C44.6194 3.43962 44.4168 2.88162 43.9478 2.66237C38.1855 -0.0310143 31.8561 -0.696641 25.644 0.737613C18.4089 2.40787 12.2183 6.77 8.21217 13.0204C4.48578 18.8345 3.03253 25.6814 4.05591 32.4541L1.44228 30.7842C1.00615 30.5056 0.426274 30.6332 0.147523 31.0694C-0.131103 31.5058 -0.00347719 32.0854 0.432774 32.3642L4.87753 35.2039C5.03316 35.3036 5.20816 35.3516 5.38166 35.3516Z" fill="#9497AA"/>
</svg>
