<svg width="25" height="30" viewBox="0 0 25 30" fill="none" xmlns="http://www.w3.org/2000/svg">
<path d="M11.088 4.28571C11.088 1.91786 9.10328 0 6.65282 0C4.20237 0 2.21761 1.91786 2.21761 4.28571V18.8121C0.864867 19.9886 0 21.675 0 23.5714C0 27.1221 2.97825 30 6.65282 30C10.3274 30 13.3056 27.1221 13.3056 23.5714C13.3056 21.675 12.4408 19.9886 11.088 18.8121V4.28571ZM8.87043 6.42857H6.65282V8.57143H8.87043V10.7143H6.65282V12.8571H8.87043V15H4.43522V4.28571C4.43522 3.10286 5.4287 2.14286 6.65282 2.14286C7.87694 2.14286 8.87043 3.10286 8.87043 4.28571V6.42857Z" fill="#FF7A00"/>
<path d="M19.9585 6.42857L15.5233 12.8571H24.3937L19.9585 6.42857Z" fill="#FF7A00"/>
<path d="M19.9585 23.5714L24.3937 17.1429H15.5233L19.9585 23.5714Z" fill="#FF7A00"/>
</svg>
