<svg width="59" height="64" viewBox="0 0 59 64" fill="none" xmlns="http://www.w3.org/2000/svg">
<path d="M38.282 23.5083L35.5041 26.2863C35.138 26.6525 35.138 27.2461 35.5042 27.6121C35.6872 27.7951 35.9272 27.8866 36.1671 27.8866C36.407 27.8866 36.647 27.7951 36.8301 27.612L39.608 24.834C39.9741 24.4678 39.9741 23.8742 39.6079 23.5082C39.2419 23.1423 38.6482 23.1422 38.282 23.5083Z" fill="#FF7A00"/>
<path d="M45.7681 21.5781L41.06 26.2862C40.6938 26.6525 40.6938 27.246 41.06 27.6121C41.2431 27.7951 41.4831 27.8866 41.723 27.8866C41.9628 27.8866 42.2028 27.7951 42.386 27.6121L47.0941 22.904C47.4602 22.5377 47.4602 21.9442 47.0941 21.5781C46.7277 21.2121 46.1342 21.2121 45.7681 21.5781Z" fill="#FF7A00"/>
<path d="M19.3417 23.5082C18.9755 23.8743 18.9755 24.468 19.3416 24.834L22.1195 27.612C22.3026 27.7951 22.5425 27.8866 22.7825 27.8866C23.0223 27.8866 23.2623 27.7951 23.4453 27.6121C23.8116 27.246 23.8116 26.6523 23.4455 26.2863L20.6676 23.5083C20.3013 23.1423 19.7077 23.1422 19.3417 23.5082Z" fill="#FF7A00"/>
<path d="M11.8555 22.904L16.5636 27.6121C16.7467 27.7951 16.9867 27.8866 17.2266 27.8866C17.4665 27.8866 17.7065 27.7951 17.8896 27.6121C18.2557 27.2458 18.2557 26.6523 17.8896 26.2862L13.1815 21.5781C12.8152 21.2121 12.2217 21.2121 11.8556 21.5781C11.4894 21.9443 11.4894 22.5378 11.8555 22.904Z" fill="#FF7A00"/>
<path d="M48.1243 12.0534C48.6422 12.0534 49.0618 11.6338 49.0618 11.1159V9.85303C49.0618 9.33515 48.6422 8.91553 48.1243 8.91553C47.6065 8.91553 47.1868 9.33515 47.1868 9.85303V11.1159C47.1868 11.6337 47.6066 12.0534 48.1243 12.0534Z" fill="#FF7A00"/>
<path d="M49.7275 13.6565H50.9902C51.5081 13.6565 51.9277 13.2369 51.9277 12.719C51.9277 12.2011 51.5081 11.7815 50.9902 11.7815H49.7275C49.2096 11.7815 48.79 12.2011 48.79 12.719C48.79 13.2369 49.2097 13.6565 49.7275 13.6565Z" fill="#FF7A00"/>
<path d="M48.1243 16.5224C48.6422 16.5224 49.0618 16.1028 49.0618 15.5849V14.3221C49.0618 13.8043 48.6422 13.3846 48.1243 13.3846C47.6065 13.3846 47.1868 13.8043 47.1868 14.3221V15.5849C47.1868 16.1026 47.6066 16.5224 48.1243 16.5224Z" fill="#FF7A00"/>
<path d="M45.2586 13.6565H46.5214C47.0392 13.6565 47.4589 13.2369 47.4589 12.719C47.4589 12.2011 47.0392 11.7815 46.5214 11.7815H45.2586C44.7407 11.7815 44.3211 12.2011 44.3211 12.719C44.3211 13.2369 44.7407 13.6565 45.2586 13.6565Z" fill="#FF7A00"/>
<path d="M13.0978 3.13775C13.6157 3.13775 14.0353 2.71812 14.0353 2.20025V0.9375C14.0353 0.419625 13.6157 0 13.0978 0C12.58 0 12.1603 0.419625 12.1603 0.9375V2.20025C12.1603 2.718 12.5801 3.13775 13.0978 3.13775Z" fill="#FF7A00"/>
<path d="M10.2321 4.74084H11.4948C12.0127 4.74084 12.4323 4.32122 12.4323 3.80334C12.4323 3.28547 12.0127 2.86584 11.4948 2.86584H10.2321C9.71421 2.86584 9.29459 3.28547 9.29459 3.80334C9.29459 4.32122 9.71421 4.74084 10.2321 4.74084Z" fill="#FF7A00"/>
<path d="M14.0353 6.66924V5.40662C14.0353 4.88874 13.6157 4.46912 13.0978 4.46912C12.58 4.46912 12.1603 4.88874 12.1603 5.40662V6.66937C12.1603 7.18724 12.58 7.60687 13.0978 7.60687C13.6157 7.60687 14.0353 7.18712 14.0353 6.66924Z" fill="#FF7A00"/>
<path d="M14.7011 4.74084H15.964C16.4818 4.74084 16.9015 4.32122 16.9015 3.80334C16.9015 3.28547 16.4818 2.86584 15.964 2.86584H14.7011C14.1832 2.86584 13.7636 3.28547 13.7636 3.80334C13.7636 4.32122 14.1832 4.74084 14.7011 4.74084Z" fill="#FF7A00"/>
<path d="M58.6748 20.4778L56.402 18.2049C56.0357 17.839 55.4422 17.8388 55.0761 18.2049L42.2183 31.0625H16.7311L3.87334 18.205C3.50709 17.839 2.91359 17.839 2.54747 18.205L0.274594 20.4779C-0.0915312 20.8442 -0.0915312 21.4377 0.274594 21.8038L10.8593 32.3885V54.0625C10.8593 54.5804 11.279 55 11.7968 55C12.3147 55 12.7343 54.5804 12.7343 54.0625V32.9375H26.0118V62.125H12.7343V58.4554C12.7343 57.9375 12.3147 57.5179 11.7968 57.5179C11.279 57.5179 10.8593 57.9375 10.8593 58.4554V63.0625C10.8593 63.5804 11.279 64 11.7968 64H47.1526C47.6705 64 48.0901 63.5804 48.0901 63.0625V42.5693C48.0901 42.0514 47.6705 41.6318 47.1526 41.6318C46.6347 41.6318 46.2151 42.0514 46.2151 42.5693V62.125H32.9376V32.9375H46.2151V38.1697C46.2151 38.6875 46.6347 39.1072 47.1526 39.1072C47.6705 39.1072 48.0901 38.6875 48.0901 38.1697V32.3884L58.6748 21.8037C59.0408 21.4375 59.0408 20.844 58.6748 20.4778ZM3.21047 20.1938L14.0792 31.0625H12.1853L2.26347 21.1408L3.21047 20.1938ZM31.0626 62.125H27.8868V32.9375H31.0626V62.125ZM46.7641 31.0625H44.8702L55.739 20.1938L56.686 21.1408L46.7641 31.0625Z" fill="#9497AA"/>
<path d="M30.3165 16.4151H28.3804C27.644 16.4151 27.045 15.8161 27.045 15.0797C27.045 14.5618 26.6254 14.1422 26.1075 14.1422C25.5896 14.1422 25.17 14.5618 25.17 15.0797C25.17 16.8498 26.6101 18.2901 28.3804 18.2901H28.5372V19.878C28.5372 20.3958 28.9569 20.8155 29.4747 20.8155C29.9926 20.8155 30.4122 20.3958 30.4122 19.878V18.2876C32.2775 18.2366 33.7795 16.7045 33.7795 14.8271C33.7795 12.9177 32.226 11.3642 30.3166 11.3642H28.633C27.7574 11.3642 27.0451 10.6518 27.0451 9.77621C27.0451 8.90059 27.7574 8.18834 28.633 8.18834H30.5691C31.3055 8.18834 31.9045 8.78746 31.9045 9.52384C31.9045 10.0417 32.3241 10.4613 32.842 10.4613C33.3599 10.4613 33.7795 10.0417 33.7795 9.52384C33.7795 7.75359 32.3394 6.31334 30.5691 6.31334H30.4122V4.72559C30.4122 4.20771 29.9926 3.78809 29.4747 3.78809C28.9569 3.78809 28.5372 4.20771 28.5372 4.72559V6.31596C26.672 6.36696 25.17 7.89909 25.17 9.77646C25.17 11.686 26.7235 13.2395 28.6329 13.2395H30.3165C31.1921 13.2395 31.9044 13.9517 31.9044 14.8273C31.9044 15.703 31.1921 16.4151 30.3165 16.4151Z" fill="#FF7A00"/>
<path d="M29.4747 24.6036C36.2581 24.6036 41.7766 19.0851 41.7766 12.3019C41.7766 5.5185 36.2581 0 29.4747 0C27.0262 0 24.661 0.717625 22.6347 2.0755C22.2046 2.36375 22.0896 2.946 22.3777 3.37613C22.6659 3.80625 23.2485 3.9215 23.6784 3.63313C25.3949 2.48288 27.3992 1.875 29.4747 1.875C35.2241 1.875 39.9016 6.5525 39.9016 12.3019C39.9016 18.0513 35.2241 22.7286 29.4747 22.7286C23.7254 22.7286 19.0479 18.0513 19.0479 12.3019C19.0479 10.2163 19.6612 8.20388 20.8216 6.48225C21.111 6.05275 20.9976 5.47012 20.5683 5.18087C20.1388 4.8915 19.5564 5.005 19.267 5.43412C17.897 7.46663 17.1729 9.8415 17.1729 12.3018C17.1729 19.0851 22.6914 24.6036 29.4747 24.6036Z" fill="#9497AA"/>
</svg>
