<svg width="28" height="30" viewBox="0 0 28 30" fill="none" xmlns="http://www.w3.org/2000/svg">
<path d="M11.7194 6.38623L4.64012 18.1688C3.17888 20.6519 3.17888 23.5975 4.64012 26.0806C6.10132 28.5393 8.74661 30 11.7194 30C14.667 30 17.3124 28.5393 18.7987 26.0563C20.2599 23.5975 20.2599 20.6519 18.7735 18.1688L11.7194 6.38623ZM15.2647 24.3228C14.0515 24.3228 13.0678 23.3724 13.0678 22.2C13.0678 21.0276 14.0515 20.0771 15.2647 20.0771C16.4781 20.0771 17.4617 21.0276 17.4617 22.2C17.4617 23.3724 16.4781 24.3228 15.2647 24.3228Z" fill="#FF7A00"/>
<path d="M26.7329 6.92475L22.5871 0L18.4265 6.92475C17.5677 8.38407 17.5677 10.1153 18.4265 11.5746C19.2853 13.0196 20.84 13.8781 22.5871 13.8781C24.3195 13.8781 25.8742 13.0196 26.7478 11.5603C27.6065 10.1153 27.6065 8.38407 26.7329 6.92475ZM24.6708 10.5416C23.9577 10.5416 23.3796 9.98299 23.3796 9.29393C23.3796 8.60488 23.9577 8.04631 24.6708 8.04631C25.3838 8.04631 25.9619 8.60488 25.9619 9.29393C25.9619 9.98299 25.3838 10.5416 24.6708 10.5416Z" fill="#FF7A00"/>
<path d="M5.52665 7.62019C6.05602 6.72941 6.05602 5.66223 5.51748 4.76261L2.96185 0.493871L0.397051 4.76261C-0.13235 5.66223 -0.13235 6.72941 0.397051 7.62902C0.926418 8.5198 1.88481 9.04898 2.96185 9.04898C4.02975 9.04898 4.98812 8.5198 5.52665 7.62019ZM4.24628 6.99221C3.80671 6.99221 3.45035 6.64786 3.45035 6.22311C3.45035 5.79832 3.80671 5.454 4.24628 5.454C4.68585 5.454 5.04221 5.79832 5.04221 6.22311C5.04221 6.64786 4.68585 6.99221 4.24628 6.99221Z" fill="#FF7A00"/>
</svg>
