<svg width="64" height="64" viewBox="0 0 64 64" fill="none" xmlns="http://www.w3.org/2000/svg">
<path d="M4.54622 26.2878V45.5625C4.54622 46.0804 4.96597 46.5 5.48372 46.5C6.00147 46.5 6.42122 46.0804 6.42122 45.5625V26.2875C7.86185 26.0319 9.10522 25.1998 9.90272 24.0375C10.869 25.4456 12.4892 26.3714 14.3221 26.3714C16.1551 26.3714 17.7753 25.4456 18.7416 24.0375C19.7078 25.4456 21.3281 26.3714 23.161 26.3714C24.994 26.3714 26.6142 25.4456 27.5805 24.0375C28.5467 25.4456 30.167 26.3714 31.9998 26.3714C33.8327 26.3714 35.4531 25.4456 36.4192 24.0375C37.3855 25.4456 39.0057 26.3714 40.8387 26.3714C42.6716 26.3714 44.292 25.4456 45.2581 24.0375C46.2243 25.4456 47.8446 26.3714 49.6776 26.3714C51.5105 26.3714 53.1308 25.4456 54.097 24.0375C54.8945 25.1996 56.1378 26.0319 57.5785 26.2875V29.8125C57.5785 30.3304 57.9982 30.75 58.516 30.75C59.0337 30.75 59.4535 30.3304 59.4535 29.8125V26.2878C61.9618 25.8431 63.8735 23.6486 63.8735 21.0145V18.6154H63.8718C63.8718 18.4703 63.8398 18.3249 63.7721 18.1912L55.5083 1.89663C54.9153 0.726875 53.7318 0 52.4201 0H41.3351C41.3325 0 41.3298 0 41.3272 0H22.6722C22.6701 0 22.6678 0 22.6657 0H11.5798C10.2681 0 9.0846 0.726875 8.49135 1.89663L0.227596 18.1912C0.159846 18.3249 0.127846 18.4703 0.127846 18.6154H0.126221V21.0145C0.126221 23.6486 2.03785 25.8431 4.54622 26.2878ZM5.48322 24.4965C3.56335 24.4965 2.00135 22.9345 2.00135 21.0146V19.553H8.96522V21.0146C8.96522 22.9345 7.40322 24.4965 5.48322 24.4965ZM21.4882 1.875L17.989 17.6779H11.242L16.9987 1.875H21.4882ZM27.9553 1.875L26.7137 17.6779H19.9093L23.4086 1.875H27.9553ZM34.1637 1.875L35.4053 17.6779H28.5946L29.8362 1.875H34.1637ZM40.5913 1.875L44.0906 17.6779H37.2862L36.0446 1.875H40.5913ZM47.0012 1.875L52.758 17.6779H46.011L42.5117 1.875H47.0012ZM14.3221 24.4965C12.4022 24.4965 10.8402 22.9345 10.8402 21.0146V19.553H17.8041V21.0146C17.8041 22.9345 16.2421 24.4965 14.3221 24.4965ZM23.1611 24.4965C21.2412 24.4965 19.6792 22.9345 19.6792 21.0146V19.553H26.6431V21.0146C26.6431 22.9345 25.081 24.4965 23.1611 24.4965ZM32 24.4965C30.0801 24.4965 28.5181 22.9345 28.5181 21.0146V19.553H35.482V21.0146C35.4818 22.9345 33.9198 24.4965 32 24.4965ZM40.8388 24.4965C38.9188 24.4965 37.3568 22.9345 37.3568 21.0146V19.553H44.3207V21.0146C44.3208 22.9345 42.7588 24.4965 40.8388 24.4965ZM49.6778 24.4965C47.7578 24.4965 46.1958 22.9345 46.1958 21.0146V19.553H53.1597V21.0146C53.1597 22.9345 51.5977 24.4965 49.6778 24.4965ZM58.5167 24.4965C56.5967 24.4965 55.0347 22.9345 55.0347 21.0146V19.553H61.9986V21.0146C61.9987 22.9345 60.4367 24.4965 58.5167 24.4965ZM53.8363 2.74475L61.4096 17.6779H54.7535L48.9967 1.875H52.4201C53.0216 1.875 53.5643 2.20825 53.8363 2.74475ZM10.1636 2.74475C10.4356 2.20825 10.9783 1.875 11.5798 1.875H15.0032L9.24647 17.6779H2.59035L10.1636 2.74475Z" fill="#9497AA"/>
<path d="M28.717 31.5676C28.1992 31.5676 27.7795 31.9873 27.7795 32.5051V54.2236C27.7795 54.7415 28.1992 55.1611 28.717 55.1611H54.4761C54.9939 55.1611 55.4136 54.7415 55.4136 54.2236V32.5051C55.4136 31.9873 54.9939 31.5676 54.4761 31.5676H28.717ZM29.6545 33.4426H53.5386V49.2455H29.6545V33.4426ZM53.5386 53.2861H29.6545V51.1205H53.5386V53.2861Z" fill="#FF7A00"/>
<path d="M20.6356 41.7954C20.1179 41.7954 19.6981 42.215 19.6981 42.7329V47.7837C19.6981 48.3015 20.1179 48.7212 20.6356 48.7212C21.1534 48.7212 21.5731 48.3015 21.5731 47.7837V42.7329C21.5731 42.2152 21.1535 41.7954 20.6356 41.7954Z" fill="#FF7A00"/>
<path d="M61.8 58.0838H59.4538V34.1875C59.4538 33.6696 59.034 33.25 58.5163 33.25C57.9985 33.25 57.5788 33.6696 57.5788 34.1875V58.0838H25.6139V32.5051C25.6139 31.9873 25.1941 31.5676 24.6764 31.5676H9.52388C9.00613 31.5676 8.58638 31.9873 8.58638 32.5051V58.0838H6.42125V49.9375C6.42125 49.4196 6.0015 49 5.48375 49C4.966 49 4.54625 49.4196 4.54625 49.9375V58.0838H2.2C0.986875 58.0838 0 59.0713 0 60.285V61.8C0 63.013 0.987 64 2.2 64H50.7738C51.2915 64 51.7113 63.5804 51.7113 63.0625C51.7113 62.5446 51.2915 62.125 50.7738 62.125H2.2C2.02075 62.125 1.875 61.9793 1.875 61.8V60.285C1.875 60.1051 2.02087 59.9588 2.2 59.9588H61.8C61.9792 59.9588 62.125 60.1051 62.125 60.285V61.8C62.125 61.9793 61.9791 62.125 61.8 62.125H55.1488C54.631 62.125 54.2113 62.5446 54.2113 63.0625C54.2113 63.5804 54.631 64 55.1488 64H61.8C63.0131 64 64 63.013 64 61.8V60.285C64 59.0713 63.013 58.0838 61.8 58.0838ZM10.4614 33.4426H23.7389V58.0838H10.4614V33.4426Z" fill="#9497AA"/>
</svg>
