<svg width="217" height="144" viewBox="0 0 217 144" fill="none" xmlns="http://www.w3.org/2000/svg">
<path opacity="0.4" d="M216.75 72C216.75 98.3716 195.372 119.75 169 119.75C142.628 119.75 121.25 98.3716 121.25 72C121.25 45.6284 142.628 24.25 169 24.25C195.372 24.25 216.75 45.6284 216.75 72Z" stroke="white" stroke-width="0.5"/>
<path fill-rule="evenodd" clip-rule="evenodd" d="M187.205 60.6554C188.075 61.5294 188.075 62.9463 187.205 63.8202L168.085 83.0337C165.476 85.6554 161.246 85.6554 158.637 83.0337L150.652 75.0093C149.783 74.1354 149.783 72.7185 150.652 71.8446C151.522 70.9706 152.932 70.9706 153.802 71.8446L161.787 79.8689C162.656 80.7428 164.066 80.7428 164.936 79.8689L184.056 60.6554C184.925 59.7815 186.335 59.7815 187.205 60.6554Z" fill="#FDC607"/>
<path opacity="0.25" fill-rule="evenodd" clip-rule="evenodd" d="M72 144C111.765 144 144 111.765 144 72C144 32.2355 111.765 0 72 0C32.2355 0 0 32.2355 0 72C0 111.765 32.2355 144 72 144Z" fill="#FDC607"/>
<path d="M96.8258 52.873C92.0822 51.2337 88.3024 47.7715 86.4558 43.3743C86.1596 42.6683 85.4764 42.2119 84.7154 42.2119H58.6215C57.861 42.2119 57.1778 42.6679 56.8813 43.3738C55.0344 47.7715 51.2547 51.2339 46.5114 52.873C45.7482 53.1365 45.2354 53.8532 45.2354 54.6565V61.4756C45.2354 62.78 45.2999 64.1015 45.4272 65.4034C45.4907 66.0528 46.0376 66.5382 46.6766 66.5382C46.7174 66.5382 46.7588 66.536 46.8003 66.5322C47.4911 66.4646 47.9963 65.8498 47.9288 65.1591C47.8093 63.938 47.7488 62.6988 47.7488 61.4757V55.0999C52.8374 53.2206 56.9154 49.4719 59.0347 44.7255H84.3022C86.4216 49.4721 90.5 53.2206 95.5882 55.0999V61.4757C95.5882 62.6846 95.5291 63.91 95.4124 65.1181C95.3456 65.8089 95.8514 66.4231 96.5423 66.4898C97.2325 66.5582 97.8474 66.0508 97.914 65.3599C98.0385 64.0719 98.1017 62.7651 98.1017 61.4757V54.6567C98.1017 53.8537 97.5892 53.137 96.8258 52.873Z" fill="white"/>
<path d="M95.9611 69.8476C95.288 69.6793 94.6053 70.0879 94.4365 70.7611C93.4054 74.875 91.7059 78.8146 89.3849 82.4701C85.2639 88.9611 79.2816 94.3914 72.085 98.1739L71.6685 98.3929L71.2518 98.1739C64.0555 94.3914 58.0733 88.9611 53.9523 82.4701C51.6277 78.8084 49.9264 74.8625 48.896 70.742C48.7277 70.0684 48.0446 69.6601 47.3719 69.8276C46.6986 69.9959 46.289 70.6783 46.4576 71.3517C47.5536 75.7339 49.3612 79.9281 51.8303 83.8171C56.1866 90.6785 62.498 96.4123 70.0826 100.399L70.7913 100.771C71.066 100.916 71.3673 100.988 71.6685 100.988C71.9697 100.988 72.271 100.916 72.5454 100.771L73.2542 100.399C80.839 96.4121 87.1506 90.6783 91.5068 83.8171C93.972 79.9344 95.7779 75.7472 96.8746 71.3722C97.0433 70.6991 96.6344 70.0166 95.9611 69.8476Z" fill="white"/>
<path d="M80.2745 78.0273H76.6306V51.8398C76.6306 50.9063 75.8712 50.1467 74.9375 50.1467H69.8396C69.4426 50.1467 69.0562 50.2871 68.751 50.5429L59.4894 58.3155C58.7874 58.9045 58.6792 59.9321 59.2436 60.6549L62.2814 64.5426C62.5614 64.9006 62.9811 65.134 63.4331 65.183C63.8853 65.2327 64.345 65.0938 64.6952 64.804L67.2233 62.7107V78.0273H62.6899C61.7563 78.0273 60.9966 78.7867 60.9966 79.7204V84.3438C60.9966 85.2773 61.7562 86.037 62.6899 86.037H80.2745C81.208 86.037 81.9675 85.2775 81.9675 84.3438V79.7204C81.9675 78.7868 81.208 78.0273 80.2745 78.0273ZM79.4539 83.5234H63.5103V80.5409H68.0438C68.9774 80.5409 69.7369 79.7814 69.7369 78.8477V60.9663C69.7369 60.3034 69.3642 59.7162 68.7644 59.434C68.1645 59.1519 67.4745 59.2394 66.9641 59.662L63.7421 62.3297L61.7122 59.7315L70.1383 52.6602H74.1171V78.8477C74.1171 79.7812 74.8767 80.5409 75.8102 80.5409H79.4539V83.5234Z" fill="white"/>
<path d="M114.329 79.4567C114.272 78.9305 113.952 78.4813 113.474 78.255C109.927 76.5772 106.29 75.0985 102.647 73.8471C103.748 69.8144 104.314 65.6585 104.314 61.4756V49.6134C104.314 48.5781 103.501 47.7308 102.465 47.6846C96.5066 47.4161 91.7724 43.1775 91.4527 37.8259C91.3918 36.802 90.5445 36 89.5238 36H53.8131C52.7924 36 51.945 36.802 51.8842 37.8256C51.5647 43.1777 46.8303 47.4161 40.8723 47.6846C39.8352 47.7309 39.023 48.5783 39.023 49.6134V61.4756C39.023 65.6587 39.5885 69.8144 40.6894 73.8473C37.0469 75.0983 33.4106 76.5771 29.8634 78.255C29.3849 78.4817 29.0655 78.9312 29.0088 79.4577C28.9523 79.9841 29.169 80.4914 29.589 80.8148C30.8663 81.7973 32.1532 82.8379 33.4387 83.9249C33.5451 84.0149 33.6516 84.1048 33.7581 84.1955C33.9151 84.3291 34.0721 84.4641 34.2291 84.5993C34.3304 84.6865 34.4316 84.7733 34.533 84.8611C34.705 85.0103 34.8768 85.1608 35.0487 85.3115C35.1337 85.386 35.2187 85.46 35.3037 85.5349C35.5605 85.7614 35.817 85.9894 36.0732 86.2194C35.8312 87.0074 35.592 87.8006 35.3562 88.5945C35.2873 88.8264 35.2205 89.0589 35.1523 89.291C35.0075 89.7836 34.8615 90.2766 34.7201 90.7675C34.718 90.7746 34.7175 90.7821 34.7155 90.7893C34.2084 92.5507 33.7183 94.3158 33.2512 96.0726C33.1012 96.6369 33.2937 97.2438 33.7421 97.6181C34.0181 97.8486 34.3635 97.9683 34.7116 97.9683C34.9293 97.9682 35.148 97.9215 35.3515 97.826C40.2594 95.5217 45.2997 93.6701 50.3453 92.3152C54.8883 97.8092 60.62 102.444 67.1921 105.898L70.7698 107.778C71.0512 107.926 71.3595 108 71.6682 108C71.9769 108 72.2855 107.926 72.5669 107.778L76.1444 105.898C82.7166 102.444 88.448 97.8092 92.9913 92.3152C98.0367 93.6701 103.077 95.5215 107.985 97.8261C108.189 97.9216 108.407 97.9683 108.625 97.9683C108.973 97.9683 109.319 97.8488 109.595 97.6183C110.043 97.2439 110.236 96.6371 110.085 96.0729C109.602 94.2545 109.094 92.428 108.568 90.6059C108.566 90.5999 108.566 90.5939 108.564 90.5881C108.404 90.0351 108.243 89.4846 108.081 88.9362C108.039 88.7947 107.998 88.6533 107.956 88.512C107.728 87.7448 107.498 86.9844 107.268 86.2361C107.267 86.2301 107.265 86.2241 107.263 86.2181C107.405 86.0904 107.549 85.9629 107.692 85.8354C107.798 85.7414 107.903 85.647 108.009 85.5534C108.141 85.4368 108.274 85.3208 108.407 85.2047C108.532 85.0958 108.656 84.9867 108.781 84.878C108.898 84.7766 109.016 84.6761 109.134 84.5751C109.278 84.4508 109.423 84.3265 109.568 84.2025C109.676 84.1113 109.784 84.0209 109.891 83.9303C111.145 82.8722 112.434 81.8303 113.75 80.8141C114.17 80.4903 114.386 79.9831 114.329 79.4567ZM34.2088 81.2913C33.6127 80.7971 33.0167 80.3119 32.4219 79.8392C35.3822 78.4953 38.3965 77.2939 41.4151 76.2539C41.6423 76.9417 41.8863 77.6253 42.1452 78.3042C40.9169 78.7268 39.6949 79.1745 38.5045 79.6381C38.4827 79.6461 36.5047 80.3874 34.2088 81.2913ZM38.2356 84.7851C37.9555 84.531 37.6748 84.2795 37.3938 84.0291C37.3119 83.9561 37.2299 83.8839 37.1479 83.8113C36.9391 83.6263 36.7301 83.4424 36.5209 83.2596C36.4754 83.2197 36.4301 83.1792 36.3846 83.1396C38.0821 82.4805 39.3725 81.997 39.401 81.9862C40.6176 81.5125 41.8587 81.0596 43.1031 80.6334C43.9249 82.4932 44.8675 84.3115 45.9275 86.0777C44.2978 86.5651 42.6677 87.1003 41.0633 87.6753C41.0433 87.6825 41.0235 87.6901 41.0041 87.6983C40.9843 87.7065 39.6051 88.2808 37.8635 88.9864C37.8996 88.8652 37.935 88.7435 37.9713 88.6225C38.0158 88.4742 38.0605 88.326 38.1051 88.1778C38.2895 87.5668 38.4752 86.9566 38.6633 86.3489C38.8363 85.7907 38.668 85.1763 38.2356 84.7851ZM36.2367 94.6597C36.4749 93.7916 36.7199 92.9231 36.9677 92.0547C39.3352 91.113 41.653 90.1506 41.9408 90.0309C43.7189 89.3944 45.5285 88.8117 47.3334 88.2872C47.7623 88.9239 48.2058 89.5516 48.664 90.1696C44.488 91.3458 40.3229 92.8506 36.2367 94.6597ZM94.4118 86.1357C94.4102 86.1382 94.4085 86.1409 94.4068 86.1434C89.7141 93.3966 83.0043 99.4529 74.9752 103.673L71.6683 105.411L68.3617 103.673C60.3334 99.4532 53.6241 93.3978 48.9314 86.1457C48.9289 86.1417 48.9262 86.1377 48.9237 86.1337C48.8517 86.0224 48.7787 85.9117 48.7077 85.7999C44.0164 78.4107 41.5366 69.9994 41.5366 61.4755V50.1607C48.3282 49.6154 53.7001 44.7299 54.3493 38.5133H88.9879C89.6371 44.7296 95.0085 49.6154 101.801 50.1607V61.4755C101.801 69.9994 99.3208 78.4107 94.6294 85.7999C94.5577 85.9125 94.4843 86.0237 94.4118 86.1357ZM104.674 86.3494C104.677 86.3592 104.68 86.3692 104.683 86.3789C104.862 86.9588 105.039 87.5413 105.216 88.1245C105.269 88.301 105.322 88.4772 105.375 88.6547C105.398 88.7313 105.421 88.8084 105.444 88.885C103.709 88.232 102.325 87.6945 102.305 87.6868C102.295 87.6828 102.284 87.679 102.274 87.6751C100.67 87.1003 99.0399 86.5651 97.4095 86.0774C98.4695 84.3111 99.4121 82.4929 100.234 80.6331C101.476 81.0585 102.716 81.5112 103.934 81.985C103.947 81.9902 103.961 81.9953 103.974 82C103.991 82.006 105.271 82.454 107.014 83.0829C106.961 83.1287 106.909 83.1751 106.857 83.2209C106.638 83.4119 106.42 83.6033 106.204 83.7951C106.118 83.8713 106.031 83.9474 105.946 84.0238C105.661 84.2776 105.378 84.5318 105.099 84.7867C104.991 84.8848 104.9 84.9967 104.826 85.118C104.679 85.3607 104.603 85.6414 104.607 85.925C104.609 86.0674 104.631 86.2101 104.674 86.3494ZM94.6729 90.1696C95.1312 89.5516 95.5746 88.9239 96.0036 88.2872C97.814 88.8134 99.6286 89.3977 101.411 90.0359C101.625 90.1191 103.954 91.0213 106.324 91.8957C106.587 92.8169 106.847 93.7384 107.1 94.6597C103.014 92.8504 98.8487 91.3456 94.6729 90.1696ZM109.225 81.2116C106.948 80.3804 105.044 79.7117 104.826 79.6352C103.629 79.1699 102.412 78.724 101.192 78.3042C101.451 77.6251 101.695 76.9416 101.922 76.2535C104.941 77.2939 107.957 78.4957 110.917 79.8401C110.347 80.2933 109.783 80.7508 109.225 81.2116Z" fill="white"/>
</svg>
