<svg width="64" height="58" viewBox="0 0 64 58" fill="none" xmlns="http://www.w3.org/2000/svg">
<path d="M60.7516 13.27C60.1791 13.27 59.7149 13.7341 59.7149 14.3068C59.7149 14.8793 60.179 15.3435 60.7516 15.3435C61.3995 15.3435 61.9266 15.8706 61.9266 16.5185V54.1167C61.9266 54.7646 61.3995 55.2917 60.7516 55.2917H7.67175C4.58488 55.2917 2.0735 52.7804 2.0735 49.6935C2.0735 46.6066 4.58475 44.095 7.67175 44.095C8.24425 44.095 8.7085 43.6309 8.7085 43.0583V15.3434H14.3068C14.8793 15.3434 15.3435 14.8792 15.3435 14.3066C15.3435 13.7341 14.8794 13.2699 14.3068 13.2699H8.70837V1.03675C8.70837 0.46425 8.24425 0 7.67163 0C3.4415 0 0 3.4415 0 7.67175V49.6934C0 53.9236 3.4415 57.3651 7.67175 57.3651H60.7516C62.5428 57.3651 64 55.9079 64 54.1167V16.5184C64 14.7271 62.5428 13.27 60.7516 13.27ZM2.07337 7.67175C2.07337 4.93913 4.04175 2.65737 6.63487 2.16975V42.0915C4.846 42.3342 3.25087 43.196 2.07337 44.4531V7.67175Z" fill="#9497AA"/>
<path d="M47.482 13.27H29.7883C29.2158 13.27 28.7515 13.7341 28.7515 14.3068C28.7515 14.8793 29.2157 15.3435 29.7883 15.3435H47.482C48.0545 15.3435 48.5188 14.8794 48.5188 14.3068C48.5188 13.7341 48.0546 13.27 47.482 13.27Z" fill="#9497AA"/>
<path d="M48.3052 44.6404L19.5536 7.04212C19.2836 6.68899 18.8182 6.54724 18.3977 6.68987C17.9765 6.83224 17.6934 7.22724 17.6934 7.67174V45.27C17.6934 45.8425 18.1575 46.3067 18.7301 46.3067H47.4817C47.8762 46.3067 48.2364 46.083 48.4112 45.7294C48.586 45.3757 48.5447 44.9536 48.3052 44.6404ZM19.7667 44.2332V10.734L45.3837 44.2332H19.7667Z" fill="#FF7A00"/>
<path d="M37.1163 39.1109L25.0826 23.3746C24.8126 23.0216 24.3475 22.8798 23.9267 23.0223C23.5057 23.1648 23.2225 23.5599 23.2225 24.0043V39.7407C23.2225 40.3132 23.6866 40.7774 24.2592 40.7774H36.293C36.6875 40.7774 37.0476 40.5537 37.2225 40.2001C37.3973 39.8464 37.3561 39.4243 37.1163 39.1109ZM25.2958 38.7041V27.0667L34.195 38.7041H25.2958Z" fill="#FF7A00"/>
<path d="M57.2908 8.39242L55.0792 2.86329C54.9219 2.46979 54.5407 2.21167 54.1167 2.21167C53.6927 2.21167 53.3115 2.46979 53.1542 2.86329L50.9425 8.39242C50.8934 8.51504 50.8683 8.64567 50.8683 8.77754V48.5875C50.8683 49.769 51.8294 50.73 53.0108 50.73H55.2224C56.4039 50.73 57.3649 49.7689 57.3649 48.5875V8.77754C57.365 8.64567 57.3399 8.51504 57.2908 8.39242ZM54.1167 6.03979L55.2394 8.84667H52.9938L54.1167 6.03979ZM55.2917 48.5875C55.2917 48.6257 55.2607 48.6567 55.2225 48.6567H53.0109C52.9728 48.6567 52.9418 48.6257 52.9418 48.5875V46.3068H55.2917V48.5875ZM55.2917 44.2333H52.9418V10.9202H55.2917V44.2333Z" fill="#FF7A00"/>
</svg>
