<svg width="64" height="64" viewBox="0 0 64 64" fill="none" xmlns="http://www.w3.org/2000/svg">
<path d="M63.4106 26.4419L58.0781 24.3091C57.5347 22.4707 56.7954 20.6909 55.875 19.0059L58.1406 13.7192C58.292 13.3672 58.2129 12.958 57.9419 12.687L51.313 6.05811C51.042 5.78711 50.6333 5.70801 50.2808 5.85938L44.9941 8.125C43.3091 7.20459 41.5293 6.46533 39.6909 5.92188L37.5581 0.589356C37.4155 0.233399 37.0708 0 36.6875 0H27.3125C26.9292 0 26.5845 0.233399 26.4419 0.589356L24.3091 5.92188C22.4712 6.46484 20.6909 7.20459 19.0059 8.125L13.7192 5.85938C13.3667 5.7085 12.958 5.78711 12.687 6.05811L6.05811 12.687C5.78711 12.958 5.70801 13.3672 5.85938 13.7197L8.125 19.0059C7.20459 20.6909 6.46533 22.4712 5.92188 24.3091L0.589356 26.4419C0.233399 26.5845 0 26.9292 0 27.3125V36.6875C0 37.0708 0.233399 37.4155 0.589356 37.5581L5.92188 39.6909C6.46484 41.5288 7.2041 43.3091 8.125 44.9941L5.85938 50.2808C5.70801 50.6328 5.78711 51.042 6.05811 51.313L12.687 57.9419C12.958 58.2129 13.3672 58.292 13.7192 58.1406L19.0059 55.875C20.6909 56.7954 22.4707 57.5352 24.3091 58.0781L26.4419 63.4106C26.5845 63.7666 26.9292 64 27.3125 64H36.6875C37.0708 64 37.4155 63.7666 37.5576 63.4106L39.6909 58.0781C41.5288 57.5352 43.3091 56.7954 44.9941 55.875L50.2803 58.1406C50.6328 58.292 51.0415 58.2129 51.313 57.9419L57.9419 51.313C58.2129 51.042 58.2915 50.6328 58.1406 50.2808L55.875 44.9941C56.7954 43.3091 57.5347 41.5293 58.0781 39.6909L63.4106 37.5581C63.7666 37.4155 64 37.0708 64 36.6875V27.3125C64 26.9292 63.7666 26.5845 63.4106 26.4419ZM62.125 36.0527L56.9551 38.1206C56.6831 38.2295 56.4775 38.459 56.3994 38.7412C55.8467 40.7402 55.0449 42.6699 54.0171 44.4766C53.8721 44.7314 53.8545 45.0396 53.9702 45.3096L56.1675 50.4355L50.4355 56.1675L45.3096 53.9702C45.0396 53.855 44.7314 53.8721 44.4766 54.0171C42.6694 55.0449 40.7402 55.8467 38.7412 56.3994C38.459 56.4775 38.2295 56.6831 38.1206 56.9551L36.0527 62.125H27.9473L25.8789 56.9551C25.7705 56.6831 25.541 56.4775 25.2588 56.3994C23.2598 55.8467 21.3301 55.0449 19.5234 54.0171C19.2686 53.8721 18.9604 53.855 18.6904 53.9702L13.564 56.1675L7.83252 50.4355L10.0293 45.3096C10.145 45.0396 10.1279 44.7314 9.98242 44.4766C8.95459 42.6694 8.15332 40.7402 7.6001 38.7412C7.52197 38.459 7.31641 38.2295 7.04492 38.1206L1.875 36.0527V27.9473L7.04492 25.8789C7.31689 25.7705 7.52246 25.541 7.60059 25.2588C8.15332 23.2598 8.95508 21.3306 9.98291 19.5239C10.1279 19.2686 10.1455 18.9604 10.0298 18.6909L7.83252 13.564L13.564 7.83252L18.6909 10.0298C18.9604 10.1455 19.269 10.1279 19.5239 9.98291C21.3306 8.95508 23.2598 8.15332 25.2588 7.60059C25.541 7.52246 25.7705 7.31689 25.8789 7.04492L27.9473 1.875H36.0527L38.1211 7.04492C38.2295 7.31689 38.459 7.52246 38.7412 7.60059C40.7402 8.15332 42.6694 8.95508 44.4761 9.98291C44.7314 10.1279 45.0396 10.1455 45.3091 10.0298L50.436 7.83252L56.1675 13.564L53.9702 18.6909C53.8545 18.9604 53.8721 19.2686 54.0171 19.5239C55.0449 21.3301 55.8467 23.2598 56.3994 25.2588C56.4775 25.541 56.6831 25.7705 56.9551 25.8789L62.125 27.9473V36.0527Z" fill="#9497AA"/>
<path d="M32 11.375C20.6274 11.375 11.375 20.6274 11.375 32C11.375 43.3726 20.6274 52.625 32 52.625C43.3726 52.625 52.625 43.3726 52.625 32C52.625 20.6274 43.3726 11.375 32 11.375ZM32 50.75C21.6611 50.75 13.25 42.3389 13.25 32C13.25 21.6611 21.6611 13.25 32 13.25C42.3389 13.25 50.75 21.6611 50.75 32C50.75 42.3389 42.3389 50.75 32 50.75Z" fill="#FF7A00"/>
<path d="M32 15.125C28.168 15.125 24.5557 16.3774 21.5537 18.7471C21.147 19.0674 21.0776 19.6572 21.3984 20.0635C21.7192 20.4702 22.3086 20.5396 22.7153 20.2188C25.3828 18.1128 28.5938 17 32 17C40.271 17 47 23.729 47 32C47 40.271 40.271 47 32 47C23.729 47 17 40.271 17 32C17 28.5938 18.1128 25.3828 20.2188 22.7153C20.5396 22.3086 20.4702 21.7192 20.0635 21.3984C19.6572 21.0776 19.0674 21.147 18.7466 21.5537C16.3774 24.5557 15.125 28.168 15.125 32C15.125 41.3047 22.6953 48.875 32 48.875C41.3047 48.875 48.875 41.3047 48.875 32C48.875 22.6953 41.3047 15.125 32 15.125Z" fill="#FF7A00"/>
<path d="M20.9766 38.9058L31.5312 44.9995C31.6763 45.083 31.8384 45.125 32 45.125C32.1621 45.125 32.3237 45.083 32.4688 44.9995L43.0234 38.9058C43.3135 38.7383 43.4922 38.4287 43.4922 38.0938V25.9062C43.4922 25.5713 43.3135 25.2617 43.0234 25.0942L32.4688 19.0005C32.1787 18.833 31.8213 18.833 31.5312 19.0005L20.9766 25.0942C20.6865 25.2617 20.5078 25.5713 20.5078 25.9062V38.0938C20.5078 38.4287 20.6865 38.7383 20.9766 38.9058ZM22.3828 27.5298L31.0625 32.541V42.564L22.3828 37.5527V27.5298ZM32.9375 42.564V32.541L41.6172 27.5298V37.5527L32.9375 42.564ZM32 20.895L40.6797 25.9062L32 30.9175L23.3203 25.9062L32 20.895Z" fill="#9497AA"/>
</svg>
