<svg width="64" height="52" viewBox="0 0 64 52" fill="none" xmlns="http://www.w3.org/2000/svg">
<path d="M52.0404 14.8079C51.5226 14.8079 51.1029 15.2277 51.1029 15.7454V46.8079C51.1029 48.5011 49.7254 49.8784 48.0324 49.8784H4.9455C3.2525 49.8784 1.875 48.5011 1.875 46.8079V12.7393C1.875 11.0462 3.2525 9.66882 4.9455 9.66882H37.01C37.5277 9.66882 37.9475 9.24907 37.9475 8.73132C37.9475 8.21345 37.5277 7.79382 37.01 7.79382H4.9455C2.21862 7.79382 0 10.0123 0 12.7393V46.8079C0 49.535 2.21862 51.7534 4.9455 51.7534H48.0322C50.7593 51.7534 52.9777 49.5348 52.9777 46.8079V15.7454C52.9779 15.2277 52.5581 14.8079 52.0404 14.8079Z" fill="#9497AA"/>
<path d="M52.0404 4.78772C49.8659 4.78772 48.0969 6.55684 48.0969 8.73134C48.0969 10.9058 49.8659 12.6748 52.0404 12.6748C54.2149 12.6748 55.9839 10.9058 55.9839 8.73134C55.9839 6.55684 54.2149 4.78772 52.0404 4.78772ZM52.0404 10.7998C50.8998 10.7998 49.9719 9.87197 49.9719 8.73134C49.9719 7.59072 50.8998 6.66272 52.0404 6.66272C53.181 6.66272 54.1089 7.59072 54.1089 8.73134C54.1089 9.87184 53.181 10.7998 52.0404 10.7998Z" fill="#FF7A00"/>
<path d="M57.663 3.1087C57.2968 2.74258 56.7032 2.74258 56.3372 3.1087C55.9711 3.47483 55.9711 4.06845 56.3372 4.43445C57.485 5.5822 58.117 7.1082 58.117 8.73132C58.117 10.3544 57.4848 11.8803 56.3372 13.0282C55.9711 13.3943 55.9711 13.9878 56.3372 14.3539C56.5202 14.5369 56.7602 14.6286 57.0001 14.6286C57.24 14.6286 57.48 14.5371 57.663 14.3539C59.1648 12.8521 59.992 10.8552 59.992 8.73132C59.992 6.60732 59.1648 4.61045 57.663 3.1087Z" fill="#9497AA"/>
<path d="M46.4176 14.3539C46.6006 14.5369 46.8406 14.6286 47.0805 14.6286C47.3203 14.6286 47.5603 14.5371 47.7433 14.3541C48.1095 13.9879 48.1095 13.3943 47.7433 13.0282C45.3741 10.6588 45.3741 6.80382 47.7433 4.43445C48.1095 4.06832 48.1095 3.4747 47.7433 3.1087C47.3772 2.74258 46.7836 2.74258 46.4176 3.1087C43.3173 6.20895 43.3173 11.2536 46.4176 14.3539Z" fill="#9497AA"/>
<path d="M60.4971 0.274594C60.1309 -0.0915312 59.5373 -0.0915312 59.1713 0.274594C58.8052 0.640719 58.8052 1.23434 59.1713 1.60034C61.076 3.50509 62.125 6.03759 62.125 8.73134C62.125 11.4251 61.076 13.9576 59.1712 15.8622C58.8051 16.2283 58.8051 16.8218 59.1712 17.188C59.3542 17.371 59.5942 17.4626 59.8341 17.4626C60.074 17.4626 60.314 17.3711 60.497 17.188C62.756 14.9292 64 11.9258 64 8.73134C64 5.53672 62.7559 2.53347 60.4971 0.274594Z" fill="#FF7A00"/>
<path d="M44.2466 17.4627C44.4864 17.4627 44.7264 17.3712 44.9094 17.1881C45.2756 16.822 45.2756 16.2283 44.9094 15.8623C43.0047 13.9576 41.9557 11.4251 41.9557 8.73147C41.9557 6.03784 43.0047 3.50522 44.9094 1.60047C45.2756 1.23434 45.2756 0.640716 44.9094 0.274716C44.5433 -0.0914092 43.9497 -0.0914092 43.5837 0.274716C41.3248 2.53359 40.0808 5.53697 40.0808 8.73147C40.0808 11.926 41.3248 14.9293 43.5837 17.1882C43.7667 17.3711 44.0066 17.4627 44.2466 17.4627Z" fill="#FF7A00"/>
<path d="M22.4064 20.5879C21.4856 20.0764 20.3939 20.0899 19.4861 20.624C18.5784 21.1581 18.0364 22.1059 18.0364 23.1593V36.3879C18.0364 37.4411 18.5784 38.3889 19.4861 38.923C19.9509 39.1965 20.4636 39.3335 20.9771 39.3335C21.4668 39.3335 21.9569 39.2089 22.4064 38.9593L34.3121 32.3449C35.2596 31.8186 35.8251 30.8574 35.8251 29.7735C35.8251 28.6896 35.2596 27.7285 34.3121 27.2021L22.4064 20.5879ZM33.4015 30.7059L21.4958 37.3203C21.0144 37.5875 20.5949 37.4001 20.4369 37.3071C20.2789 37.2141 19.9113 36.9384 19.9113 36.3879V23.1593C19.9113 22.6088 20.2789 22.333 20.4369 22.24C20.5346 22.1826 20.732 22.089 20.9823 22.089C21.1369 22.089 21.3119 22.1249 21.4956 22.227L33.4014 28.8413C33.8965 29.1164 33.9499 29.5849 33.9499 29.7735C33.9499 29.9621 33.8966 30.4309 33.4015 30.7059Z" fill="#FF7A00"/>
</svg>
