<svg width="32" height="30" viewBox="0 0 32 30" fill="none" xmlns="http://www.w3.org/2000/svg">
<path fill-rule="evenodd" clip-rule="evenodd" d="M19.0879 4.33333C19.6628 4.55556 20.2377 4.77778 20.8127 5L23.5723 3C24.1473 2.66667 24.8372 2.77778 25.1822 3.11111L27.7119 5.55556C28.1718 6 28.1718 6.66667 27.8269 7.11111L25.8721 9.88889C26.1021 10.4444 26.332 11 26.562 11.5556L30.0116 12.1111C30.5866 12.1111 31.0465 12.6667 31.0465 13.2222V16.6667C31.0465 17.2222 30.5866 17.7778 30.0116 17.8889L26.562 18.4444C26.332 19 26.1021 19.5556 25.8721 20.1111L27.9419 22.7778C28.2868 23.3333 28.1718 24 27.8269 24.3333L25.2972 26.7778C24.8372 27.2222 24.1473 27.2222 23.6873 26.8889L20.8127 25C20.2377 25.2222 19.6628 25.4444 19.0879 25.6667L18.5129 29C18.3979 29.5556 17.823 30 17.2481 30H13.6835C13.1085 30 12.5336 29.5556 12.5336 29L11.9587 25.6667C11.3837 25.4444 10.8088 25.2222 10.2338 25L7.35917 26.8889C6.89922 27.2222 6.2093 27.2222 5.74935 26.7778L3.21964 24.3333C2.87468 24 2.75969 23.3333 3.10465 22.8889L5.17442 20.1111C4.82946 19.5556 4.59948 19 4.4845 18.4444L1.03488 17.8889C0.459948 17.7778 0 17.2222 0 16.6667V13.2222C0 12.6667 0.459948 12.1111 1.03488 12.1111L4.4845 11.5556C4.59948 10.8889 4.82946 10.4444 5.17442 9.88889L3.10465 7.11111C2.75969 6.66667 2.87468 6 3.33463 5.55556L5.86434 3.11111C6.2093 2.77778 6.89922 2.66667 7.35917 3L10.2338 5C10.8088 4.77778 11.3837 4.55556 11.9587 4.33333L12.5336 1C12.5336 0.444444 13.1085 0 13.6835 0H17.2481C17.823 0 18.3979 0.444444 18.5129 1L19.0879 4.33333ZM15.5233 8.66667C11.9587 8.66667 8.96899 11.5556 8.96899 15C8.96899 18.4444 11.9587 21.3333 15.5233 21.3333C19.0879 21.3333 22.0775 18.4444 22.0775 15C22.0775 11.5556 19.0879 8.66667 15.5233 8.66667Z" fill="#FF7A00"/>
</svg>
