<svg width="35" height="30" viewBox="0 0 35 30" fill="none" xmlns="http://www.w3.org/2000/svg">
<path d="M23.5783 0.125913C21.5629 -0.0419709 19.5823 -0.0419709 17.5669 0.125913C14.1268 0.46168 11.8682 1.40183 10.7215 3.01351C9.67908 4.49089 9.85282 6.23688 10.235 7.44564C10.235 7.47922 10.2698 7.47922 10.3045 7.51279C10.3393 7.51279 10.374 7.51279 10.374 7.51279C12.0419 6.47191 13.9183 5.7668 15.8642 5.46461C15.8642 5.46461 15.899 5.46461 15.899 5.49819V5.53177L11.069 9.32594C10.0266 10.2325 9.15786 11.3405 8.56714 12.5829C8.35865 13.0194 8.3934 13.4895 8.67138 13.8924C8.87987 14.1946 9.22735 14.4296 9.60958 14.4968C10.235 14.5975 10.8605 14.2617 11.1385 13.7245C11.5555 12.8515 12.1809 12.0457 12.9454 11.4077C13.6751 11.9113 15.1345 12.7508 16.7329 12.9186C17.0109 12.9522 17.3236 12.9522 17.6016 12.9186C21.1459 12.5829 23.335 8.52009 24.0995 0.864601C24.169 0.46168 23.9258 0.159489 23.5783 0.125913Z" fill="#FF7A00"/>
<path d="M18.4356 23.7975C17.4279 23.8647 16.4202 23.7639 15.4472 23.4617C15.5515 22.5887 15.5862 20.9435 14.8913 19.5333C14.7523 19.2647 14.6133 19.0296 14.4396 18.7946C12.3894 16.0077 7.62894 16.2092 0.36661 19.399C0.0538774 19.5333 -0.0851146 19.9026 0.0538774 20.2048C0.88783 21.9508 1.89552 23.6296 3.04221 25.2077C4.9186 27.726 6.79499 29.1698 8.63664 29.472C8.77563 29.5056 8.91462 29.5056 9.01887 29.5056C10.8605 29.6399 12.3199 28.599 13.2234 27.726C13.2234 27.6924 13.2581 27.6924 13.2234 27.6588C13.2234 27.6253 13.1886 27.6253 13.1886 27.5917C11.486 26.6515 9.92231 25.4428 8.67138 23.9654V23.9318H8.70613L14.5438 26.0471C15.899 26.4836 17.3236 26.6515 18.7483 26.4836C19.2348 26.4501 19.6518 26.1479 19.8602 25.745C20.0687 25.3085 20.0687 24.8048 19.7908 24.4019C19.5128 23.9654 18.9915 23.7304 18.4356 23.7975Z" fill="#FF7A00"/>
<path d="M33.5857 17.6194C32.7865 16.0077 31.1186 15.3026 29.8677 15.0004C29.8329 15.0004 29.7982 15.0004 29.7982 15.0004C29.7634 15.0004 29.7634 15.034 29.7634 15.0676C29.8677 16.9814 29.5549 18.8617 28.86 20.6413V20.6749H28.8252C28.8252 20.6749 28.7905 20.6749 28.7905 20.6413L27.748 14.6982C27.4701 13.3551 26.8793 12.0457 26.0454 10.9376C25.9411 10.8033 25.8022 10.669 25.6284 10.5683C24.9682 10.1989 24.1343 10.434 23.752 11.0719L23.6825 11.1727C23.4393 11.6092 23.474 12.1464 23.7868 12.5829C24.3775 13.3887 24.7945 14.2953 24.9682 15.269C24.1343 15.6384 22.6401 16.4106 21.7366 17.6865C21.5629 17.9216 21.4239 18.1566 21.2849 18.4252C19.8255 21.5479 22.3621 25.4092 28.86 29.9085C29.138 30.0764 29.5202 30.0092 29.7287 29.7406C30.8754 28.1625 31.8483 26.4836 32.717 24.7377C34.1764 21.7829 34.4544 19.399 33.5857 17.6194Z" fill="#FF7A00"/>
</svg>
