<svg width="64" height="52" viewBox="0 0 64 52" fill="none" xmlns="http://www.w3.org/2000/svg">
<path d="M62.4375 4.65263H50.7265V1.56262C50.7265 0.701 50.0256 0.000124931 49.164 0.000124931H28.625C28.1073 0.000124931 27.6875 0.419875 27.6875 0.937625C27.6875 1.45537 28.1073 1.87512 28.625 1.87512H48.8516V9.0315H15.1484V1.875H24.25C24.7677 1.875 25.1875 1.45525 25.1875 0.9375C25.1875 0.41975 24.7677 0 24.25 0H14.8359C13.9742 0 13.2734 0.700875 13.2734 1.5625V4.6525H1.5625C0.700875 4.6525 0 5.35337 0 6.215V9.34387C0 10.2055 0.700875 10.9064 1.5625 10.9064H2.24163V50.3956C2.24163 51.2573 2.9425 51.9581 3.80413 51.9581H60.1959C61.0575 51.9581 61.7584 51.2573 61.7584 50.3956V10.9064H62.4375C63.2991 10.9064 64 10.2055 64 9.34387V6.21513C64 5.3535 63.2991 4.65263 62.4375 4.65263ZM1.875 6.52763H13.2734V9.0315H1.875V6.52763ZM18.747 50.0833H9.1275V40.4638H11.4831V42.6041C11.4831 43.2589 12.0159 43.7916 12.6706 43.7916H15.2039C15.8586 43.7916 16.3914 43.2589 16.3914 42.6041V40.4636H18.747V50.0833ZM17.8666 32.2971H20.3999C21.0546 32.2971 21.5874 31.7644 21.5874 31.1096V28.9692H23.943V38.5888H23.9151H14.3235V28.9692H16.6791V31.1096C16.6791 31.7644 17.2119 32.2971 17.8666 32.2971ZM18.5541 30.4221V28.9692H19.7124V30.4221H18.5541ZM14.5164 40.4636V41.9166H13.3581V40.4636H13.386H14.5164ZM30.2415 50.0833H20.622V40.4638H22.9776V42.6041C22.9776 43.2589 23.5104 43.7916 24.1651 43.7916H26.6984C27.3531 43.7916 27.8859 43.2589 27.8859 42.6041V40.4636H30.2415V50.0833ZM29.3611 32.2971H31.8944C32.5491 32.2971 33.0819 31.7644 33.0819 31.1096V28.9692H35.4375V38.5888H35.4095H25.818V28.9692H28.1736V31.1096C28.1736 31.7644 28.7064 32.2971 29.3611 32.2971ZM30.0486 30.4221V28.9692H31.2069V30.4221H30.0486ZM26.0109 40.4636V41.9166H24.8526V40.4636H24.8805H26.0109ZM54.8725 50.0833H47.4375V46.9583H54.8725V50.0833ZM54.8725 45.0833H47.4375V41.9583H54.8725V45.0833ZM54.8725 40.0833H47.4375V36.9583H54.8725V40.0833ZM59.8834 50.0833H56.7475V30.4791C56.7475 29.9614 56.3279 29.5416 55.81 29.5416C55.2921 29.5416 54.8725 29.9614 54.8725 30.4791V35.0833H47.125C46.2634 35.0833 45.5625 35.7841 45.5625 36.6458V40.3958C45.5625 40.618 45.6099 40.8291 45.6939 41.0208C45.6099 41.2124 45.5625 41.4235 45.5625 41.6458V45.3958C45.5625 45.618 45.6099 45.8291 45.6939 46.0208C45.6099 46.2124 45.5625 46.4235 45.5625 46.6458V50.0833H43.611V47.2291C43.611 46.7114 43.1914 46.2916 42.6735 46.2916C42.1556 46.2916 41.736 46.7114 41.736 47.2291V50.0833H32.1165V40.4638H34.4721V42.6041C34.4721 43.2589 35.0049 43.7916 35.6596 43.7916H38.193C38.8478 43.7916 39.3805 43.2589 39.3805 42.6041V40.4636H41.7361V42.8541C41.7361 43.3719 42.1558 43.7916 42.6736 43.7916C43.1915 43.7916 43.6111 43.3719 43.6111 42.8541V39.9011C43.6111 39.1774 43.0224 38.5886 42.2986 38.5886H37.3125V28.4066C37.3125 27.6829 36.7238 27.0941 36 27.0941H13.761C13.0372 27.0941 12.4485 27.6829 12.4485 28.4066V38.5886H12.4206H9.1275V21.443H54.8725V26.1041C54.8725 26.6219 55.2921 27.0416 55.81 27.0416C56.3279 27.0416 56.7475 26.6219 56.7475 26.1041V17.0254C56.7475 16.1637 56.0466 15.4629 55.185 15.4629H8.815C7.95337 15.4629 7.2525 16.1637 7.2525 17.0254V50.0831H4.11662V10.9064H59.8834V50.0833ZM36.347 41.9166V40.4636H36.375H37.5054V41.9166H36.347ZM9.1275 19.568V17.3379H54.8725V19.568H9.1275ZM62.125 9.03137H50.7265V6.5275H62.125V9.03137Z" fill="#9497AA"/>
<path d="M15.3266 44.9165H12.5477C12.03 44.9165 11.6102 45.3363 11.6102 45.854C11.6102 46.3718 12.03 46.7915 12.5477 46.7915H15.3266C15.8444 46.7915 16.2641 46.3718 16.2641 45.854C16.2641 45.3363 15.8444 44.9165 15.3266 44.9165Z" fill="#FF7A00"/>
<path d="M26.8211 44.9165H24.0422C23.5245 44.9165 23.1047 45.3363 23.1047 45.854C23.1047 46.3718 23.5245 46.7915 24.0422 46.7915H26.8211C27.3389 46.7915 27.7586 46.3718 27.7586 45.854C27.7586 45.3363 27.3389 44.9165 26.8211 44.9165Z" fill="#FF7A00"/>
<path d="M38.3156 44.9165H35.5367C35.0189 44.9165 34.5992 45.3363 34.5992 45.854C34.5992 46.3718 35.0189 46.7915 35.5367 46.7915H38.3156C38.8335 46.7915 39.2531 46.3718 39.2531 45.854C39.2531 45.3363 38.8335 44.9165 38.3156 44.9165Z" fill="#FF7A00"/>
<path d="M17.7439 35.2971H20.5228C21.0405 35.2971 21.4603 34.8774 21.4603 34.3596C21.4603 33.8419 21.0405 33.4221 20.5228 33.4221H17.7439C17.2261 33.4221 16.8064 33.8419 16.8064 34.3596C16.8064 34.8774 17.2261 35.2971 17.7439 35.2971Z" fill="#FF7A00"/>
<path d="M29.2384 35.2971H32.0173C32.5352 35.2971 32.9548 34.8774 32.9548 34.3596C32.9548 33.8419 32.5352 33.4221 32.0173 33.4221H29.2384C28.7207 33.4221 28.3009 33.8419 28.3009 34.3596C28.3009 34.8774 28.7207 35.2971 29.2384 35.2971Z" fill="#FF7A00"/>
<path d="M22.989 5.45337C22.989 5.97112 23.4088 6.39087 23.9265 6.39087H40.0735C40.5914 6.39087 41.011 5.97112 41.011 5.45337C41.011 4.93562 40.5914 4.51587 40.0735 4.51587H23.9265C23.4088 4.51587 22.989 4.93562 22.989 5.45337Z" fill="#FF7A00"/>
</svg>
