<svg width="33" height="30" viewBox="0 0 33 30" fill="none" xmlns="http://www.w3.org/2000/svg">
<path d="M21.8584 1.48673C19.8761 -0.495575 16.6195 -0.495575 14.6372 1.48673L5.78761 10.3363C5.36283 10.7611 5.22124 11.469 5.36283 12.0354C5.50442 12.6018 5.29204 13.2389 4.93805 13.6637L4.72566 13.8761C4.23009 14.3009 3.66372 14.5133 3.09734 14.3009C2.53097 14.1593 1.89381 14.3009 1.39823 14.7257L0.477876 15.646C-0.159292 16.2832 -0.159292 17.4159 0.477876 18.0531L4.72566 22.3009C5.36283 22.9381 6.49558 22.9381 7.13274 22.3009L8.0531 21.3805C8.47788 20.885 8.69026 20.2478 8.47788 19.6814C8.33628 19.115 8.54867 18.4779 8.90265 18.0531L9.11504 17.8407C9.53982 17.4159 10.177 17.2035 10.6726 17.4159C11.2389 17.5575 11.9469 17.4159 12.3717 16.9911L18.9557 10.4071C19.2389 10.1239 19.3097 9.62832 19.0265 9.34513C17.9646 7.85841 18.177 5.73451 19.4513 4.38938C20.0177 3.82301 20.7965 3.39823 21.5752 3.32743C22.2832 3.18584 22.5664 2.40708 22.0708 1.84071L21.8584 1.48673Z" fill="#FF7A00"/>
<path d="M31.4159 29.0973L31.6283 28.885C32.8319 27.6814 32.8319 25.7699 31.6283 24.6372L19.2389 12.177L14.7788 16.6372L27.2389 29.0973C28.3717 30.3009 30.2832 30.3009 31.4159 29.0973Z" fill="#FF7A00"/>
<path d="M6.14159 8L10.6018 3.53982L9.82301 2.76106C9.25664 2.19469 8.40708 2.19469 7.84071 2.76106L5.36283 5.23894C4.79646 5.80531 4.79646 6.65487 5.36283 7.22124L6.14159 8Z" fill="#FF7A00"/>
</svg>
