<svg width="64" height="64" viewBox="0 0 64 64" fill="none" xmlns="http://www.w3.org/2000/svg">
<path d="M9.62237 52.8746H2.8125C2.29562 52.8746 1.875 52.4541 1.875 51.9371V2.8125C1.875 2.2955 2.29562 1.875 2.8125 1.875H19.7049V15.0359C19.7049 15.6871 20.0604 16.2847 20.6325 16.5957C21.2048 16.9069 21.8996 16.8798 22.446 16.5254L28.1059 12.8545L33.7659 16.5254C34.0591 16.7155 34.395 16.8115 34.7318 16.8115C35.0226 16.8115 35.3143 16.74 35.5794 16.5957C36.1516 16.2849 36.5071 15.6871 36.5071 15.0359V1.875H53.3995C53.9165 1.875 54.337 2.2955 54.337 2.8125V14.6101C54.337 15.128 54.7568 15.5476 55.2745 15.5476C55.7923 15.5476 56.212 15.128 56.212 14.6101V2.8125C56.212 1.26175 54.9504 0 53.3995 0H2.8125C1.26163 0 0 1.26175 0 2.8125V51.9371C0 53.4879 1.26163 54.7496 2.8125 54.7496H9.62237C10.1401 54.7496 10.5599 54.33 10.5599 53.8121C10.5599 53.2943 10.1401 52.8746 9.62237 52.8746ZM34.6321 14.8523L29.0719 11.2459C28.4851 10.8656 27.7267 10.8655 27.14 11.246L21.5799 14.8523V1.875H34.6321V14.8523Z" fill="#9497AA"/>
<path d="M8.17554 40.3843C7.31391 40.3843 6.61304 41.0852 6.61304 41.9468V47.1489C6.61304 48.0105 7.31391 48.7114 8.17554 48.7114H20.6859C21.5475 48.7114 22.2484 48.0105 22.2484 47.1489V41.9468C22.2484 41.0852 21.5475 40.3843 20.6859 40.3843H8.17554ZM20.3734 46.8364H8.48804V42.2593H20.3734V46.8364Z" fill="#FF7A00"/>
<path d="M56.1981 29.8943C56.2066 29.8437 56.212 29.7921 56.212 29.739V18.6958C56.212 18.1779 55.7923 17.7583 55.2745 17.7583C54.7568 17.7583 54.337 18.1779 54.337 18.6958V28.7476C51.7703 27.3706 48.8389 26.5883 45.7279 26.5883C43.8755 26.5883 42.0475 26.8647 40.2946 27.4099C39.8003 27.5637 39.5241 28.0892 39.6779 28.5836C39.8316 29.0779 40.3573 29.3547 40.8515 29.2003C42.4239 28.7113 44.0645 28.4634 45.7279 28.4634C54.7693 28.4634 62.125 35.8192 62.125 44.8606C62.125 53.9019 54.7693 61.2577 45.7279 61.2577C36.6865 61.2577 29.3308 53.9019 29.3308 44.8606C29.3308 41.9752 30.0904 39.1383 31.5274 36.6565C32.9224 34.2474 34.9223 32.2172 37.3108 30.7856C37.7549 30.5194 37.8991 29.9437 37.6329 29.4995C37.3666 29.0554 36.7909 28.9112 36.3468 29.1774C33.6863 30.7721 31.4586 33.0334 29.9048 35.7169C28.3026 38.4839 27.4558 41.6457 27.4558 44.8604C27.4558 47.7336 28.1233 50.4534 29.3099 52.8745H13.7081C13.1904 52.8745 12.7706 53.2942 12.7706 53.812C12.7706 54.3299 13.1904 54.7495 13.7081 54.7495H30.3699C33.6264 59.7894 39.2939 63.1326 45.7279 63.1326C55.8031 63.1324 64 54.9357 64 44.8603C64 38.677 60.9121 33.2021 56.1981 29.8943Z" fill="#FF7A00"/>
<path d="M46.2149 33.1641C42.1047 33.1641 38.3582 35.3224 36.26 38.7227L35.9792 37.7936C35.8292 37.2979 35.3059 37.0176 34.8104 37.1676C34.3148 37.3173 34.0346 37.8407 34.1844 38.3363L35.1635 41.5744C35.286 41.9796 35.658 42.2408 36.0605 42.2408C36.1504 42.2408 36.2418 42.2277 36.3322 42.2004L39.5704 41.2214C40.0661 41.0717 40.3464 40.5484 40.1966 40.0527C40.0468 39.5571 39.5234 39.2768 39.0278 39.4267L37.7993 39.7981C39.5497 36.8899 42.7266 35.0389 46.2151 35.0389C50.3898 35.0389 54.1168 37.6862 55.489 41.6261C55.6238 42.0131 55.9864 42.2554 56.3743 42.2554C56.4765 42.2554 56.5807 42.2386 56.6827 42.2031C57.1717 42.0328 57.4299 41.4982 57.2597 41.0093C55.6252 36.3169 51.1868 33.1641 46.2149 33.1641Z" fill="#9497AA"/>
<path d="M45.2413 54.6814C41.0666 54.6814 37.3396 52.0342 35.9673 48.0943C35.7969 47.6052 35.2624 47.3469 34.7737 47.5173C34.2847 47.6876 34.0264 48.2222 34.1967 48.7111C35.8311 53.4037 40.2696 56.5566 45.2413 56.5566C49.3516 56.5566 53.0981 54.3983 55.1962 50.9979L55.4771 51.9272C55.5996 52.3323 55.9717 52.5936 56.3741 52.5936C56.4639 52.5936 56.5553 52.5806 56.6457 52.5532C57.1413 52.4034 57.4216 51.8801 57.2718 51.3844L56.2928 48.1462C56.1429 47.6506 55.6196 47.3704 55.1241 47.5202L51.8858 48.4992C51.3902 48.6489 51.1098 49.1722 51.2597 49.6678C51.4096 50.1636 51.9331 50.4438 52.4284 50.2939L53.6571 49.9226C51.9066 52.8304 48.7297 54.6814 45.2413 54.6814Z" fill="#9497AA"/>
</svg>
