<svg width="30" height="30" viewBox="0 0 30 30" fill="none" xmlns="http://www.w3.org/2000/svg">
<mask id="mask0_1_3840" style="mask-type:alpha" maskUnits="userSpaceOnUse" x="5" y="5" width="20" height="20">
<path fill-rule="evenodd" clip-rule="evenodd" d="M11 21C9.9 21 9.01 21.9 9.01 23C9.01 24.1 9.9 25 11 25C12.1 25 13 24.1 13 23C13 21.9 12.1 21 11 21ZM5 5V7H7L10.6 14.59L9.25 17.04C9.09 17.32 9 17.65 9 18C9 19.1 9.9 20 11 20H23V18H11.42C11.28 18 11.17 17.89 11.17 17.75L11.2 17.63L12.1 16H19.55C20.3 16 20.96 15.59 21.3 14.97L24.88 8.48C24.96 8.34 25 8.17 25 8C25 7.45 24.55 7 24 7H9.21L8.27 5H5ZM21 21C19.9 21 19.01 21.9 19.01 23C19.01 24.1 19.9 25 21 25C22.1 25 23 24.1 23 23C23 21.9 22.1 21 21 21Z" fill="white"/>
</mask>
<g mask="url(#mask0_1_3840)">
<rect x="2" y="2" width="26" height="26" fill="white"/>
</g>
</svg>
