<svg width="561" height="285" viewBox="0 0 561 285" fill="none" xmlns="http://www.w3.org/2000/svg">
<path fill-rule="evenodd" clip-rule="evenodd" d="M0 53.8333C0 52.0844 1.43484 50.6667 3.18374 50.6667C4.93264 50.6667 6.36749 52.0844 6.36749 53.8333C6.36749 55.5822 4.93264 57 3.18374 57C1.43484 57 0 55.5822 0 53.8333ZM0 66.5C0 64.7511 1.43484 63.3333 3.18374 63.3333C4.93264 63.3333 6.36749 64.7511 6.36749 66.5C6.36749 68.2489 4.93264 69.6667 3.18374 69.6667C1.43484 69.6667 0 68.2489 0 66.5ZM12.735 53.8333C12.735 52.0844 14.1698 50.6667 15.9187 50.6667C17.6676 50.6667 19.1025 52.0844 19.1025 53.8333C19.1025 55.5822 17.6676 57 15.9187 57C14.1698 57 12.735 55.5822 12.735 53.8333ZM12.735 66.5C12.735 64.7511 14.1698 63.3333 15.9187 63.3333C17.6676 63.3333 19.1025 64.7511 19.1025 66.5C19.1025 68.2489 17.6676 69.6667 15.9187 69.6667C14.1698 69.6667 12.735 68.2489 12.735 66.5ZM12.735 79.1667C12.735 77.4178 14.1698 76 15.9187 76C17.6676 76 19.1025 77.4178 19.1025 79.1667C19.1025 80.9156 17.6676 82.3333 15.9187 82.3333C14.1698 82.3333 12.735 80.9156 12.735 79.1667ZM25.47 53.8333C25.47 52.0844 26.9048 50.6667 28.6537 50.6667C30.4026 50.6667 31.8374 52.0844 31.8374 53.8333C31.8374 55.5822 30.4026 57 28.6537 57C26.9048 57 25.47 55.5822 25.47 53.8333ZM25.47 66.5C25.47 64.7511 26.9048 63.3333 28.6537 63.3333C30.4026 63.3333 31.8374 64.7511 31.8374 66.5C31.8374 68.2489 30.4026 69.6667 28.6537 69.6667C26.9048 69.6667 25.47 68.2489 25.47 66.5ZM38.2049 53.8333C38.2049 52.0844 39.6398 50.6667 41.3887 50.6667C43.1376 50.6667 44.5724 52.0844 44.5724 53.8333C44.5724 55.5822 43.1376 57 41.3887 57C39.6398 57 38.2049 55.5822 38.2049 53.8333ZM38.2049 66.5C38.2049 64.7511 39.6398 63.3333 41.3887 63.3333C43.1376 63.3333 44.5724 64.7511 44.5724 66.5C44.5724 68.2489 43.1376 69.6667 41.3887 69.6667C39.6398 69.6667 38.2049 68.2489 38.2049 66.5ZM25.47 79.1667C25.47 77.4178 26.9048 76 28.6537 76C30.4026 76 31.8374 77.4178 31.8374 79.1667C31.8374 80.9156 30.4026 82.3333 28.6537 82.3333C26.9048 82.3333 25.47 80.9156 25.47 79.1667ZM50.9399 53.8333C50.9399 52.0844 52.3748 50.6667 54.1237 50.6667C55.8726 50.6667 57.3074 52.0844 57.3074 53.8333C57.3074 55.5822 55.8726 57 54.1237 57C52.3748 57 50.9399 55.5822 50.9399 53.8333ZM50.9399 66.5C50.9399 64.7511 52.3748 63.3333 54.1237 63.3333C55.8726 63.3333 57.3074 64.7511 57.3074 66.5C57.3074 68.2489 55.8726 69.6667 54.1237 69.6667C52.3748 69.6667 50.9399 68.2489 50.9399 66.5ZM50.9399 79.1667C50.9399 77.4178 52.3748 76 54.1237 76C55.8726 76 57.3074 77.4178 57.3074 79.1667C57.3074 80.9156 55.8726 82.3333 54.1237 82.3333C52.3748 82.3333 50.9399 80.9156 50.9399 79.1667ZM63.6749 53.8333C63.6749 52.0844 65.1097 50.6667 66.8586 50.6667C68.6075 50.6667 70.0424 52.0844 70.0424 53.8333C70.0424 55.5822 68.6075 57 66.8586 57C65.1097 57 63.6749 55.5822 63.6749 53.8333ZM63.6749 66.5C63.6749 64.7511 65.1097 63.3333 66.8586 63.3333C68.6075 63.3333 70.0424 64.7511 70.0424 66.5C70.0424 68.2489 68.6075 69.6667 66.8586 69.6667C65.1097 69.6667 63.6749 68.2489 63.6749 66.5ZM63.6749 79.1667C63.6749 77.4178 65.1097 76 66.8586 76C68.6075 76 70.0424 77.4178 70.0424 79.1667C70.0424 80.9156 68.6075 82.3333 66.8586 82.3333C65.1097 82.3333 63.6749 80.9156 63.6749 79.1667ZM63.6749 91.8333C63.6749 90.0844 65.1097 88.6667 66.8586 88.6667C68.6075 88.6667 70.0424 90.0844 70.0424 91.8333C70.0424 93.5822 68.6075 95 66.8586 95C65.1097 95 63.6749 93.5822 63.6749 91.8333ZM63.6749 104.5C63.6749 102.751 65.1097 101.333 66.8586 101.333C68.6075 101.333 70.0424 102.751 70.0424 104.5C70.0424 106.249 68.6075 107.667 66.8586 107.667C65.1097 107.667 63.6749 106.249 63.6749 104.5ZM76.4099 28.5C76.4099 26.7511 77.8447 25.3333 79.5936 25.3333C81.3425 25.3333 82.7774 26.7511 82.7774 28.5C82.7774 30.2489 81.3425 31.6667 79.5936 31.6667C77.8447 31.6667 76.4099 30.2489 76.4099 28.5ZM76.4099 41.1667C76.4099 39.4178 77.8447 38 79.5936 38C81.3425 38 82.7774 39.4178 82.7774 41.1667C82.7774 42.9156 81.3425 44.3333 79.5936 44.3333C77.8447 44.3333 76.4099 42.9156 76.4099 41.1667ZM76.4099 53.8333C76.4099 52.0844 77.8447 50.6667 79.5936 50.6667C81.3425 50.6667 82.7774 52.0844 82.7774 53.8333C82.7774 55.5822 81.3425 57 79.5936 57C77.8447 57 76.4099 55.5822 76.4099 53.8333ZM76.4099 66.5C76.4099 64.7511 77.8447 63.3333 79.5936 63.3333C81.3425 63.3333 82.7774 64.7511 82.7774 66.5C82.7774 68.2489 81.3425 69.6667 79.5936 69.6667C77.8447 69.6667 76.4099 68.2489 76.4099 66.5ZM76.4099 79.1667C76.4099 77.4178 77.8447 76 79.5936 76C81.3425 76 82.7774 77.4178 82.7774 79.1667C82.7774 80.9156 81.3425 82.3333 79.5936 82.3333C77.8447 82.3333 76.4099 80.9156 76.4099 79.1667ZM76.4099 91.8333C76.4099 90.0844 77.8447 88.6667 79.5936 88.6667C81.3425 88.6667 82.7774 90.0844 82.7774 91.8333C82.7774 93.5822 81.3425 95 79.5936 95C77.8447 95 76.4099 93.5822 76.4099 91.8333ZM76.4099 104.5C76.4099 102.751 77.8447 101.333 79.5936 101.333C81.3425 101.333 82.7774 102.751 82.7774 104.5C82.7774 106.249 81.3425 107.667 79.5936 107.667C77.8447 107.667 76.4099 106.249 76.4099 104.5ZM76.4099 117.167C76.4099 115.418 77.8447 114 79.5936 114C81.3425 114 82.7774 115.418 82.7774 117.167C82.7774 118.916 81.3425 120.333 79.5936 120.333C77.8447 120.333 76.4099 118.916 76.4099 117.167ZM76.4099 129.833C76.4099 128.084 77.8447 126.667 79.5936 126.667C81.3425 126.667 82.7774 128.084 82.7774 129.833C82.7774 131.582 81.3425 133 79.5936 133C77.8447 133 76.4099 131.582 76.4099 129.833ZM89.1448 28.5C89.1448 26.7511 90.5797 25.3333 92.3286 25.3333C94.0775 25.3333 95.5123 26.7511 95.5123 28.5C95.5123 30.2489 94.0775 31.6667 92.3286 31.6667C90.5797 31.6667 89.1448 30.2489 89.1448 28.5ZM101.88 15.8333C101.88 14.0844 103.315 12.6667 105.064 12.6667C106.812 12.6667 108.247 14.0844 108.247 15.8333C108.247 17.5822 106.812 19 105.064 19C103.315 19 101.88 17.5822 101.88 15.8333ZM89.1448 41.1667C89.1448 39.4178 90.5797 38 92.3286 38C94.0775 38 95.5123 39.4178 95.5123 41.1667C95.5123 42.9156 94.0775 44.3333 92.3286 44.3333C90.5797 44.3333 89.1448 42.9156 89.1448 41.1667ZM89.1448 53.8333C89.1448 52.0844 90.5797 50.6667 92.3286 50.6667C94.0775 50.6667 95.5123 52.0844 95.5123 53.8333C95.5123 55.5822 94.0775 57 92.3286 57C90.5797 57 89.1448 55.5822 89.1448 53.8333ZM89.1448 66.5C89.1448 64.7511 90.5797 63.3333 92.3286 63.3333C94.0775 63.3333 95.5123 64.7511 95.5123 66.5C95.5123 68.2489 94.0775 69.6667 92.3286 69.6667C90.5797 69.6667 89.1448 68.2489 89.1448 66.5ZM89.1448 79.1667C89.1448 77.4178 90.5797 76 92.3286 76C94.0775 76 95.5123 77.4178 95.5123 79.1667C95.5123 80.9156 94.0775 82.3333 92.3286 82.3333C90.5797 82.3333 89.1448 80.9156 89.1448 79.1667ZM89.1448 91.8333C89.1448 90.0844 90.5797 88.6667 92.3286 88.6667C94.0775 88.6667 95.5123 90.0844 95.5123 91.8333C95.5123 93.5822 94.0775 95 92.3286 95C90.5797 95 89.1448 93.5822 89.1448 91.8333ZM89.1448 104.5C89.1448 102.751 90.5797 101.333 92.3286 101.333C94.0775 101.333 95.5123 102.751 95.5123 104.5C95.5123 106.249 94.0775 107.667 92.3286 107.667C90.5797 107.667 89.1448 106.249 89.1448 104.5ZM89.1448 117.167C89.1448 115.418 90.5797 114 92.3286 114C94.0775 114 95.5123 115.418 95.5123 117.167C95.5123 118.916 94.0775 120.333 92.3286 120.333C90.5797 120.333 89.1448 118.916 89.1448 117.167ZM89.1448 129.833C89.1448 128.084 90.5797 126.667 92.3286 126.667C94.0775 126.667 95.5123 128.084 95.5123 129.833C95.5123 131.582 94.0775 133 92.3286 133C90.5797 133 89.1448 131.582 89.1448 129.833ZM89.1448 142.5C89.1448 140.751 90.5797 139.333 92.3286 139.333C94.0775 139.333 95.5123 140.751 95.5123 142.5C95.5123 144.249 94.0775 145.667 92.3286 145.667C90.5797 145.667 89.1448 144.249 89.1448 142.5ZM101.88 41.1667C101.88 39.4178 103.315 38 105.064 38C106.812 38 108.247 39.4178 108.247 41.1667C108.247 42.9156 106.812 44.3333 105.064 44.3333C103.315 44.3333 101.88 42.9156 101.88 41.1667ZM101.88 53.8333C101.88 52.0844 103.315 50.6667 105.064 50.6667C106.812 50.6667 108.247 52.0844 108.247 53.8333C108.247 55.5822 106.812 57 105.064 57C103.315 57 101.88 55.5822 101.88 53.8333ZM101.88 66.5C101.88 64.7511 103.315 63.3333 105.064 63.3333C106.812 63.3333 108.247 64.7511 108.247 66.5C108.247 68.2489 106.812 69.6667 105.064 69.6667C103.315 69.6667 101.88 68.2489 101.88 66.5ZM101.88 79.1667C101.88 77.4178 103.315 76 105.064 76C106.812 76 108.247 77.4178 108.247 79.1667C108.247 80.9156 106.812 82.3333 105.064 82.3333C103.315 82.3333 101.88 80.9156 101.88 79.1667ZM101.88 91.8333C101.88 90.0844 103.315 88.6667 105.064 88.6667C106.812 88.6667 108.247 90.0844 108.247 91.8333C108.247 93.5822 106.812 95 105.064 95C103.315 95 101.88 93.5822 101.88 91.8333ZM101.88 104.5C101.88 102.751 103.315 101.333 105.064 101.333C106.812 101.333 108.247 102.751 108.247 104.5C108.247 106.249 106.812 107.667 105.064 107.667C103.315 107.667 101.88 106.249 101.88 104.5ZM101.88 117.167C101.88 115.418 103.315 114 105.064 114C106.812 114 108.247 115.418 108.247 117.167C108.247 118.916 106.812 120.333 105.064 120.333C103.315 120.333 101.88 118.916 101.88 117.167ZM101.88 129.833C101.88 128.084 103.315 126.667 105.064 126.667C106.812 126.667 108.247 128.084 108.247 129.833C108.247 131.582 106.812 133 105.064 133C103.315 133 101.88 131.582 101.88 129.833ZM101.88 142.5C101.88 140.751 103.315 139.333 105.064 139.333C106.812 139.333 108.247 140.751 108.247 142.5C108.247 144.249 106.812 145.667 105.064 145.667C103.315 145.667 101.88 144.249 101.88 142.5ZM101.88 155.167C101.88 153.418 103.315 152 105.064 152C106.812 152 108.247 153.418 108.247 155.167C108.247 156.916 106.812 158.333 105.064 158.333C103.315 158.333 101.88 156.916 101.88 155.167ZM114.615 15.8333C114.615 14.0844 116.05 12.6667 117.799 12.6667C119.547 12.6667 120.982 14.0844 120.982 15.8333C120.982 17.5822 119.547 19 117.799 19C116.05 19 114.615 17.5822 114.615 15.8333ZM114.615 28.5C114.615 26.7511 116.05 25.3333 117.799 25.3333C119.547 25.3333 120.982 26.7511 120.982 28.5C120.982 30.2489 119.547 31.6667 117.799 31.6667C116.05 31.6667 114.615 30.2489 114.615 28.5ZM114.615 41.1667C114.615 39.4178 116.05 38 117.799 38C119.547 38 120.982 39.4178 120.982 41.1667C120.982 42.9156 119.547 44.3333 117.799 44.3333C116.05 44.3333 114.615 42.9156 114.615 41.1667ZM127.35 41.1667C127.35 39.4178 128.785 38 130.534 38C132.282 38 133.717 39.4178 133.717 41.1667C133.717 42.9156 132.282 44.3333 130.534 44.3333C128.785 44.3333 127.35 42.9156 127.35 41.1667ZM140.085 41.1667C140.085 39.4178 141.52 38 143.268 38C145.017 38 146.452 39.4178 146.452 41.1667C146.452 42.9156 145.017 44.3333 143.268 44.3333C141.52 44.3333 140.085 42.9156 140.085 41.1667ZM114.615 53.8333C114.615 52.0844 116.05 50.6667 117.799 50.6667C119.547 50.6667 120.982 52.0844 120.982 53.8333C120.982 55.5822 119.547 57 117.799 57C116.05 57 114.615 55.5822 114.615 53.8333ZM114.615 91.8333C114.615 90.0844 116.05 88.6667 117.799 88.6667C119.547 88.6667 120.982 90.0844 120.982 91.8333C120.982 93.5822 119.547 95 117.799 95C116.05 95 114.615 93.5822 114.615 91.8333ZM114.615 104.5C114.615 102.751 116.05 101.333 117.799 101.333C119.547 101.333 120.982 102.751 120.982 104.5C120.982 106.249 119.547 107.667 117.799 107.667C116.05 107.667 114.615 106.249 114.615 104.5ZM114.615 117.167C114.615 115.418 116.05 114 117.799 114C119.547 114 120.982 115.418 120.982 117.167C120.982 118.916 119.547 120.333 117.799 120.333C116.05 120.333 114.615 118.916 114.615 117.167ZM114.615 129.833C114.615 128.084 116.05 126.667 117.799 126.667C119.547 126.667 120.982 128.084 120.982 129.833C120.982 131.582 119.547 133 117.799 133C116.05 133 114.615 131.582 114.615 129.833ZM127.35 91.8333C127.35 90.0844 128.785 88.6667 130.534 88.6667C132.282 88.6667 133.717 90.0844 133.717 91.8333C133.717 93.5822 132.282 95 130.534 95C128.785 95 127.35 93.5822 127.35 91.8333ZM127.35 104.5C127.35 102.751 128.785 101.333 130.534 101.333C132.282 101.333 133.717 102.751 133.717 104.5C133.717 106.249 132.282 107.667 130.534 107.667C128.785 107.667 127.35 106.249 127.35 104.5ZM127.35 117.167C127.35 115.418 128.785 114 130.534 114C132.282 114 133.717 115.418 133.717 117.167C133.717 118.916 132.282 120.333 130.534 120.333C128.785 120.333 127.35 118.916 127.35 117.167ZM127.35 129.833C127.35 128.084 128.785 126.667 130.534 126.667C132.282 126.667 133.717 128.084 133.717 129.833C133.717 131.582 132.282 133 130.534 133C128.785 133 127.35 131.582 127.35 129.833ZM127.35 167.833C127.35 166.084 128.785 164.667 130.534 164.667C132.282 164.667 133.717 166.084 133.717 167.833C133.717 169.582 132.282 171 130.534 171C128.785 171 127.35 169.582 127.35 167.833ZM140.085 167.833C140.085 166.084 141.52 164.667 143.268 164.667C145.017 164.667 146.452 166.084 146.452 167.833C146.452 169.582 145.017 171 143.268 171C141.52 171 140.085 169.582 140.085 167.833ZM152.82 167.833C152.82 166.084 154.255 164.667 156.003 164.667C157.752 164.667 159.187 166.084 159.187 167.833C159.187 169.582 157.752 171 156.003 171C154.255 171 152.82 169.582 152.82 167.833ZM165.555 167.833C165.555 166.084 166.99 164.667 168.738 164.667C170.487 164.667 171.922 166.084 171.922 167.833C171.922 169.582 170.487 171 168.738 171C166.99 171 165.555 169.582 165.555 167.833ZM140.085 180.5C140.085 178.751 141.52 177.333 143.268 177.333C145.017 177.333 146.452 178.751 146.452 180.5C146.452 182.249 145.017 183.667 143.268 183.667C141.52 183.667 140.085 182.249 140.085 180.5ZM152.82 180.5C152.82 178.751 154.255 177.333 156.003 177.333C157.752 177.333 159.187 178.751 159.187 180.5C159.187 182.249 157.752 183.667 156.003 183.667C154.255 183.667 152.82 182.249 152.82 180.5ZM165.555 180.5C165.555 178.751 166.99 177.333 168.738 177.333C170.487 177.333 171.922 178.751 171.922 180.5C171.922 182.249 170.487 183.667 168.738 183.667C166.99 183.667 165.555 182.249 165.555 180.5ZM178.29 180.5C178.29 178.751 179.725 177.333 181.473 177.333C183.222 177.333 184.657 178.751 184.657 180.5C184.657 182.249 183.222 183.667 181.473 183.667C179.725 183.667 178.29 182.249 178.29 180.5ZM140.085 193.167C140.085 191.418 141.52 190 143.268 190C145.017 190 146.452 191.418 146.452 193.167C146.452 194.916 145.017 196.333 143.268 196.333C141.52 196.333 140.085 194.916 140.085 193.167ZM152.82 193.167C152.82 191.418 154.255 190 156.003 190C157.752 190 159.187 191.418 159.187 193.167C159.187 194.916 157.752 196.333 156.003 196.333C154.255 196.333 152.82 194.916 152.82 193.167ZM165.555 193.167C165.555 191.418 166.99 190 168.738 190C170.487 190 171.922 191.418 171.922 193.167C171.922 194.916 170.487 196.333 168.738 196.333C166.99 196.333 165.555 194.916 165.555 193.167ZM178.29 193.167C178.29 191.418 179.725 190 181.473 190C183.222 190 184.657 191.418 184.657 193.167C184.657 194.916 183.222 196.333 181.473 196.333C179.725 196.333 178.29 194.916 178.29 193.167ZM191.025 193.167C191.025 191.418 192.46 190 194.208 190C195.957 190 197.392 191.418 197.392 193.167C197.392 194.916 195.957 196.333 194.208 196.333C192.46 196.333 191.025 194.916 191.025 193.167ZM140.085 205.833C140.085 204.084 141.52 202.667 143.268 202.667C145.017 202.667 146.452 204.084 146.452 205.833C146.452 207.582 145.017 209 143.268 209C141.52 209 140.085 207.582 140.085 205.833ZM152.82 205.833C152.82 204.084 154.255 202.667 156.003 202.667C157.752 202.667 159.187 204.084 159.187 205.833C159.187 207.582 157.752 209 156.003 209C154.255 209 152.82 207.582 152.82 205.833ZM165.555 205.833C165.555 204.084 166.99 202.667 168.738 202.667C170.487 202.667 171.922 204.084 171.922 205.833C171.922 207.582 170.487 209 168.738 209C166.99 209 165.555 207.582 165.555 205.833ZM178.29 205.833C178.29 204.084 179.725 202.667 181.473 202.667C183.222 202.667 184.657 204.084 184.657 205.833C184.657 207.582 183.222 209 181.473 209C179.725 209 178.29 207.582 178.29 205.833ZM152.82 218.5C152.82 216.751 154.255 215.333 156.003 215.333C157.752 215.333 159.187 216.751 159.187 218.5C159.187 220.249 157.752 221.667 156.003 221.667C154.255 221.667 152.82 220.249 152.82 218.5ZM165.555 218.5C165.555 216.751 166.99 215.333 168.738 215.333C170.487 215.333 171.922 216.751 171.922 218.5C171.922 220.249 170.487 221.667 168.738 221.667C166.99 221.667 165.555 220.249 165.555 218.5ZM178.29 218.5C178.29 216.751 179.725 215.333 181.473 215.333C183.222 215.333 184.657 216.751 184.657 218.5C184.657 220.249 183.222 221.667 181.473 221.667C179.725 221.667 178.29 220.249 178.29 218.5ZM152.82 231.167C152.82 229.418 154.255 228 156.003 228C157.752 228 159.187 229.418 159.187 231.167C159.187 232.916 157.752 234.333 156.003 234.333C154.255 234.333 152.82 232.916 152.82 231.167ZM165.555 231.167C165.555 229.418 166.99 228 168.738 228C170.487 228 171.922 229.418 171.922 231.167C171.922 232.916 170.487 234.333 168.738 234.333C166.99 234.333 165.555 232.916 165.555 231.167ZM152.82 243.833C152.82 242.084 154.255 240.667 156.003 240.667C157.752 240.667 159.187 242.084 159.187 243.833C159.187 245.582 157.752 247 156.003 247C154.255 247 152.82 245.582 152.82 243.833ZM152.82 256.5C152.82 254.751 154.255 253.333 156.003 253.333C157.752 253.333 159.187 254.751 159.187 256.5C159.187 258.249 157.752 259.667 156.003 259.667C154.255 259.667 152.82 258.249 152.82 256.5ZM152.82 269.167C152.82 267.418 154.255 266 156.003 266C157.752 266 159.187 267.418 159.187 269.167C159.187 270.916 157.752 272.333 156.003 272.333C154.255 272.333 152.82 270.916 152.82 269.167ZM165.555 281.833C165.555 280.084 166.99 278.667 168.738 278.667C170.487 278.667 171.922 280.084 171.922 281.833C171.922 283.582 170.487 285 168.738 285C166.99 285 165.555 283.582 165.555 281.833ZM165.555 243.833C165.555 242.084 166.99 240.667 168.738 240.667C170.487 240.667 171.922 242.084 171.922 243.833C171.922 245.582 170.487 247 168.738 247C166.99 247 165.555 245.582 165.555 243.833ZM178.29 231.167C178.29 229.418 179.725 228 181.473 228C183.222 228 184.657 229.418 184.657 231.167C184.657 232.916 183.222 234.333 181.473 234.333C179.725 234.333 178.29 232.916 178.29 231.167ZM191.025 205.833C191.025 204.084 192.46 202.667 194.208 202.667C195.957 202.667 197.392 204.084 197.392 205.833C197.392 207.582 195.957 209 194.208 209C192.46 209 191.025 207.582 191.025 205.833ZM140.085 79.1667C140.085 77.4178 141.52 76 143.268 76C145.017 76 146.452 77.4178 146.452 79.1667C146.452 80.9156 145.017 82.3333 143.268 82.3333C141.52 82.3333 140.085 80.9156 140.085 79.1667ZM140.085 91.8333C140.085 90.0844 141.52 88.6667 143.268 88.6667C145.017 88.6667 146.452 90.0844 146.452 91.8333C146.452 93.5822 145.017 95 143.268 95C141.52 95 140.085 93.5822 140.085 91.8333ZM140.085 53.8333C140.085 52.0844 141.52 50.6667 143.268 50.6667C145.017 50.6667 146.452 52.0844 146.452 53.8333C146.452 55.5822 145.017 57 143.268 57C141.52 57 140.085 55.5822 140.085 53.8333ZM140.085 66.5C140.085 64.7511 141.52 63.3333 143.268 63.3333C145.017 63.3333 146.452 64.7511 146.452 66.5C146.452 68.2489 145.017 69.6667 143.268 69.6667C141.52 69.6667 140.085 68.2489 140.085 66.5ZM140.085 104.5C140.085 102.751 141.52 101.333 143.268 101.333C145.017 101.333 146.452 102.751 146.452 104.5C146.452 106.249 145.017 107.667 143.268 107.667C141.52 107.667 140.085 106.249 140.085 104.5ZM152.82 79.1667C152.82 77.4178 154.255 76 156.003 76C157.752 76 159.187 77.4178 159.187 79.1667C159.187 80.9156 157.752 82.3333 156.003 82.3333C154.255 82.3333 152.82 80.9156 152.82 79.1667ZM152.82 91.8333C152.82 90.0844 154.255 88.6667 156.003 88.6667C157.752 88.6667 159.187 90.0844 159.187 91.8333C159.187 93.5822 157.752 95 156.003 95C154.255 95 152.82 93.5822 152.82 91.8333ZM152.82 53.8333C152.82 52.0844 154.255 50.6667 156.003 50.6667C157.752 50.6667 159.187 52.0844 159.187 53.8333C159.187 55.5822 157.752 57 156.003 57C154.255 57 152.82 55.5822 152.82 53.8333ZM152.82 66.5C152.82 64.7511 154.255 63.3333 156.003 63.3333C157.752 63.3333 159.187 64.7511 159.187 66.5C159.187 68.2489 157.752 69.6667 156.003 69.6667C154.255 69.6667 152.82 68.2489 152.82 66.5ZM152.82 104.5C152.82 102.751 154.255 101.333 156.003 101.333C157.752 101.333 159.187 102.751 159.187 104.5C159.187 106.249 157.752 107.667 156.003 107.667C154.255 107.667 152.82 106.249 152.82 104.5ZM165.555 91.8333C165.555 90.0844 166.99 88.6667 168.738 88.6667C170.487 88.6667 171.922 90.0844 171.922 91.8333C171.922 93.5822 170.487 95 168.738 95C166.99 95 165.555 93.5822 165.555 91.8333ZM165.555 104.5C165.555 102.751 166.99 101.333 168.738 101.333C170.487 101.333 171.922 102.751 171.922 104.5C171.922 106.249 170.487 107.667 168.738 107.667C166.99 107.667 165.555 106.249 165.555 104.5ZM140.085 117.167C140.085 115.418 141.52 114 143.268 114C145.017 114 146.452 115.418 146.452 117.167C146.452 118.916 145.017 120.333 143.268 120.333C141.52 120.333 140.085 118.916 140.085 117.167ZM114.615 155.167C114.615 153.418 116.05 152 117.799 152C119.547 152 120.982 153.418 120.982 155.167C120.982 156.916 119.547 158.333 117.799 158.333C116.05 158.333 114.615 156.916 114.615 155.167ZM127.35 3.16667C127.35 1.41777 128.785 0 130.534 0C132.282 0 133.717 1.41777 133.717 3.16667C133.717 4.91557 132.282 6.33333 130.534 6.33333C128.785 6.33333 127.35 4.91557 127.35 3.16667ZM127.35 15.8333C127.35 14.0844 128.785 12.6667 130.534 12.6667C132.282 12.6667 133.717 14.0844 133.717 15.8333C133.717 17.5822 132.282 19 130.534 19C128.785 19 127.35 17.5822 127.35 15.8333ZM140.085 3.16667C140.085 1.41777 141.52 0 143.268 0C145.017 0 146.452 1.41777 146.452 3.16667C146.452 4.91557 145.017 6.33333 143.268 6.33333C141.52 6.33333 140.085 4.91557 140.085 3.16667ZM140.085 15.8333C140.085 14.0844 141.52 12.6667 143.268 12.6667C145.017 12.6667 146.452 14.0844 146.452 15.8333C146.452 17.5822 145.017 19 143.268 19C141.52 19 140.085 17.5822 140.085 15.8333ZM152.82 15.8333C152.82 14.0844 154.255 12.6667 156.003 12.6667C157.752 12.6667 159.187 14.0844 159.187 15.8333C159.187 17.5822 157.752 19 156.003 19C154.255 19 152.82 17.5822 152.82 15.8333ZM165.555 15.8333C165.555 14.0844 166.99 12.6667 168.738 12.6667C170.487 12.6667 171.922 14.0844 171.922 15.8333C171.922 17.5822 170.487 19 168.738 19C166.99 19 165.555 17.5822 165.555 15.8333ZM165.555 28.5C165.555 26.7511 166.99 25.3333 168.738 25.3333C170.487 25.3333 171.922 26.7511 171.922 28.5C171.922 30.2489 170.487 31.6667 168.738 31.6667C166.99 31.6667 165.555 30.2489 165.555 28.5ZM178.29 15.8333C178.29 14.0844 179.725 12.6667 181.473 12.6667C183.222 12.6667 184.657 14.0844 184.657 15.8333C184.657 17.5822 183.222 19 181.473 19C179.725 19 178.29 17.5822 178.29 15.8333ZM191.025 15.8333C191.025 14.0844 192.46 12.6667 194.208 12.6667C195.957 12.6667 197.392 14.0844 197.392 15.8333C197.392 17.5822 195.957 19 194.208 19C192.46 19 191.025 17.5822 191.025 15.8333ZM203.76 15.8333C203.76 14.0844 205.194 12.6667 206.943 12.6667C208.692 12.6667 210.127 14.0844 210.127 15.8333C210.127 17.5822 208.692 19 206.943 19C205.194 19 203.76 17.5822 203.76 15.8333ZM216.495 15.8333C216.495 14.0844 217.929 12.6667 219.678 12.6667C221.427 12.6667 222.862 14.0844 222.862 15.8333C222.862 17.5822 221.427 19 219.678 19C217.929 19 216.495 17.5822 216.495 15.8333ZM229.23 15.8333C229.23 14.0844 230.664 12.6667 232.413 12.6667C234.162 12.6667 235.597 14.0844 235.597 15.8333C235.597 17.5822 234.162 19 232.413 19C230.664 19 229.23 17.5822 229.23 15.8333ZM286.537 15.8333C286.537 14.0844 287.972 12.6667 289.721 12.6667C291.47 12.6667 292.904 14.0844 292.904 15.8333C292.904 17.5822 291.47 19 289.721 19C287.972 19 286.537 17.5822 286.537 15.8333ZM299.272 15.8333C299.272 14.0844 300.707 12.6667 302.456 12.6667C304.205 12.6667 305.639 14.0844 305.639 15.8333C305.639 17.5822 304.205 19 302.456 19C300.707 19 299.272 17.5822 299.272 15.8333ZM178.29 28.5C178.29 26.7511 179.725 25.3333 181.473 25.3333C183.222 25.3333 184.657 26.7511 184.657 28.5C184.657 30.2489 183.222 31.6667 181.473 31.6667C179.725 31.6667 178.29 30.2489 178.29 28.5ZM191.025 28.5C191.025 26.7511 192.46 25.3333 194.208 25.3333C195.957 25.3333 197.392 26.7511 197.392 28.5C197.392 30.2489 195.957 31.6667 194.208 31.6667C192.46 31.6667 191.025 30.2489 191.025 28.5ZM203.76 28.5C203.76 26.7511 205.194 25.3333 206.943 25.3333C208.692 25.3333 210.127 26.7511 210.127 28.5C210.127 30.2489 208.692 31.6667 206.943 31.6667C205.194 31.6667 203.76 30.2489 203.76 28.5ZM216.495 28.5C216.495 26.7511 217.929 25.3333 219.678 25.3333C221.427 25.3333 222.862 26.7511 222.862 28.5C222.862 30.2489 221.427 31.6667 219.678 31.6667C217.929 31.6667 216.495 30.2489 216.495 28.5ZM178.29 41.1667C178.29 39.4178 179.725 38 181.473 38C183.222 38 184.657 39.4178 184.657 41.1667C184.657 42.9156 183.222 44.3333 181.473 44.3333C179.725 44.3333 178.29 42.9156 178.29 41.1667ZM191.025 41.1667C191.025 39.4178 192.46 38 194.208 38C195.957 38 197.392 39.4178 197.392 41.1667C197.392 42.9156 195.957 44.3333 194.208 44.3333C192.46 44.3333 191.025 42.9156 191.025 41.1667ZM178.29 53.8333C178.29 52.0844 179.725 50.6667 181.473 50.6667C183.222 50.6667 184.657 52.0844 184.657 53.8333C184.657 55.5822 183.222 57 181.473 57C179.725 57 178.29 55.5822 178.29 53.8333ZM191.025 53.8333C191.025 52.0844 192.46 50.6667 194.208 50.6667C195.957 50.6667 197.392 52.0844 197.392 53.8333C197.392 55.5822 195.957 57 194.208 57C192.46 57 191.025 55.5822 191.025 53.8333ZM191.025 66.5C191.025 64.7511 192.46 63.3333 194.208 63.3333C195.957 63.3333 197.392 64.7511 197.392 66.5C197.392 68.2489 195.957 69.6667 194.208 69.6667C192.46 69.6667 191.025 68.2489 191.025 66.5ZM203.76 41.1667C203.76 39.4178 205.194 38 206.943 38C208.692 38 210.127 39.4178 210.127 41.1667C210.127 42.9156 208.692 44.3333 206.943 44.3333C205.194 44.3333 203.76 42.9156 203.76 41.1667ZM216.495 41.1667C216.495 39.4178 217.929 38 219.678 38C221.427 38 222.862 39.4178 222.862 41.1667C222.862 42.9156 221.427 44.3333 219.678 44.3333C217.929 44.3333 216.495 42.9156 216.495 41.1667ZM229.23 28.5C229.23 26.7511 230.664 25.3333 232.413 25.3333C234.162 25.3333 235.597 26.7511 235.597 28.5C235.597 30.2489 234.162 31.6667 232.413 31.6667C230.664 31.6667 229.23 30.2489 229.23 28.5ZM248.332 91.8333C248.332 90.0844 249.767 88.6667 251.516 88.6667C253.265 88.6667 254.7 90.0844 254.7 91.8333C254.7 93.5822 253.265 95 251.516 95C249.767 95 248.332 93.5822 248.332 91.8333ZM248.332 142.5C248.332 140.751 249.767 139.333 251.516 139.333C253.265 139.333 254.7 140.751 254.7 142.5C254.7 144.249 253.265 145.667 251.516 145.667C249.767 145.667 248.332 144.249 248.332 142.5ZM248.332 155.167C248.332 153.418 249.767 152 251.516 152C253.265 152 254.7 153.418 254.7 155.167C254.7 156.916 253.265 158.333 251.516 158.333C249.767 158.333 248.332 156.916 248.332 155.167ZM248.332 167.833C248.332 166.084 249.767 164.667 251.516 164.667C253.265 164.667 254.7 166.084 254.7 167.833C254.7 169.582 253.265 171 251.516 171C249.767 171 248.332 169.582 248.332 167.833ZM261.067 142.5C261.067 140.751 262.502 139.333 264.251 139.333C266 139.333 267.435 140.751 267.435 142.5C267.435 144.249 266 145.667 264.251 145.667C262.502 145.667 261.067 144.249 261.067 142.5ZM261.067 155.167C261.067 153.418 262.502 152 264.251 152C266 152 267.435 153.418 267.435 155.167C267.435 156.916 266 158.333 264.251 158.333C262.502 158.333 261.067 156.916 261.067 155.167ZM261.067 167.833C261.067 166.084 262.502 164.667 264.251 164.667C266 164.667 267.435 166.084 267.435 167.833C267.435 169.582 266 171 264.251 171C262.502 171 261.067 169.582 261.067 167.833ZM273.802 142.5C273.802 140.751 275.237 139.333 276.986 139.333C278.735 139.333 280.169 140.751 280.169 142.5C280.169 144.249 278.735 145.667 276.986 145.667C275.237 145.667 273.802 144.249 273.802 142.5ZM273.802 155.167C273.802 153.418 275.237 152 276.986 152C278.735 152 280.169 153.418 280.169 155.167C280.169 156.916 278.735 158.333 276.986 158.333C275.237 158.333 273.802 156.916 273.802 155.167ZM273.802 167.833C273.802 166.084 275.237 164.667 276.986 164.667C278.735 164.667 280.169 166.084 280.169 167.833C280.169 169.582 278.735 171 276.986 171C275.237 171 273.802 169.582 273.802 167.833ZM286.537 142.5C286.537 140.751 287.972 139.333 289.721 139.333C291.47 139.333 292.904 140.751 292.904 142.5C292.904 144.249 291.47 145.667 289.721 145.667C287.972 145.667 286.537 144.249 286.537 142.5ZM261.067 129.833C261.067 128.084 262.502 126.667 264.251 126.667C266 126.667 267.435 128.084 267.435 129.833C267.435 131.582 266 133 264.251 133C262.502 133 261.067 131.582 261.067 129.833ZM273.802 129.833C273.802 128.084 275.237 126.667 276.986 126.667C278.735 126.667 280.169 128.084 280.169 129.833C280.169 131.582 278.735 133 276.986 133C275.237 133 273.802 131.582 273.802 129.833ZM273.802 104.5C273.802 102.751 275.237 101.333 276.986 101.333C278.735 101.333 280.169 102.751 280.169 104.5C280.169 106.249 278.735 107.667 276.986 107.667C275.237 107.667 273.802 106.249 273.802 104.5ZM273.802 91.8333C273.802 90.0844 275.237 88.6667 276.986 88.6667C278.735 88.6667 280.169 90.0844 280.169 91.8333C280.169 93.5822 278.735 95 276.986 95C275.237 95 273.802 93.5822 273.802 91.8333ZM286.537 129.833C286.537 128.084 287.972 126.667 289.721 126.667C291.47 126.667 292.904 128.084 292.904 129.833C292.904 131.582 291.47 133 289.721 133C287.972 133 286.537 131.582 286.537 129.833ZM286.537 155.167C286.537 153.418 287.972 152 289.721 152C291.47 152 292.904 153.418 292.904 155.167C292.904 156.916 291.47 158.333 289.721 158.333C287.972 158.333 286.537 156.916 286.537 155.167ZM286.537 167.833C286.537 166.084 287.972 164.667 289.721 164.667C291.47 164.667 292.904 166.084 292.904 167.833C292.904 169.582 291.47 171 289.721 171C287.972 171 286.537 169.582 286.537 167.833ZM286.537 193.167C286.537 191.418 287.972 190 289.721 190C291.47 190 292.904 191.418 292.904 193.167C292.904 194.916 291.47 196.333 289.721 196.333C287.972 196.333 286.537 194.916 286.537 193.167ZM286.537 180.5C286.537 178.751 287.972 177.333 289.721 177.333C291.47 177.333 292.904 178.751 292.904 180.5C292.904 182.249 291.47 183.667 289.721 183.667C287.972 183.667 286.537 182.249 286.537 180.5ZM286.537 205.833C286.537 204.084 287.972 202.667 289.721 202.667C291.47 202.667 292.904 204.084 292.904 205.833C292.904 207.582 291.47 209 289.721 209C287.972 209 286.537 207.582 286.537 205.833ZM299.272 142.5C299.272 140.751 300.707 139.333 302.456 139.333C304.205 139.333 305.639 140.751 305.639 142.5C305.639 144.249 304.205 145.667 302.456 145.667C300.707 145.667 299.272 144.249 299.272 142.5ZM299.272 129.833C299.272 128.084 300.707 126.667 302.456 126.667C304.205 126.667 305.639 128.084 305.639 129.833C305.639 131.582 304.205 133 302.456 133C300.707 133 299.272 131.582 299.272 129.833ZM299.272 155.167C299.272 153.418 300.707 152 302.456 152C304.205 152 305.639 153.418 305.639 155.167C305.639 156.916 304.205 158.333 302.456 158.333C300.707 158.333 299.272 156.916 299.272 155.167ZM299.272 167.833C299.272 166.084 300.707 164.667 302.456 164.667C304.205 164.667 305.639 166.084 305.639 167.833C305.639 169.582 304.205 171 302.456 171C300.707 171 299.272 169.582 299.272 167.833ZM299.272 193.167C299.272 191.418 300.707 190 302.456 190C304.205 190 305.639 191.418 305.639 193.167C305.639 194.916 304.205 196.333 302.456 196.333C300.707 196.333 299.272 194.916 299.272 193.167ZM299.272 180.5C299.272 178.751 300.707 177.333 302.456 177.333C304.205 177.333 305.639 178.751 305.639 180.5C305.639 182.249 304.205 183.667 302.456 183.667C300.707 183.667 299.272 182.249 299.272 180.5ZM299.272 205.833C299.272 204.084 300.707 202.667 302.456 202.667C304.205 202.667 305.639 204.084 305.639 205.833C305.639 207.582 304.205 209 302.456 209C300.707 209 299.272 207.582 299.272 205.833ZM312.007 142.5C312.007 140.751 313.442 139.333 315.191 139.333C316.94 139.333 318.374 140.751 318.374 142.5C318.374 144.249 316.94 145.667 315.191 145.667C313.442 145.667 312.007 144.249 312.007 142.5ZM312.007 155.167C312.007 153.418 313.442 152 315.191 152C316.94 152 318.374 153.418 318.374 155.167C318.374 156.916 316.94 158.333 315.191 158.333C313.442 158.333 312.007 156.916 312.007 155.167ZM312.007 167.833C312.007 166.084 313.442 164.667 315.191 164.667C316.94 164.667 318.374 166.084 318.374 167.833C318.374 169.582 316.94 171 315.191 171C313.442 171 312.007 169.582 312.007 167.833ZM312.007 193.167C312.007 191.418 313.442 190 315.191 190C316.94 190 318.374 191.418 318.374 193.167C318.374 194.916 316.94 196.333 315.191 196.333C313.442 196.333 312.007 194.916 312.007 193.167ZM312.007 180.5C312.007 178.751 313.442 177.333 315.191 177.333C316.94 177.333 318.374 178.751 318.374 180.5C318.374 182.249 316.94 183.667 315.191 183.667C313.442 183.667 312.007 182.249 312.007 180.5ZM324.742 167.833C324.742 166.084 326.177 164.667 327.926 164.667C329.675 164.667 331.109 166.084 331.109 167.833C331.109 169.582 329.675 171 327.926 171C326.177 171 324.742 169.582 324.742 167.833ZM337.477 167.833C337.477 166.084 338.912 164.667 340.661 164.667C342.41 164.667 343.844 166.084 343.844 167.833C343.844 169.582 342.41 171 340.661 171C338.912 171 337.477 169.582 337.477 167.833ZM324.742 193.167C324.742 191.418 326.177 190 327.926 190C329.675 190 331.109 191.418 331.109 193.167C331.109 194.916 329.675 196.333 327.926 196.333C326.177 196.333 324.742 194.916 324.742 193.167ZM324.742 180.5C324.742 178.751 326.177 177.333 327.926 177.333C329.675 177.333 331.109 178.751 331.109 180.5C331.109 182.249 329.675 183.667 327.926 183.667C326.177 183.667 324.742 182.249 324.742 180.5ZM312.007 205.833C312.007 204.084 313.442 202.667 315.191 202.667C316.94 202.667 318.374 204.084 318.374 205.833C318.374 207.582 316.94 209 315.191 209C313.442 209 312.007 207.582 312.007 205.833ZM337.477 218.5C337.477 216.751 338.912 215.333 340.661 215.333C342.41 215.333 343.844 216.751 343.844 218.5C343.844 220.249 342.41 221.667 340.661 221.667C338.912 221.667 337.477 220.249 337.477 218.5ZM337.477 231.167C337.477 229.418 338.912 228 340.661 228C342.41 228 343.844 229.418 343.844 231.167C343.844 232.916 342.41 234.333 340.661 234.333C338.912 234.333 337.477 232.916 337.477 231.167ZM299.272 218.5C299.272 216.751 300.707 215.333 302.456 215.333C304.205 215.333 305.639 216.751 305.639 218.5C305.639 220.249 304.205 221.667 302.456 221.667C300.707 221.667 299.272 220.249 299.272 218.5ZM299.272 231.167C299.272 229.418 300.707 228 302.456 228C304.205 228 305.639 229.418 305.639 231.167C305.639 232.916 304.205 234.333 302.456 234.333C300.707 234.333 299.272 232.916 299.272 231.167ZM286.537 53.8333C286.537 52.0844 287.972 50.6667 289.721 50.6667C291.47 50.6667 292.904 52.0844 292.904 53.8333C292.904 55.5822 291.47 57 289.721 57C287.972 57 286.537 55.5822 286.537 53.8333ZM286.537 66.5C286.537 64.7511 287.972 63.3333 289.721 63.3333C291.47 63.3333 292.904 64.7511 292.904 66.5C292.904 68.2489 291.47 69.6667 289.721 69.6667C287.972 69.6667 286.537 68.2489 286.537 66.5ZM286.537 91.8333C286.537 90.0844 287.972 88.6667 289.721 88.6667C291.47 88.6667 292.904 90.0844 292.904 91.8333C292.904 93.5822 291.47 95 289.721 95C287.972 95 286.537 93.5822 286.537 91.8333ZM286.537 79.1667C286.537 77.4178 287.972 76 289.721 76C291.47 76 292.904 77.4178 292.904 79.1667C292.904 80.9156 291.47 82.3333 289.721 82.3333C287.972 82.3333 286.537 80.9156 286.537 79.1667ZM286.537 104.5C286.537 102.751 287.972 101.333 289.721 101.333C291.47 101.333 292.904 102.751 292.904 104.5C292.904 106.249 291.47 107.667 289.721 107.667C287.972 107.667 286.537 106.249 286.537 104.5ZM299.272 53.8333C299.272 52.0844 300.707 50.6667 302.456 50.6667C304.205 50.6667 305.639 52.0844 305.639 53.8333C305.639 55.5822 304.205 57 302.456 57C300.707 57 299.272 55.5822 299.272 53.8333ZM299.272 66.5C299.272 64.7511 300.707 63.3333 302.456 63.3333C304.205 63.3333 305.639 64.7511 305.639 66.5C305.639 68.2489 304.205 69.6667 302.456 69.6667C300.707 69.6667 299.272 68.2489 299.272 66.5ZM299.272 91.8333C299.272 90.0844 300.707 88.6667 302.456 88.6667C304.205 88.6667 305.639 90.0844 305.639 91.8333C305.639 93.5822 304.205 95 302.456 95C300.707 95 299.272 93.5822 299.272 91.8333ZM299.272 79.1667C299.272 77.4178 300.707 76 302.456 76C304.205 76 305.639 77.4178 305.639 79.1667C305.639 80.9156 304.205 82.3333 302.456 82.3333C300.707 82.3333 299.272 80.9156 299.272 79.1667ZM312.007 53.8333C312.007 52.0844 313.442 50.6667 315.191 50.6667C316.94 50.6667 318.374 52.0844 318.374 53.8333C318.374 55.5822 316.94 57 315.191 57C313.442 57 312.007 55.5822 312.007 53.8333ZM312.007 66.5C312.007 64.7511 313.442 63.3333 315.191 63.3333C316.94 63.3333 318.374 64.7511 318.374 66.5C318.374 68.2489 316.94 69.6667 315.191 69.6667C313.442 69.6667 312.007 68.2489 312.007 66.5ZM312.007 91.8333C312.007 90.0844 313.442 88.6667 315.191 88.6667C316.94 88.6667 318.374 90.0844 318.374 91.8333C318.374 93.5822 316.94 95 315.191 95C313.442 95 312.007 93.5822 312.007 91.8333ZM312.007 79.1667C312.007 77.4178 313.442 76 315.191 76C316.94 76 318.374 77.4178 318.374 79.1667C318.374 80.9156 316.94 82.3333 315.191 82.3333C313.442 82.3333 312.007 80.9156 312.007 79.1667ZM324.742 53.8333C324.742 52.0844 326.177 50.6667 327.926 50.6667C329.675 50.6667 331.109 52.0844 331.109 53.8333C331.109 55.5822 329.675 57 327.926 57C326.177 57 324.742 55.5822 324.742 53.8333ZM324.742 66.5C324.742 64.7511 326.177 63.3333 327.926 63.3333C329.675 63.3333 331.109 64.7511 331.109 66.5C331.109 68.2489 329.675 69.6667 327.926 69.6667C326.177 69.6667 324.742 68.2489 324.742 66.5ZM324.742 91.8333C324.742 90.0844 326.177 88.6667 327.926 88.6667C329.675 88.6667 331.109 90.0844 331.109 91.8333C331.109 93.5822 329.675 95 327.926 95C326.177 95 324.742 93.5822 324.742 91.8333ZM337.477 104.5C337.477 102.751 338.912 101.333 340.661 101.333C342.41 101.333 343.844 102.751 343.844 104.5C343.844 106.249 342.41 107.667 340.661 107.667C338.912 107.667 337.477 106.249 337.477 104.5ZM324.742 79.1667C324.742 77.4178 326.177 76 327.926 76C329.675 76 331.109 77.4178 331.109 79.1667C331.109 80.9156 329.675 82.3333 327.926 82.3333C326.177 82.3333 324.742 80.9156 324.742 79.1667ZM337.477 53.8333C337.477 52.0844 338.912 50.6667 340.661 50.6667C342.41 50.6667 343.844 52.0844 343.844 53.8333C343.844 55.5822 342.41 57 340.661 57C338.912 57 337.477 55.5822 337.477 53.8333ZM337.477 66.5C337.477 64.7511 338.912 63.3333 340.661 63.3333C342.41 63.3333 343.844 64.7511 343.844 66.5C343.844 68.2489 342.41 69.6667 340.661 69.6667C338.912 69.6667 337.477 68.2489 337.477 66.5ZM337.477 91.8333C337.477 90.0844 338.912 88.6667 340.661 88.6667C342.41 88.6667 343.844 90.0844 343.844 91.8333C343.844 93.5822 342.41 95 340.661 95C338.912 95 337.477 93.5822 337.477 91.8333ZM337.477 79.1667C337.477 77.4178 338.912 76 340.661 76C342.41 76 343.844 77.4178 343.844 79.1667C343.844 80.9156 342.41 82.3333 340.661 82.3333C338.912 82.3333 337.477 80.9156 337.477 79.1667ZM350.212 53.8333C350.212 52.0844 351.647 50.6667 353.396 50.6667C355.145 50.6667 356.579 52.0844 356.579 53.8333C356.579 55.5822 355.145 57 353.396 57C351.647 57 350.212 55.5822 350.212 53.8333ZM350.212 66.5C350.212 64.7511 351.647 63.3333 353.396 63.3333C355.145 63.3333 356.579 64.7511 356.579 66.5C356.579 68.2489 355.145 69.6667 353.396 69.6667C351.647 69.6667 350.212 68.2489 350.212 66.5ZM350.212 91.8333C350.212 90.0844 351.647 88.6667 353.396 88.6667C355.145 88.6667 356.579 90.0844 356.579 91.8333C356.579 93.5822 355.145 95 353.396 95C351.647 95 350.212 93.5822 350.212 91.8333ZM350.212 79.1667C350.212 77.4178 351.647 76 353.396 76C355.145 76 356.579 77.4178 356.579 79.1667C356.579 80.9156 355.145 82.3333 353.396 82.3333C351.647 82.3333 350.212 80.9156 350.212 79.1667ZM362.947 53.8333C362.947 52.0844 364.382 50.6667 366.131 50.6667C367.879 50.6667 369.314 52.0844 369.314 53.8333C369.314 55.5822 367.879 57 366.131 57C364.382 57 362.947 55.5822 362.947 53.8333ZM362.947 66.5C362.947 64.7511 364.382 63.3333 366.131 63.3333C367.879 63.3333 369.314 64.7511 369.314 66.5C369.314 68.2489 367.879 69.6667 366.131 69.6667C364.382 69.6667 362.947 68.2489 362.947 66.5ZM362.947 91.8333C362.947 90.0844 364.382 88.6667 366.131 88.6667C367.879 88.6667 369.314 90.0844 369.314 91.8333C369.314 93.5822 367.879 95 366.131 95C364.382 95 362.947 93.5822 362.947 91.8333ZM362.947 79.1667C362.947 77.4178 364.382 76 366.131 76C367.879 76 369.314 77.4178 369.314 79.1667C369.314 80.9156 367.879 82.3333 366.131 82.3333C364.382 82.3333 362.947 80.9156 362.947 79.1667ZM375.682 53.8333C375.682 52.0844 377.117 50.6667 378.866 50.6667C380.614 50.6667 382.049 52.0844 382.049 53.8333C382.049 55.5822 380.614 57 378.866 57C377.117 57 375.682 55.5822 375.682 53.8333ZM375.682 66.5C375.682 64.7511 377.117 63.3333 378.866 63.3333C380.614 63.3333 382.049 64.7511 382.049 66.5C382.049 68.2489 380.614 69.6667 378.866 69.6667C377.117 69.6667 375.682 68.2489 375.682 66.5ZM375.682 91.8333C375.682 90.0844 377.117 88.6667 378.866 88.6667C380.614 88.6667 382.049 90.0844 382.049 91.8333C382.049 93.5822 380.614 95 378.866 95C377.117 95 375.682 93.5822 375.682 91.8333ZM375.682 79.1667C375.682 77.4178 377.117 76 378.866 76C380.614 76 382.049 77.4178 382.049 79.1667C382.049 80.9156 380.614 82.3333 378.866 82.3333C377.117 82.3333 375.682 80.9156 375.682 79.1667ZM388.417 53.8333C388.417 52.0844 389.852 50.6667 391.601 50.6667C393.349 50.6667 394.784 52.0844 394.784 53.8333C394.784 55.5822 393.349 57 391.601 57C389.852 57 388.417 55.5822 388.417 53.8333ZM388.417 66.5C388.417 64.7511 389.852 63.3333 391.601 63.3333C393.349 63.3333 394.784 64.7511 394.784 66.5C394.784 68.2489 393.349 69.6667 391.601 69.6667C389.852 69.6667 388.417 68.2489 388.417 66.5ZM388.417 91.8333C388.417 90.0844 389.852 88.6667 391.601 88.6667C393.349 88.6667 394.784 90.0844 394.784 91.8333C394.784 93.5822 393.349 95 391.601 95C389.852 95 388.417 93.5822 388.417 91.8333ZM388.417 79.1667C388.417 77.4178 389.852 76 391.601 76C393.349 76 394.784 77.4178 394.784 79.1667C394.784 80.9156 393.349 82.3333 391.601 82.3333C389.852 82.3333 388.417 80.9156 388.417 79.1667ZM401.152 53.8333C401.152 52.0844 402.587 50.6667 404.336 50.6667C406.084 50.6667 407.519 52.0844 407.519 53.8333C407.519 55.5822 406.084 57 404.336 57C402.587 57 401.152 55.5822 401.152 53.8333ZM401.152 66.5C401.152 64.7511 402.587 63.3333 404.336 63.3333C406.084 63.3333 407.519 64.7511 407.519 66.5C407.519 68.2489 406.084 69.6667 404.336 69.6667C402.587 69.6667 401.152 68.2489 401.152 66.5ZM401.152 91.8333C401.152 90.0844 402.587 88.6667 404.336 88.6667C406.084 88.6667 407.519 90.0844 407.519 91.8333C407.519 93.5822 406.084 95 404.336 95C402.587 95 401.152 93.5822 401.152 91.8333ZM401.152 79.1667C401.152 77.4178 402.587 76 404.336 76C406.084 76 407.519 77.4178 407.519 79.1667C407.519 80.9156 406.084 82.3333 404.336 82.3333C402.587 82.3333 401.152 80.9156 401.152 79.1667ZM413.887 53.8333C413.887 52.0844 415.322 50.6667 417.071 50.6667C418.819 50.6667 420.254 52.0844 420.254 53.8333C420.254 55.5822 418.819 57 417.071 57C415.322 57 413.887 55.5822 413.887 53.8333ZM413.887 66.5C413.887 64.7511 415.322 63.3333 417.071 63.3333C418.819 63.3333 420.254 64.7511 420.254 66.5C420.254 68.2489 418.819 69.6667 417.071 69.6667C415.322 69.6667 413.887 68.2489 413.887 66.5ZM413.887 91.8333C413.887 90.0844 415.322 88.6667 417.071 88.6667C418.819 88.6667 420.254 90.0844 420.254 91.8333C420.254 93.5822 418.819 95 417.071 95C415.322 95 413.887 93.5822 413.887 91.8333ZM413.887 79.1667C413.887 77.4178 415.322 76 417.071 76C418.819 76 420.254 77.4178 420.254 79.1667C420.254 80.9156 418.819 82.3333 417.071 82.3333C415.322 82.3333 413.887 80.9156 413.887 79.1667ZM426.622 53.8333C426.622 52.0844 428.057 50.6667 429.805 50.6667C431.554 50.6667 432.989 52.0844 432.989 53.8333C432.989 55.5822 431.554 57 429.805 57C428.057 57 426.622 55.5822 426.622 53.8333ZM426.622 66.5C426.622 64.7511 428.057 63.3333 429.805 63.3333C431.554 63.3333 432.989 64.7511 432.989 66.5C432.989 68.2489 431.554 69.6667 429.805 69.6667C428.057 69.6667 426.622 68.2489 426.622 66.5ZM426.622 91.8333C426.622 90.0844 428.057 88.6667 429.805 88.6667C431.554 88.6667 432.989 90.0844 432.989 91.8333C432.989 93.5822 431.554 95 429.805 95C428.057 95 426.622 93.5822 426.622 91.8333ZM426.622 79.1667C426.622 77.4178 428.057 76 429.805 76C431.554 76 432.989 77.4178 432.989 79.1667C432.989 80.9156 431.554 82.3333 429.805 82.3333C428.057 82.3333 426.622 80.9156 426.622 79.1667ZM439.357 53.8333C439.357 52.0844 440.792 50.6667 442.54 50.6667C444.289 50.6667 445.724 52.0844 445.724 53.8333C445.724 55.5822 444.289 57 442.54 57C440.792 57 439.357 55.5822 439.357 53.8333ZM439.357 66.5C439.357 64.7511 440.792 63.3333 442.54 63.3333C444.289 63.3333 445.724 64.7511 445.724 66.5C445.724 68.2489 444.289 69.6667 442.54 69.6667C440.792 69.6667 439.357 68.2489 439.357 66.5ZM439.357 91.8333C439.357 90.0844 440.792 88.6667 442.54 88.6667C444.289 88.6667 445.724 90.0844 445.724 91.8333C445.724 93.5822 444.289 95 442.54 95C440.792 95 439.357 93.5822 439.357 91.8333ZM324.742 129.833C324.742 128.084 326.177 126.667 327.926 126.667C329.675 126.667 331.109 128.084 331.109 129.833C331.109 131.582 329.675 133 327.926 133C326.177 133 324.742 131.582 324.742 129.833ZM337.477 129.833C337.477 128.084 338.912 126.667 340.661 126.667C342.41 126.667 343.844 128.084 343.844 129.833C343.844 131.582 342.41 133 340.661 133C338.912 133 337.477 131.582 337.477 129.833ZM350.212 129.833C350.212 128.084 351.647 126.667 353.396 126.667C355.145 126.667 356.579 128.084 356.579 129.833C356.579 131.582 355.145 133 353.396 133C351.647 133 350.212 131.582 350.212 129.833ZM362.947 129.833C362.947 128.084 364.382 126.667 366.131 126.667C367.879 126.667 369.314 128.084 369.314 129.833C369.314 131.582 367.879 133 366.131 133C364.382 133 362.947 131.582 362.947 129.833ZM375.682 129.833C375.682 128.084 377.117 126.667 378.866 126.667C380.614 126.667 382.049 128.084 382.049 129.833C382.049 131.582 380.614 133 378.866 133C377.117 133 375.682 131.582 375.682 129.833ZM388.417 129.833C388.417 128.084 389.852 126.667 391.601 126.667C393.349 126.667 394.784 128.084 394.784 129.833C394.784 131.582 393.349 133 391.601 133C389.852 133 388.417 131.582 388.417 129.833ZM401.152 129.833C401.152 128.084 402.587 126.667 404.336 126.667C406.084 126.667 407.519 128.084 407.519 129.833C407.519 131.582 406.084 133 404.336 133C402.587 133 401.152 131.582 401.152 129.833ZM413.887 129.833C413.887 128.084 415.322 126.667 417.071 126.667C418.819 126.667 420.254 128.084 420.254 129.833C420.254 131.582 418.819 133 417.071 133C415.322 133 413.887 131.582 413.887 129.833ZM426.622 129.833C426.622 128.084 428.057 126.667 429.805 126.667C431.554 126.667 432.989 128.084 432.989 129.833C432.989 131.582 431.554 133 429.805 133C428.057 133 426.622 131.582 426.622 129.833ZM439.357 129.833C439.357 128.084 440.792 126.667 442.54 126.667C444.289 126.667 445.724 128.084 445.724 129.833C445.724 131.582 444.289 133 442.54 133C440.792 133 439.357 131.582 439.357 129.833ZM337.477 142.5C337.477 140.751 338.912 139.333 340.661 139.333C342.41 139.333 343.844 140.751 343.844 142.5C343.844 144.249 342.41 145.667 340.661 145.667C338.912 145.667 337.477 144.249 337.477 142.5ZM350.212 142.5C350.212 140.751 351.647 139.333 353.396 139.333C355.145 139.333 356.579 140.751 356.579 142.5C356.579 144.249 355.145 145.667 353.396 145.667C351.647 145.667 350.212 144.249 350.212 142.5ZM362.947 142.5C362.947 140.751 364.382 139.333 366.131 139.333C367.879 139.333 369.314 140.751 369.314 142.5C369.314 144.249 367.879 145.667 366.131 145.667C364.382 145.667 362.947 144.249 362.947 142.5ZM375.682 142.5C375.682 140.751 377.117 139.333 378.866 139.333C380.614 139.333 382.049 140.751 382.049 142.5C382.049 144.249 380.614 145.667 378.866 145.667C377.117 145.667 375.682 144.249 375.682 142.5ZM388.417 142.5C388.417 140.751 389.852 139.333 391.601 139.333C393.349 139.333 394.784 140.751 394.784 142.5C394.784 144.249 393.349 145.667 391.601 145.667C389.852 145.667 388.417 144.249 388.417 142.5ZM388.417 155.167C388.417 153.418 389.852 152 391.601 152C393.349 152 394.784 153.418 394.784 155.167C394.784 156.916 393.349 158.333 391.601 158.333C389.852 158.333 388.417 156.916 388.417 155.167ZM388.417 167.833C388.417 166.084 389.852 164.667 391.601 164.667C393.349 164.667 394.784 166.084 394.784 167.833C394.784 169.582 393.349 171 391.601 171C389.852 171 388.417 169.582 388.417 167.833ZM401.152 142.5C401.152 140.751 402.587 139.333 404.336 139.333C406.084 139.333 407.519 140.751 407.519 142.5C407.519 144.249 406.084 145.667 404.336 145.667C402.587 145.667 401.152 144.249 401.152 142.5ZM413.887 142.5C413.887 140.751 415.322 139.333 417.071 139.333C418.819 139.333 420.254 140.751 420.254 142.5C420.254 144.249 418.819 145.667 417.071 145.667C415.322 145.667 413.887 144.249 413.887 142.5ZM426.622 142.5C426.622 140.751 428.057 139.333 429.805 139.333C431.554 139.333 432.989 140.751 432.989 142.5C432.989 144.249 431.554 145.667 429.805 145.667C428.057 145.667 426.622 144.249 426.622 142.5ZM413.887 155.167C413.887 153.418 415.322 152 417.071 152C418.819 152 420.254 153.418 420.254 155.167C420.254 156.916 418.819 158.333 417.071 158.333C415.322 158.333 413.887 156.916 413.887 155.167ZM426.622 155.167C426.622 153.418 428.057 152 429.805 152C431.554 152 432.989 153.418 432.989 155.167C432.989 156.916 431.554 158.333 429.805 158.333C428.057 158.333 426.622 156.916 426.622 155.167ZM426.622 167.833C426.622 166.084 428.057 164.667 429.805 164.667C431.554 164.667 432.989 166.084 432.989 167.833C432.989 169.582 431.554 171 429.805 171C428.057 171 426.622 169.582 426.622 167.833ZM426.622 180.5C426.622 178.751 428.057 177.333 429.805 177.333C431.554 177.333 432.989 178.751 432.989 180.5C432.989 182.249 431.554 183.667 429.805 183.667C428.057 183.667 426.622 182.249 426.622 180.5ZM439.357 180.5C439.357 178.751 440.792 177.333 442.54 177.333C444.289 177.333 445.724 178.751 445.724 180.5C445.724 182.249 444.289 183.667 442.54 183.667C440.792 183.667 439.357 182.249 439.357 180.5ZM452.092 180.5C452.092 178.751 453.527 177.333 455.275 177.333C457.024 177.333 458.459 178.751 458.459 180.5C458.459 182.249 457.024 183.667 455.275 183.667C453.527 183.667 452.092 182.249 452.092 180.5ZM439.357 193.167C439.357 191.418 440.792 190 442.54 190C444.289 190 445.724 191.418 445.724 193.167C445.724 194.916 444.289 196.333 442.54 196.333C440.792 196.333 439.357 194.916 439.357 193.167ZM452.092 193.167C452.092 191.418 453.527 190 455.275 190C457.024 190 458.459 191.418 458.459 193.167C458.459 194.916 457.024 196.333 455.275 196.333C453.527 196.333 452.092 194.916 452.092 193.167ZM483.929 193.167C483.929 191.418 485.364 190 487.113 190C488.862 190 490.297 191.418 490.297 193.167C490.297 194.916 488.862 196.333 487.113 196.333C485.364 196.333 483.929 194.916 483.929 193.167ZM496.664 193.167C496.664 191.418 498.099 190 499.848 190C501.597 190 503.032 191.418 503.032 193.167C503.032 194.916 501.597 196.333 499.848 196.333C498.099 196.333 496.664 194.916 496.664 193.167ZM439.357 142.5C439.357 140.751 440.792 139.333 442.54 139.333C444.289 139.333 445.724 140.751 445.724 142.5C445.724 144.249 444.289 145.667 442.54 145.667C440.792 145.667 439.357 144.249 439.357 142.5ZM439.357 79.1667C439.357 77.4178 440.792 76 442.54 76C444.289 76 445.724 77.4178 445.724 79.1667C445.724 80.9156 444.289 82.3333 442.54 82.3333C440.792 82.3333 439.357 80.9156 439.357 79.1667ZM452.092 53.8333C452.092 52.0844 453.527 50.6667 455.275 50.6667C457.024 50.6667 458.459 52.0844 458.459 53.8333C458.459 55.5822 457.024 57 455.275 57C453.527 57 452.092 55.5822 452.092 53.8333ZM452.092 66.5C452.092 64.7511 453.527 63.3333 455.275 63.3333C457.024 63.3333 458.459 64.7511 458.459 66.5C458.459 68.2489 457.024 69.6667 455.275 69.6667C453.527 69.6667 452.092 68.2489 452.092 66.5ZM452.092 91.8333C452.092 90.0844 453.527 88.6667 455.275 88.6667C457.024 88.6667 458.459 90.0844 458.459 91.8333C458.459 93.5822 457.024 95 455.275 95C453.527 95 452.092 93.5822 452.092 91.8333ZM452.092 79.1667C452.092 77.4178 453.527 76 455.275 76C457.024 76 458.459 77.4178 458.459 79.1667C458.459 80.9156 457.024 82.3333 455.275 82.3333C453.527 82.3333 452.092 80.9156 452.092 79.1667ZM464.827 53.8333C464.827 52.0844 466.262 50.6667 468.01 50.6667C469.759 50.6667 471.194 52.0844 471.194 53.8333C471.194 55.5822 469.759 57 468.01 57C466.262 57 464.827 55.5822 464.827 53.8333ZM464.827 66.5C464.827 64.7511 466.262 63.3333 468.01 63.3333C469.759 63.3333 471.194 64.7511 471.194 66.5C471.194 68.2489 469.759 69.6667 468.01 69.6667C466.262 69.6667 464.827 68.2489 464.827 66.5ZM464.827 91.8333C464.827 90.0844 466.262 88.6667 468.01 88.6667C469.759 88.6667 471.194 90.0844 471.194 91.8333C471.194 93.5822 469.759 95 468.01 95C466.262 95 464.827 93.5822 464.827 91.8333ZM362.947 104.5C362.947 102.751 364.382 101.333 366.131 101.333C367.879 101.333 369.314 102.751 369.314 104.5C369.314 106.249 367.879 107.667 366.131 107.667C364.382 107.667 362.947 106.249 362.947 104.5ZM375.682 104.5C375.682 102.751 377.117 101.333 378.866 101.333C380.614 101.333 382.049 102.751 382.049 104.5C382.049 106.249 380.614 107.667 378.866 107.667C377.117 107.667 375.682 106.249 375.682 104.5ZM388.417 104.5C388.417 102.751 389.852 101.333 391.601 101.333C393.349 101.333 394.784 102.751 394.784 104.5C394.784 106.249 393.349 107.667 391.601 107.667C389.852 107.667 388.417 106.249 388.417 104.5ZM401.152 104.5C401.152 102.751 402.587 101.333 404.336 101.333C406.084 101.333 407.519 102.751 407.519 104.5C407.519 106.249 406.084 107.667 404.336 107.667C402.587 107.667 401.152 106.249 401.152 104.5ZM413.887 104.5C413.887 102.751 415.322 101.333 417.071 101.333C418.819 101.333 420.254 102.751 420.254 104.5C420.254 106.249 418.819 107.667 417.071 107.667C415.322 107.667 413.887 106.249 413.887 104.5ZM426.622 104.5C426.622 102.751 428.057 101.333 429.805 101.333C431.554 101.333 432.989 102.751 432.989 104.5C432.989 106.249 431.554 107.667 429.805 107.667C428.057 107.667 426.622 106.249 426.622 104.5ZM439.357 104.5C439.357 102.751 440.792 101.333 442.54 101.333C444.289 101.333 445.724 102.751 445.724 104.5C445.724 106.249 444.289 107.667 442.54 107.667C440.792 107.667 439.357 106.249 439.357 104.5ZM452.092 104.5C452.092 102.751 453.527 101.333 455.275 101.333C457.024 101.333 458.459 102.751 458.459 104.5C458.459 106.249 457.024 107.667 455.275 107.667C453.527 107.667 452.092 106.249 452.092 104.5ZM464.827 104.5C464.827 102.751 466.261 101.333 468.01 101.333C469.759 101.333 471.194 102.751 471.194 104.5C471.194 106.249 469.759 107.667 468.01 107.667C466.261 107.667 464.827 106.249 464.827 104.5ZM439.357 218.5C439.357 216.751 440.792 215.333 442.54 215.333C444.289 215.333 445.724 216.751 445.724 218.5C445.724 220.249 444.289 221.667 442.54 221.667C440.792 221.667 439.357 220.249 439.357 218.5ZM452.092 218.5C452.092 216.751 453.527 215.333 455.275 215.333C457.024 215.333 458.459 216.751 458.459 218.5C458.459 220.249 457.024 221.667 455.275 221.667C453.527 221.667 452.092 220.249 452.092 218.5ZM464.827 218.5C464.827 216.751 466.261 215.333 468.01 215.333C469.759 215.333 471.194 216.751 471.194 218.5C471.194 220.249 469.759 221.667 468.01 221.667C466.261 221.667 464.827 220.249 464.827 218.5ZM477.562 218.5C477.562 216.751 478.996 215.333 480.745 215.333C482.494 215.333 483.929 216.751 483.929 218.5C483.929 220.249 482.494 221.667 480.745 221.667C478.996 221.667 477.562 220.249 477.562 218.5ZM439.357 231.167C439.357 229.418 440.792 228 442.54 228C444.289 228 445.724 229.418 445.724 231.167C445.724 232.916 444.289 234.333 442.54 234.333C440.792 234.333 439.357 232.916 439.357 231.167ZM452.092 231.167C452.092 229.418 453.527 228 455.275 228C457.024 228 458.459 229.418 458.459 231.167C458.459 232.916 457.024 234.333 455.275 234.333C453.527 234.333 452.092 232.916 452.092 231.167ZM464.827 231.167C464.827 229.418 466.262 228 468.01 228C469.759 228 471.194 229.418 471.194 231.167C471.194 232.916 469.759 234.333 468.01 234.333C466.262 234.333 464.827 232.916 464.827 231.167ZM477.562 231.167C477.562 229.418 478.996 228 480.745 228C482.494 228 483.929 229.418 483.929 231.167C483.929 232.916 482.494 234.333 480.745 234.333C478.996 234.333 477.562 232.916 477.562 231.167ZM490.297 218.5C490.297 216.751 491.731 215.333 493.48 215.333C495.229 215.333 496.664 216.751 496.664 218.5C496.664 220.249 495.229 221.667 493.48 221.667C491.731 221.667 490.297 220.249 490.297 218.5ZM490.297 231.167C490.297 229.418 491.731 228 493.48 228C495.229 228 496.664 229.418 496.664 231.167C496.664 232.916 495.229 234.333 493.48 234.333C491.731 234.333 490.297 232.916 490.297 231.167ZM464.827 243.833C464.827 242.084 466.261 240.667 468.01 240.667C469.759 240.667 471.194 242.084 471.194 243.833C471.194 245.582 469.759 247 468.01 247C466.261 247 464.827 245.582 464.827 243.833ZM477.562 243.833C477.562 242.084 478.996 240.667 480.745 240.667C482.494 240.667 483.929 242.084 483.929 243.833C483.929 245.582 482.494 247 480.745 247C478.996 247 477.562 245.582 477.562 243.833ZM490.297 243.833C490.297 242.084 491.731 240.667 493.48 240.667C495.229 240.667 496.664 242.084 496.664 243.833C496.664 245.582 495.229 247 493.48 247C491.731 247 490.297 245.582 490.297 243.833ZM503.032 243.833C503.032 242.084 504.466 240.667 506.215 240.667C507.964 240.667 509.399 242.084 509.399 243.833C509.399 245.582 507.964 247 506.215 247C504.466 247 503.032 245.582 503.032 243.833ZM528.502 243.833C528.502 242.084 529.936 240.667 531.685 240.667C533.434 240.667 534.869 242.084 534.869 243.833C534.869 245.582 533.434 247 531.685 247C529.936 247 528.502 245.582 528.502 243.833ZM528.502 256.5C528.502 254.751 529.936 253.333 531.685 253.333C533.434 253.333 534.869 254.751 534.869 256.5C534.869 258.249 533.434 259.667 531.685 259.667C529.936 259.667 528.502 258.249 528.502 256.5ZM362.947 117.167C362.947 115.418 364.382 114 366.131 114C367.879 114 369.314 115.418 369.314 117.167C369.314 118.916 367.879 120.333 366.131 120.333C364.382 120.333 362.947 118.916 362.947 117.167ZM375.682 117.167C375.682 115.418 377.117 114 378.866 114C380.614 114 382.049 115.418 382.049 117.167C382.049 118.916 380.614 120.333 378.866 120.333C377.117 120.333 375.682 118.916 375.682 117.167ZM388.417 117.167C388.417 115.418 389.852 114 391.601 114C393.349 114 394.784 115.418 394.784 117.167C394.784 118.916 393.349 120.333 391.601 120.333C389.852 120.333 388.417 118.916 388.417 117.167ZM401.152 117.167C401.152 115.418 402.587 114 404.336 114C406.084 114 407.519 115.418 407.519 117.167C407.519 118.916 406.084 120.333 404.336 120.333C402.587 120.333 401.152 118.916 401.152 117.167ZM413.887 117.167C413.887 115.418 415.322 114 417.071 114C418.819 114 420.254 115.418 420.254 117.167C420.254 118.916 418.819 120.333 417.071 120.333C415.322 120.333 413.887 118.916 413.887 117.167ZM426.622 117.167C426.622 115.418 428.057 114 429.805 114C431.554 114 432.989 115.418 432.989 117.167C432.989 118.916 431.554 120.333 429.805 120.333C428.057 120.333 426.622 118.916 426.622 117.167ZM439.357 117.167C439.357 115.418 440.792 114 442.54 114C444.289 114 445.724 115.418 445.724 117.167C445.724 118.916 444.289 120.333 442.54 120.333C440.792 120.333 439.357 118.916 439.357 117.167ZM452.092 117.167C452.092 115.418 453.527 114 455.275 114C457.024 114 458.459 115.418 458.459 117.167C458.459 118.916 457.024 120.333 455.275 120.333C453.527 120.333 452.092 118.916 452.092 117.167ZM464.827 79.1667C464.827 77.4178 466.261 76 468.01 76C469.759 76 471.194 77.4178 471.194 79.1667C471.194 80.9156 469.759 82.3333 468.01 82.3333C466.261 82.3333 464.827 80.9156 464.827 79.1667ZM477.562 53.8333C477.562 52.0844 478.996 50.6667 480.745 50.6667C482.494 50.6667 483.929 52.0844 483.929 53.8333C483.929 55.5822 482.494 57 480.745 57C478.996 57 477.562 55.5822 477.562 53.8333ZM477.562 66.5C477.562 64.7511 478.996 63.3333 480.745 63.3333C482.494 63.3333 483.929 64.7511 483.929 66.5C483.929 68.2489 482.494 69.6667 480.745 69.6667C478.996 69.6667 477.562 68.2489 477.562 66.5ZM477.562 91.8333C477.562 90.0844 478.996 88.6667 480.745 88.6667C482.494 88.6667 483.929 90.0844 483.929 91.8333C483.929 93.5822 482.494 95 480.745 95C478.996 95 477.562 93.5822 477.562 91.8333ZM477.562 79.1667C477.562 77.4178 478.996 76 480.745 76C482.494 76 483.929 77.4178 483.929 79.1667C483.929 80.9156 482.494 82.3333 480.745 82.3333C478.996 82.3333 477.562 80.9156 477.562 79.1667ZM490.297 53.8333C490.297 52.0844 491.731 50.6667 493.48 50.6667C495.229 50.6667 496.664 52.0844 496.664 53.8333C496.664 55.5822 495.229 57 493.48 57C491.731 57 490.297 55.5822 490.297 53.8333ZM350.212 41.1667C350.212 39.4178 351.647 38 353.396 38C355.145 38 356.579 39.4178 356.579 41.1667C356.579 42.9156 355.145 44.3333 353.396 44.3333C351.647 44.3333 350.212 42.9156 350.212 41.1667ZM362.947 41.1667C362.947 39.4178 364.382 38 366.131 38C367.879 38 369.314 39.4178 369.314 41.1667C369.314 42.9156 367.879 44.3333 366.131 44.3333C364.382 44.3333 362.947 42.9156 362.947 41.1667ZM350.212 28.5C350.212 26.7511 351.647 25.3333 353.396 25.3333C355.145 25.3333 356.579 26.7511 356.579 28.5C356.579 30.2489 355.145 31.6667 353.396 31.6667C351.647 31.6667 350.212 30.2489 350.212 28.5ZM362.947 28.5C362.947 26.7511 364.382 25.3333 366.131 25.3333C367.879 25.3333 369.314 26.7511 369.314 28.5C369.314 30.2489 367.879 31.6667 366.131 31.6667C364.382 31.6667 362.947 30.2489 362.947 28.5ZM375.682 41.1667C375.682 39.4178 377.117 38 378.866 38C380.614 38 382.049 39.4178 382.049 41.1667C382.049 42.9156 380.614 44.3333 378.866 44.3333C377.117 44.3333 375.682 42.9156 375.682 41.1667ZM388.417 41.1667C388.417 39.4178 389.852 38 391.601 38C393.349 38 394.784 39.4178 394.784 41.1667C394.784 42.9156 393.349 44.3333 391.601 44.3333C389.852 44.3333 388.417 42.9156 388.417 41.1667ZM401.152 41.1667C401.152 39.4178 402.587 38 404.336 38C406.084 38 407.519 39.4178 407.519 41.1667C407.519 42.9156 406.084 44.3333 404.336 44.3333C402.587 44.3333 401.152 42.9156 401.152 41.1667ZM413.887 41.1667C413.887 39.4178 415.322 38 417.071 38C418.819 38 420.254 39.4178 420.254 41.1667C420.254 42.9156 418.819 44.3333 417.071 44.3333C415.322 44.3333 413.887 42.9156 413.887 41.1667ZM426.622 41.1667C426.622 39.4178 428.057 38 429.805 38C431.554 38 432.989 39.4178 432.989 41.1667C432.989 42.9156 431.554 44.3333 429.805 44.3333C428.057 44.3333 426.622 42.9156 426.622 41.1667ZM401.152 28.5C401.152 26.7511 402.587 25.3333 404.336 25.3333C406.084 25.3333 407.519 26.7511 407.519 28.5C407.519 30.2489 406.084 31.6667 404.336 31.6667C402.587 31.6667 401.152 30.2489 401.152 28.5ZM413.887 28.5C413.887 26.7511 415.322 25.3333 417.071 25.3333C418.819 25.3333 420.254 26.7511 420.254 28.5C420.254 30.2489 418.819 31.6667 417.071 31.6667C415.322 31.6667 413.887 30.2489 413.887 28.5ZM413.887 15.8333C413.887 14.0844 415.322 12.6667 417.071 12.6667C418.819 12.6667 420.254 14.0844 420.254 15.8333C420.254 17.5822 418.819 19 417.071 19C415.322 19 413.887 17.5822 413.887 15.8333ZM426.622 28.5C426.622 26.7511 428.057 25.3333 429.805 25.3333C431.554 25.3333 432.989 26.7511 432.989 28.5C432.989 30.2489 431.554 31.6667 429.805 31.6667C428.057 31.6667 426.622 30.2489 426.622 28.5ZM439.357 41.1667C439.357 39.4178 440.792 38 442.54 38C444.289 38 445.724 39.4178 445.724 41.1667C445.724 42.9156 444.289 44.3333 442.54 44.3333C440.792 44.3333 439.357 42.9156 439.357 41.1667ZM452.092 41.1667C452.092 39.4178 453.527 38 455.275 38C457.024 38 458.459 39.4178 458.459 41.1667C458.459 42.9156 457.024 44.3333 455.275 44.3333C453.527 44.3333 452.092 42.9156 452.092 41.1667ZM464.827 41.1667C464.827 39.4178 466.261 38 468.01 38C469.759 38 471.194 39.4178 471.194 41.1667C471.194 42.9156 469.759 44.3333 468.01 44.3333C466.261 44.3333 464.827 42.9156 464.827 41.1667ZM477.562 41.1667C477.562 39.4178 478.996 38 480.745 38C482.494 38 483.929 39.4178 483.929 41.1667C483.929 42.9156 482.494 44.3333 480.745 44.3333C478.996 44.3333 477.562 42.9156 477.562 41.1667ZM490.297 41.1667C490.297 39.4178 491.731 38 493.48 38C495.229 38 496.664 39.4178 496.664 41.1667C496.664 42.9156 495.229 44.3333 493.48 44.3333C491.731 44.3333 490.297 42.9156 490.297 41.1667ZM490.297 28.5C490.297 26.7511 491.731 25.3333 493.48 25.3333C495.229 25.3333 496.664 26.7511 496.664 28.5C496.664 30.2489 495.229 31.6667 493.48 31.6667C491.731 31.6667 490.297 30.2489 490.297 28.5ZM490.297 66.5C490.297 64.7511 491.731 63.3333 493.48 63.3333C495.229 63.3333 496.664 64.7511 496.664 66.5C496.664 68.2489 495.229 69.6667 493.48 69.6667C491.731 69.6667 490.297 68.2489 490.297 66.5ZM503.032 53.8333C503.032 52.0844 504.466 50.6667 506.215 50.6667C507.964 50.6667 509.399 52.0844 509.399 53.8333C509.399 55.5822 507.964 57 506.215 57C504.466 57 503.032 55.5822 503.032 53.8333ZM503.032 66.5C503.032 64.7511 504.466 63.3333 506.215 63.3333C507.964 63.3333 509.399 64.7511 509.399 66.5C509.399 68.2489 507.964 69.6667 506.215 69.6667C504.466 69.6667 503.032 68.2489 503.032 66.5ZM515.767 53.8333C515.767 52.0844 517.201 50.6667 518.95 50.6667C520.699 50.6667 522.134 52.0844 522.134 53.8333C522.134 55.5822 520.699 57 518.95 57C517.201 57 515.767 55.5822 515.767 53.8333ZM515.767 66.5C515.767 64.7511 517.201 63.3333 518.95 63.3333C520.699 63.3333 522.134 64.7511 522.134 66.5C522.134 68.2489 520.699 69.6667 518.95 69.6667C517.201 69.6667 515.767 68.2489 515.767 66.5ZM528.502 53.8333C528.502 52.0844 529.936 50.6667 531.685 50.6667C533.434 50.6667 534.869 52.0844 534.869 53.8333C534.869 55.5822 533.434 57 531.685 57C529.936 57 528.502 55.5822 528.502 53.8333ZM541.237 53.8333C541.237 52.0844 542.671 50.6667 544.42 50.6667C546.169 50.6667 547.604 52.0844 547.604 53.8333C547.604 55.5822 546.169 57 544.42 57C542.671 57 541.237 55.5822 541.237 53.8333ZM553.971 53.8333C553.971 52.0844 555.406 50.6667 557.155 50.6667C558.904 50.6667 560.339 52.0844 560.339 53.8333C560.339 55.5822 558.904 57 557.155 57C555.406 57 553.971 55.5822 553.971 53.8333ZM528.502 66.5C528.502 64.7511 529.936 63.3333 531.685 63.3333C533.434 63.3333 534.869 64.7511 534.869 66.5C534.869 68.2489 533.434 69.6667 531.685 69.6667C529.936 69.6667 528.502 68.2489 528.502 66.5ZM515.767 79.1667C515.767 77.4178 517.201 76 518.95 76C520.699 76 522.134 77.4178 522.134 79.1667C522.134 80.9156 520.699 82.3333 518.95 82.3333C517.201 82.3333 515.767 80.9156 515.767 79.1667ZM299.272 104.5C299.272 102.751 300.707 101.333 302.456 101.333C304.205 101.333 305.639 102.751 305.639 104.5C305.639 106.249 304.205 107.667 302.456 107.667C300.707 107.667 299.272 106.249 299.272 104.5ZM312.007 117.167C312.007 115.418 313.442 114 315.191 114C316.94 114 318.374 115.418 318.374 117.167C318.374 118.916 316.94 120.333 315.191 120.333C313.442 120.333 312.007 118.916 312.007 117.167ZM324.742 117.167C324.742 115.418 326.177 114 327.926 114C329.675 114 331.109 115.418 331.109 117.167C331.109 118.916 329.675 120.333 327.926 120.333C326.177 120.333 324.742 118.916 324.742 117.167ZM261.067 104.5C261.067 102.751 262.502 101.333 264.251 101.333C266 101.333 267.435 102.751 267.435 104.5C267.435 106.249 266 107.667 264.251 107.667C262.502 107.667 261.067 106.249 261.067 104.5ZM261.067 79.1667C261.067 77.4178 262.502 76 264.251 76C266 76 267.435 77.4178 267.435 79.1667C267.435 80.9156 266 82.3333 264.251 82.3333C262.502 82.3333 261.067 80.9156 261.067 79.1667Z" fill="#9497AA"/>
<rect x="323.659" y="87.9782" width="7.44046" height="7.43478" rx="3.71739" fill="#FF0000"/>
<rect x="299.099" y="75.5869" width="7.44046" height="7.43478" rx="3.71739" fill="#FF0000"/>
<rect x="337.061" y="126.391" width="7.44046" height="7.43478" rx="3.71739" fill="#FF0000"/>
<rect x="164.93" y="189.587" width="7.44046" height="7.43478" rx="3.71739" fill="#FF0000"/>
<rect x="113.847" y="100.609" width="7.44046" height="7.43478" rx="3.71739" fill="#FF0000"/>
<rect x="426.587" y="113.761" width="7.44046" height="7.43478" rx="3.71739" fill="#FF0000"/>
<rect x="311.259" y="138.783" width="7.44046" height="7.43478" rx="3.71739" fill="#FF0000"/>
<rect x="375.744" y="138.783" width="7.44046" height="7.43478" rx="3.71739" fill="#FF0000"/>
<rect x="299.131" y="100.914" width="7.44046" height="7.43478" rx="3.71739" fill="#FF0000"/>
<rect x="387.904" y="163.804" width="7.44046" height="7.43478" rx="3.71739" fill="#FF0000"/>
<rect x="337.061" y="214.609" width="7.44046" height="7.43478" rx="3.71739" fill="#FF0000"/>
<rect x="400.545" y="62.1956" width="7.44046" height="7.43478" rx="3.71739" fill="#FF0000"/>
<rect x="349.701" y="138.783" width="7.44046" height="7.43478" rx="3.71739" fill="#FF0000"/>
<rect x="273.057" y="87.9783" width="7.44046" height="7.43478" rx="3.71739" fill="#FF0000"/>
<rect x="323.659" y="62.1956" width="7.44046" height="7.43478" rx="3.71739" fill="#FF0000"/>
</svg>
