<svg width="160" height="52" viewBox="0 0 160 52" fill="none" xmlns="http://www.w3.org/2000/svg">
<path fill-rule="evenodd" clip-rule="evenodd" d="M67.8017 34.154H69.2306V21.0576C69.2306 19.8903 68.8694 18.9357 68.0996 18.259C67.3472 17.567 66.2597 17.2578 64.9146 17.2578C63.5671 17.2578 62.4782 17.5681 61.7257 18.2626C60.989 18.9412 60.6469 19.8949 60.6469 21.0576V22.8049H63.181V20.961C63.181 20.4327 63.3329 20.1073 63.5721 19.9034C63.8241 19.6888 64.2466 19.5451 64.9146 19.5451C65.5862 19.5451 66.0191 19.6949 66.2844 19.9251C66.5468 20.1529 66.6965 20.4786 66.6965 20.961V24.5019H64.3096C63.0863 24.5019 62.091 24.7985 61.4034 25.4657C60.7135 26.135 60.405 27.1072 60.405 28.3017V30.7164C60.405 31.9109 60.7135 32.8831 61.4034 33.5524C62.091 34.2196 63.0863 34.5162 64.3096 34.5162C65.0469 34.5162 65.7286 34.3266 66.3452 33.9466L66.349 33.9442L66.3527 33.9418C66.7331 33.6962 67.0677 33.4013 67.3558 33.0586L67.8017 34.154ZM64.3096 26.7892H66.6965V30.2917C66.6698 30.6506 66.4495 31.0752 65.9156 31.5643C65.4004 32.0204 64.8684 32.2289 64.3096 32.2289C63.685 32.2289 63.3813 32.0716 63.2403 31.887C63.0577 31.6479 62.9391 31.2753 62.9391 30.7164V28.3017C62.9391 27.7427 63.0577 27.3702 63.2403 27.1311C63.3813 26.9465 63.685 26.7892 64.3096 26.7892Z" fill="#141211"/>
<path d="M72.988 34.154H75.5221V23.6802L80.0774 34.154H82.467V17.62H79.9329V28.0938L75.3776 17.62H72.988V34.154Z" fill="#141211"/>
<path fill-rule="evenodd" clip-rule="evenodd" d="M86.4577 17.62V34.154H90.7737C92.1043 34.154 93.1826 33.8522 93.9343 33.1771L93.9365 33.1752L93.9386 33.1732C94.689 32.4806 95.0413 31.5208 95.0413 30.3542V21.4198C95.0413 20.2649 94.678 19.3136 93.9124 18.6231C93.1617 17.9313 92.0913 17.62 90.7737 17.62H86.4577ZM92.5072 21.4198V30.3542C92.5072 30.9213 92.3513 31.2731 92.1081 31.4912C91.8564 31.717 91.4372 31.8667 90.7737 31.8667H88.9918V19.9073H90.7737C91.4027 19.9073 91.8192 20.0602 92.0875 20.3047C92.3526 20.5463 92.5072 20.8979 92.5072 21.4198Z" fill="#141211"/>
<path d="M106.302 28.2447H103.768V30.7164C103.768 31.9308 104.139 32.9105 104.942 33.5747C105.731 34.2263 106.867 34.5162 108.278 34.5162C109.688 34.5162 110.824 34.2263 111.613 33.5747C112.416 32.9105 112.787 31.9308 112.787 30.7164C112.787 29.9632 112.696 29.3133 112.494 28.7831C112.293 28.2358 111.936 27.6921 111.444 27.1509L111.434 27.1402L107.089 22.9734L107.085 22.9701C106.724 22.6398 106.529 22.3574 106.448 22.1265C106.357 21.8686 106.302 21.4797 106.302 20.9369C106.302 20.4768 106.448 20.158 106.711 19.9281C106.993 19.6954 107.452 19.5451 108.157 19.5451C108.866 19.5451 109.312 19.6973 109.575 19.9251L109.578 19.928L109.581 19.9308C109.858 20.1605 110.011 20.4847 110.011 20.961V23.5293H112.545V21.0576C112.545 19.8497 112.194 18.872 111.427 18.2058C110.67 17.5494 109.579 17.2578 108.229 17.2578C106.821 17.2578 105.687 17.566 104.902 18.2559C104.13 18.9328 103.768 19.8885 103.768 21.0576C103.768 21.8127 103.86 22.4691 104.06 23.0129L104.063 23.021L104.066 23.0289C104.287 23.5626 104.673 24.0903 105.198 24.6139L105.199 24.6156L109.457 28.7672L109.458 28.769C109.802 29.1124 109.996 29.412 110.081 29.6658L110.085 29.6775L110.089 29.6889C110.19 29.94 110.253 30.322 110.253 30.8613C110.253 31.2904 110.102 31.601 109.806 31.8379C109.507 32.0761 109.021 32.2289 108.278 32.2289C107.534 32.2289 107.048 32.0761 106.749 31.8379C106.459 31.606 106.302 31.2831 106.302 30.813V28.2447Z" fill="#141211"/>
<path d="M123.435 19.9073V17.62H114.61V19.9073H117.756V34.154H120.29V19.9073H123.435Z" fill="#141211"/>
<path fill-rule="evenodd" clip-rule="evenodd" d="M133.25 33.546L133.25 33.5455C134.054 32.8556 134.437 31.8927 134.437 30.7164V21.0576C134.437 19.8828 134.055 18.9257 133.248 18.251C132.449 17.5653 131.301 17.2578 129.879 17.2578C128.471 17.2578 127.331 17.5664 126.532 18.2524L126.532 18.2527C125.742 18.9286 125.369 19.8853 125.369 21.0576V30.7164C125.369 31.8927 125.753 32.8556 126.556 33.5455L126.558 33.5473L126.56 33.5491C127.359 34.2166 128.497 34.5162 129.903 34.5162C131.323 34.5162 132.465 34.2177 133.25 33.546ZM131.903 21.0576V30.7164C131.903 31.2678 131.735 31.6149 131.456 31.8379C131.159 32.0751 130.665 32.2289 129.903 32.2289C129.142 32.2289 128.648 32.0751 128.351 31.8379C128.072 31.6149 127.904 31.2678 127.904 30.7164V21.0576C127.904 20.5062 128.072 20.1591 128.351 19.9361C128.648 19.6989 129.142 19.5451 129.903 19.5451C130.665 19.5451 131.159 19.6989 131.456 19.9361C131.735 20.1591 131.903 20.5062 131.903 21.0576Z" fill="#141211"/>
<path d="M138.068 34.154H140.602V23.6802L145.157 34.154H147.547V17.62H145.013V28.0938L140.457 17.62H138.068V34.154Z" fill="#141211"/>
<path fill-rule="evenodd" clip-rule="evenodd" d="M160 28.9691H157.466V30.7164C157.466 31.275 157.303 31.624 157.041 31.8446C156.765 32.0767 156.305 32.2289 155.587 32.2289C154.87 32.2289 154.41 32.0767 154.134 31.8446C153.871 31.624 153.709 31.275 153.709 30.7164V26.7892H160V21.0576C160 19.8862 159.628 18.93 158.84 18.2543C158.056 17.5669 156.941 17.2578 155.563 17.2578C154.187 17.2578 153.076 17.5665 152.307 18.2576C151.536 18.9344 151.175 19.8895 151.175 21.0576V30.7164C151.175 31.8894 151.547 32.8514 152.333 33.5422L152.335 33.5441L152.338 33.546C153.121 34.2157 154.235 34.5162 155.612 34.5162C156.987 34.5162 158.097 34.2162 158.865 33.5427L158.867 33.5408L158.869 33.5389C159.638 32.8471 160 31.8862 160 30.7164V28.9691ZM157.466 21.0576V24.5019H153.709V21.0576C153.709 20.499 153.871 20.15 154.134 19.9295C154.41 19.6973 154.87 19.5451 155.587 19.5451C156.305 19.5451 156.765 19.6973 157.041 19.9295C157.303 20.15 157.466 20.499 157.466 21.0576Z" fill="#141211"/>
<path fill-rule="evenodd" clip-rule="evenodd" d="M15.6696 4.08751V8.93357e-07L36.1072 0V4.08751L30.9977 4.08751V5.44967H46.326V20.7778H47.6874V15.6684H51.7749V36.1059H47.6874V30.9965H46.326V46.3248H5.45088V31.453H4.08751V36.1059H0V15.6684H4.08751V20.7744H5.45088V5.44967H20.7789V4.08751L15.6696 4.08751ZM30.9977 47.6874V46.3251H20.7789V47.6874H15.6696V51.7749H36.1072V47.6874H30.9977Z" fill="#FF7A00"/>
<path fill-rule="evenodd" clip-rule="evenodd" d="M42.3039 17.2312C42.4216 16.7517 42.4511 16.2634 42.4599 15.8897C42.4599 15.1572 42.3746 14.5453 42.2716 13.9393C42.1936 13.4871 42.0821 13.0415 41.9706 12.596C41.7832 11.8474 41.596 11.0992 41.5683 10.3209C41.5624 10.1681 41.4626 10.1709 41.3568 10.1738L41.3565 10.1739C40.8325 10.1843 40.3272 10.0665 39.8239 9.94921C39.7619 9.93477 39.7 9.92034 39.6381 9.90615C39.5497 9.8859 39.4613 9.86551 39.3729 9.84512C38.1517 9.56341 36.9273 9.28098 35.6569 9.34133C34.3858 9.40016 33.2588 9.77083 32.4761 10.8593C32.469 10.8693 32.462 10.8795 32.4549 10.8896C32.3563 11.0313 32.255 11.1768 32.0436 11.0917C31.82 11.0005 31.8523 10.7975 31.8817 10.621C32.0877 9.4237 31.6581 8.42349 30.9137 7.52919C30.281 6.76726 29.4984 6.17891 28.6774 5.63173C28.3889 5.43942 28.0908 5.26102 27.7928 5.08264C27.1518 4.69892 26.5108 4.31525 25.9645 3.79312C25.8821 3.71369 25.8379 3.74605 25.7732 3.80783C25.2583 4.3039 24.6541 4.6711 24.0494 5.03858C23.7971 5.19194 23.5446 5.34534 23.2986 5.50818C22.3747 6.12301 21.4802 6.77021 20.7857 7.65274C20.1001 8.52351 19.7382 9.49136 19.9177 10.6122C19.9202 10.628 19.9228 10.6439 19.9255 10.6596C19.9541 10.831 19.9813 10.9937 19.7765 11.0799C19.5558 11.1741 19.4381 11.0181 19.3292 10.8652C18.7937 10.115 18.061 9.67375 17.1694 9.47077C15.9719 9.20012 14.7919 9.35604 13.6091 9.5855C13.2442 9.6561 12.8833 9.74697 12.5223 9.83784C11.8004 10.0196 11.0786 10.2013 10.3253 10.2209C10.1988 10.2239 10.1899 10.2709 10.187 10.3857C10.1786 10.9787 10.0466 11.5503 9.91419 12.1235C9.90802 12.1502 9.90185 12.177 9.89569 12.2037C9.87575 12.2906 9.85568 12.3775 9.83562 12.4644C9.5684 13.6217 9.30104 14.7797 9.33662 15.9809C9.37781 17.3518 9.75151 18.5668 10.9609 19.3816C11.1021 19.4758 11.1639 19.6082 11.0874 19.7611C11.0021 19.9229 10.852 19.9465 10.6754 19.9141C9.5985 19.72 8.64514 20.0259 7.78594 20.6672C6.78845 21.4115 6.0852 22.4058 5.42315 23.4354C5.28042 23.6568 5.14484 23.883 5.00927 24.1093C4.65294 24.7039 4.29666 25.2985 3.81068 25.8036C3.72241 25.8977 3.73123 25.9418 3.81068 26.0213C4.26125 26.467 4.58821 27.0034 4.91517 27.5399C4.99177 27.6656 5.06837 27.7913 5.14656 27.9158C5.69385 28.7865 6.24998 29.6514 6.97382 30.3869C7.97132 31.4018 9.10711 32.1019 10.6166 31.8695C10.6318 31.8673 10.6472 31.8649 10.6625 31.8625C10.8312 31.8362 11.0035 31.8093 11.0844 32.0196C11.1639 32.2343 11.0109 32.3461 10.8549 32.4579C10.1693 32.9462 9.73974 33.6111 9.51611 34.4201C9.21009 35.5379 9.31602 36.6558 9.50434 37.7766C9.58353 38.2516 9.70011 38.7193 9.81665 39.1867C10.0032 39.9351 10.1897 40.6829 10.2223 41.4598C10.2282 41.5951 10.3017 41.598 10.3988 41.598C10.9541 41.5931 11.4889 41.7183 12.0238 41.8435C12.1324 41.8689 12.2409 41.8943 12.3497 41.9187C12.4363 41.9381 12.5228 41.9577 12.6093 41.9773C13.4901 42.177 14.3691 42.3762 15.2774 42.4217C16.9076 42.5041 18.4053 42.254 19.4175 40.7743C19.491 40.6655 19.6117 40.6125 19.747 40.6831C19.8971 40.7626 19.9589 40.892 19.9265 41.0538C19.6588 42.3864 20.1708 43.4631 21.027 44.428C21.5684 45.037 22.2128 45.5253 22.8778 45.9901C23.2278 46.2339 23.5941 46.4537 23.9606 46.6735C24.6109 47.0636 25.2613 47.4538 25.8203 47.9788C25.9159 48.0694 25.9642 48.0157 26.013 47.9615C26.0213 47.9523 26.0295 47.9431 26.038 47.9346C26.4358 47.5476 26.9014 47.2575 27.3667 46.9675C27.4142 46.9379 27.4618 46.9082 27.5093 46.8785C27.6293 46.803 27.7497 46.728 27.8702 46.6531C28.5141 46.2523 29.1576 45.8517 29.7426 45.3635C31.1079 44.225 32.1995 42.9512 31.8435 40.9861C31.8229 40.8655 31.87 40.7596 31.9906 40.7037C32.1024 40.6508 32.2172 40.6655 32.3113 40.742C32.3643 40.7848 32.4043 40.8407 32.4443 40.8965C32.451 40.9058 32.4576 40.9151 32.4644 40.9244C32.944 41.5892 33.5825 42.0158 34.3652 42.2423C35.4921 42.5659 36.625 42.4629 37.7549 42.2746C38.2341 42.1944 38.7059 42.0777 39.1776 41.9611C39.9338 41.7741 40.6895 41.5872 41.4742 41.5509C41.6071 41.5434 41.6032 41.4739 41.5991 41.4025C41.5984 41.3901 41.5977 41.3778 41.5977 41.3656C41.6004 40.7822 41.7333 40.2198 41.8662 39.6576C41.8827 39.5876 41.8992 39.5176 41.9155 39.4476L41.9155 39.4475C42.2274 38.1032 42.5393 36.7588 42.4187 35.3614C42.3157 34.1729 41.8949 33.1492 40.8827 32.4373C40.7356 32.3343 40.5973 32.2314 40.6915 32.0225C40.7856 31.8195 40.9622 31.8401 41.1328 31.8695C42.3569 32.0843 43.3721 31.643 44.2842 30.8781C45.0522 30.231 45.6407 29.4337 46.1909 28.6041C46.3757 28.3266 46.5479 28.0399 46.7201 27.7531C47.0937 27.1312 47.4676 26.5087 47.9711 25.9771C48.0564 25.8859 48.0417 25.8359 47.9652 25.7565C47.4787 25.2468 47.1169 24.652 46.7551 24.0573C46.6137 23.8247 46.4722 23.5922 46.3233 23.3648C45.7407 22.4735 45.1228 21.6145 44.3048 20.9202C43.3956 20.1495 42.3775 19.7111 41.1593 19.9112C41.1461 19.9134 41.1328 19.9157 41.1195 19.918C40.9564 19.9466 40.7973 19.9745 40.7238 19.7758C40.6503 19.5758 40.7503 19.4405 40.921 19.3199C41.6537 18.8051 42.0921 18.0961 42.3039 17.2312ZM25.8863 40.1935C33.7875 40.1935 40.1926 33.7884 40.1926 25.8872C40.1926 17.9861 33.7875 11.5809 25.8863 11.5809C17.9852 11.5809 11.58 17.9861 11.58 25.8872C11.58 33.7884 17.9852 40.1935 25.8863 40.1935Z" fill="white"/>
<path fill-rule="evenodd" clip-rule="evenodd" d="M25.1778 13.4755V11.5969L23.6997 11.5985L23.6278 12.9749C19.0732 13.9287 19.3832 19.5799 19.3832 19.5799C14.1372 19.246 12.7774 23.7296 12.7774 23.7296H11.5986V25.2081H13.4723C14.9275 20.9701 18.0275 20.5342 19.6728 20.8921C21.3181 21.25 21.6016 22.967 21.055 23.5629C20.5084 24.1589 19.9619 24.087 19.3868 23.7057C18.8116 23.3244 19.2195 22.2752 19.2195 22.2752C18.2885 22.2038 18.0978 23.3723 18.0978 23.3723C17.0964 23.1113 16.7864 23.825 16.7864 23.825C17.4539 23.801 18.0739 24.4928 18.0739 24.4928C18.0739 24.4928 19.1232 25.7836 20.9357 25.2575C22.7483 24.7314 22.939 23.0144 22.939 23.0144C25.6815 22.8237 25.6815 19.6303 24.7989 18.8656C24.2679 18.3969 23.9212 17.7544 23.821 17.0533C23.0583 17.2919 23.2964 18.3885 23.2964 18.3885C22.271 18.675 22.295 19.6049 22.295 19.6049C23.1042 18.9849 24.4889 20.0101 23.869 20.9161C22.8084 22.4648 21.081 20.7723 20.8164 19.7945C20.5518 18.8167 20.6471 17.1955 21.8871 15.7411C23.1271 14.2866 25.1778 13.4755 25.1778 13.4755ZM25.1767 38.3306V40.2097L23.6986 40.2077L23.6267 38.8312C19.0721 37.8774 19.3821 32.2263 19.3821 32.2263C14.1361 32.5602 12.7763 28.0775 12.7763 28.0775H11.5975V26.5991H13.4687C14.9238 30.8371 18.0238 31.273 19.6691 30.9151C21.3144 30.5572 21.5979 28.8412 21.0514 28.2448C20.5048 27.6483 19.9582 27.7202 19.3831 28.1015C18.808 28.4828 19.2158 29.532 19.2158 29.532C18.2848 29.6039 18.0941 28.4354 18.0941 28.4354C17.0928 28.6959 16.7828 27.9822 16.7828 27.9822C17.4502 28.0062 18.0727 27.3154 18.0727 27.3154C18.0727 27.3154 19.122 26.0241 20.9346 26.5507C22.7472 27.0773 22.9378 28.7938 22.9378 28.7938C25.6804 28.985 25.6804 32.1784 24.7978 32.9431C24.2668 33.4115 23.9201 34.0539 23.8199 34.7549C23.0572 34.5168 23.2953 33.4197 23.2953 33.4197C22.2699 33.1337 22.2939 32.2039 22.2939 32.2039C23.103 32.8238 24.4878 31.7986 23.8678 30.8921C22.8073 29.3434 21.0799 31.0379 20.8153 32.0137C20.5507 32.9895 20.646 34.6116 21.886 36.0656C23.126 37.5195 25.1767 38.3306 25.1767 38.3306ZM26.6347 11.5969V13.4755C26.6347 13.4755 28.6854 14.2866 29.9254 15.7411C31.1654 17.1955 31.2607 18.8167 30.9961 19.7945C30.7315 20.7723 29.0041 22.4648 27.9436 20.9161C27.3236 20.0101 28.7083 18.9849 29.5175 19.6049C29.5175 19.6049 29.5415 18.675 28.5161 18.3885C28.5161 18.3885 28.7542 17.2919 27.9915 17.0533C27.891 17.7543 27.5444 18.3968 27.0136 18.8656C26.131 19.6303 26.131 22.8237 28.8735 23.0144C28.8735 23.0144 29.0642 24.7314 30.8768 25.2575C32.6894 25.7836 33.7387 24.4928 33.7387 24.4928C33.7387 24.4928 34.3587 23.801 35.0261 23.825C35.0261 23.825 34.7161 23.1113 33.7147 23.3723C33.7147 23.3723 33.524 22.2038 32.593 22.2752C32.593 22.2752 33.0009 23.3244 32.4258 23.7057C31.8506 24.087 31.3041 24.1589 30.757 23.5629C30.2099 22.967 30.4944 21.25 32.1397 20.8921C33.7851 20.5342 36.885 20.9701 38.3397 25.2081H40.2098V23.7296H39.0315C39.0315 23.7296 37.6723 19.247 32.4258 19.5809C32.4258 19.5809 32.7358 13.9298 28.1811 12.9759L28.1093 11.5995L26.6347 11.5969ZM26.6347 38.3305V40.2096L28.1093 40.2065L28.1811 38.8301C32.7358 37.8763 32.4258 32.2251 32.4258 32.2251C37.6723 32.559 39.0315 28.0764 39.0315 28.0764H40.2098V26.598H38.3397C36.885 30.8359 33.7851 31.2718 32.1397 30.9139C30.4944 30.556 30.2099 28.8401 30.757 28.2436C31.3041 27.6471 31.8506 27.719 32.4258 28.1003C33.0009 28.4817 32.593 29.5308 32.593 29.5308C33.524 29.6027 33.7147 28.4343 33.7147 28.4343C34.7161 28.6948 35.0261 27.981 35.0261 27.981C34.3587 28.005 33.7387 27.3137 33.7387 27.3137C33.7387 27.3137 32.6894 26.0224 30.8768 26.549C29.0642 27.0756 28.8735 28.7921 28.8735 28.7921C26.131 28.9833 26.131 32.1767 27.0136 32.9414C27.5444 33.41 27.8911 34.0523 27.9915 34.7532C28.7542 34.5151 28.5161 33.4181 28.5161 33.4181C29.5415 33.1321 29.5175 32.2022 29.5175 32.2022C28.7083 32.8221 27.3236 31.7969 27.9436 30.8905C29.0041 29.3417 30.7315 31.0347 30.9961 32.012C31.2607 32.9893 31.1654 34.611 29.9254 36.0654C28.6854 37.5199 26.6347 38.3305 26.6347 38.3305Z" fill="white"/>
<circle cx="25.8238" cy="25.9522" r="0.975662" fill="white"/>
</svg>
